<svg width="176" height="168" viewBox="0 0 176 168" fill="none" xmlns="http://www.w3.org/2000/svg">
<rect y="69.1143" width="8" height="7.60284" rx="3.80142" fill="#2B2979" fill-opacity="0.05"/>
<rect y="0.688477" width="8" height="7.60287" rx="3.80144" fill="#2B2979" fill-opacity="0.05"/>
<rect x="24" y="69.1143" width="8" height="7.60284" rx="3.80142" fill="#2B2979" fill-opacity="0.05"/>
<rect x="24" y="0.688477" width="8" height="7.60287" rx="3.80144" fill="#2B2979" fill-opacity="0.05"/>
<rect x="48" y="69.1143" width="8" height="7.60284" rx="3.80142" fill="#2B2979" fill-opacity="0.05"/>
<rect x="48" y="0.688477" width="8" height="7.60287" rx="3.80144" fill="#2B2979" fill-opacity="0.05"/>
<rect x="72" y="69.1143" width="8" height="7.60284" rx="3.80142" fill="#2B2979" fill-opacity="0.05"/>
<rect x="72" y="0.688477" width="8" height="7.60287" rx="3.80144" fill="#2B2979" fill-opacity="0.05"/>
<rect x="96" y="69.1143" width="8" height="7.60284" rx="3.80142" fill="#2B2979" fill-opacity="0.05"/>
<rect x="96" y="0.688477" width="8" height="7.60287" rx="3.80144" fill="#2B2979" fill-opacity="0.05"/>
<rect x="120" y="69.1143" width="8" height="7.60284" rx="3.80142" fill="#2B2979" fill-opacity="0.05"/>
<rect x="120" y="0.688477" width="8" height="7.60287" rx="3.80144" fill="#2B2979" fill-opacity="0.05"/>
<rect x="144" y="69.1143" width="8" height="7.60284" rx="3.80142" fill="#2B2979" fill-opacity="0.05"/>
<rect x="144" y="0.688477" width="8" height="7.60287" rx="3.80144" fill="#2B2979" fill-opacity="0.05"/>
<rect x="168" y="69.1143" width="8" height="7.60284" rx="3.80142" fill="#2B2979" fill-opacity="0.05"/>
<rect x="168" y="0.688477" width="8" height="7.60287" rx="3.80144" fill="#2B2979" fill-opacity="0.05"/>
<rect y="91.9229" width="8" height="7.60287" rx="3.80144" fill="#2B2979" fill-opacity="0.05"/>
<rect y="23.4971" width="8" height="7.60287" rx="3.80144" fill="#2B2979" fill-opacity="0.05"/>
<rect x="24" y="91.9229" width="8" height="7.60287" rx="3.80144" fill="#2B2979" fill-opacity="0.05"/>
<rect x="24" y="23.4971" width="8" height="7.60287" rx="3.80144" fill="#2B2979" fill-opacity="0.05"/>
<rect x="48" y="91.9229" width="8" height="7.60287" rx="3.80144" fill="#2B2979" fill-opacity="0.05"/>
<rect x="48" y="23.4971" width="8" height="7.60287" rx="3.80144" fill="#2B2979" fill-opacity="0.05"/>
<rect x="72" y="91.9229" width="8" height="7.60287" rx="3.80144" fill="#2B2979" fill-opacity="0.05"/>
<rect x="72" y="23.4971" width="8" height="7.60287" rx="3.80144" fill="#2B2979" fill-opacity="0.05"/>
<rect x="96" y="91.9229" width="8" height="7.60287" rx="3.80144" fill="#2B2979" fill-opacity="0.05"/>
<rect x="96" y="23.4971" width="8" height="7.60287" rx="3.80144" fill="#2B2979" fill-opacity="0.05"/>
<rect x="120" y="91.9229" width="8" height="7.60287" rx="3.80144" fill="#2B2979" fill-opacity="0.05"/>
<rect x="120" y="23.4971" width="8" height="7.60287" rx="3.80144" fill="#2B2979" fill-opacity="0.05"/>
<rect x="144" y="91.9229" width="8" height="7.60287" rx="3.80144" fill="#2B2979" fill-opacity="0.05"/>
<rect x="144" y="23.4971" width="8" height="7.60287" rx="3.80144" fill="#2B2979" fill-opacity="0.05"/>
<rect x="168" y="91.9229" width="8" height="7.60287" rx="3.80144" fill="#2B2979" fill-opacity="0.05"/>
<rect x="168" y="23.4971" width="8" height="7.60287" rx="3.80144" fill="#2B2979" fill-opacity="0.05"/>
<rect y="114.731" width="8" height="7.60284" rx="3.80142" fill="#2B2979" fill-opacity="0.05"/>
<rect y="46.3057" width="8" height="7.60287" rx="3.80144" fill="#2B2979" fill-opacity="0.05"/>
<rect x="24" y="114.731" width="8" height="7.60284" rx="3.80142" fill="#2B2979" fill-opacity="0.05"/>
<rect x="24" y="46.3057" width="8" height="7.60287" rx="3.80144" fill="#2B2979" fill-opacity="0.05"/>
<rect x="48" y="114.731" width="8" height="7.60284" rx="3.80142" fill="#2B2979" fill-opacity="0.05"/>
<rect x="48" y="46.3057" width="8" height="7.60287" rx="3.80144" fill="#2B2979" fill-opacity="0.05"/>
<rect x="72" y="114.731" width="8" height="7.60284" rx="3.80142" fill="#2B2979" fill-opacity="0.05"/>
<rect x="72" y="46.3057" width="8" height="7.60287" rx="3.80144" fill="#2B2979" fill-opacity="0.05"/>
<rect x="96" y="114.731" width="8" height="7.60284" rx="3.80142" fill="#2B2979" fill-opacity="0.05"/>
<rect x="96" y="46.3057" width="8" height="7.60287" rx="3.80144" fill="#2B2979" fill-opacity="0.05"/>
<rect x="120" y="114.731" width="8" height="7.60284" rx="3.80142" fill="#2B2979" fill-opacity="0.05"/>
<rect x="120" y="46.3057" width="8" height="7.60287" rx="3.80144" fill="#2B2979" fill-opacity="0.05"/>
<rect x="144" y="114.731" width="8" height="7.60284" rx="3.80142" fill="#2B2979" fill-opacity="0.05"/>
<rect x="144" y="46.3057" width="8" height="7.60287" rx="3.80144" fill="#2B2979" fill-opacity="0.05"/>
<rect x="168" y="114.731" width="8" height="7.60284" rx="3.80142" fill="#2B2979" fill-opacity="0.05"/>
<rect x="168" y="46.3057" width="8" height="7.60287" rx="3.80144" fill="#2B2979" fill-opacity="0.05"/>
<rect y="137.54" width="8" height="7.60284" rx="3.80142" fill="#2B2979" fill-opacity="0.05"/>
<rect x="24" y="137.54" width="8" height="7.60284" rx="3.80142" fill="#2B2979" fill-opacity="0.05"/>
<rect x="48" y="137.54" width="8" height="7.60284" rx="3.80142" fill="#2B2979" fill-opacity="0.05"/>
<rect x="72" y="137.54" width="8" height="7.60284" rx="3.80142" fill="#2B2979" fill-opacity="0.05"/>
<rect x="96" y="137.54" width="8" height="7.60284" rx="3.80142" fill="#2B2979" fill-opacity="0.05"/>
<rect x="120" y="137.54" width="8" height="7.60284" rx="3.80142" fill="#2B2979" fill-opacity="0.05"/>
<rect x="144" y="137.54" width="8" height="7.60284" rx="3.80142" fill="#2B2979" fill-opacity="0.05"/>
<rect x="168" y="137.54" width="8" height="7.60284" rx="3.80142" fill="#2B2979" fill-opacity="0.05"/>
<rect y="160.349" width="8" height="7.60284" rx="3.80142" fill="#2B2979" fill-opacity="0.05"/>
<rect x="24" y="160.349" width="8" height="7.60284" rx="3.80142" fill="#2B2979" fill-opacity="0.05"/>
<rect x="48" y="160.349" width="8" height="7.60284" rx="3.80142" fill="#2B2979" fill-opacity="0.05"/>
<rect x="72" y="160.349" width="8" height="7.60284" rx="3.80142" fill="#2B2979" fill-opacity="0.05"/>
<rect x="96" y="160.349" width="8" height="7.60284" rx="3.80142" fill="#2B2979" fill-opacity="0.05"/>
<rect x="120" y="160.349" width="8" height="7.60284" rx="3.80142" fill="#2B2979" fill-opacity="0.05"/>
<rect x="144" y="160.349" width="8" height="7.60284" rx="3.80142" fill="#2B2979" fill-opacity="0.05"/>
<rect x="168" y="160.349" width="8" height="7.60284" rx="3.80142" fill="#2B2979" fill-opacity="0.05"/>
</svg>
