<svg width="20" height="20" viewBox="0 0 20 20" fill="none" xmlns="http://www.w3.org/2000/svg">
<path d="M18.5959 8.72016C18.5193 6.53859 17.6359 4.49859 16.0846 2.94734C14.4587 1.32109 12.2977 0.425781 10.0002 0.425781C5.35992 0.425781 1.56836 4.11922 1.40492 8.72016C0.696797 9.03484 0.201172 9.74359 0.201172 10.5673V12.8367C0.201172 13.9511 1.10773 14.858 2.22242 14.858C2.94367 14.858 3.53023 14.2714 3.53023 13.5502V9.85359C3.53023 9.17641 3.01086 8.62422 2.35055 8.55859C2.5943 4.55016 5.93117 1.36328 10.0002 1.36328C12.0477 1.36328 13.973 2.16141 15.4221 3.61047C16.7527 4.94109 17.5315 6.67547 17.6487 8.55891C16.989 8.62516 16.4705 9.17703 16.4705 9.85359V13.5498C16.4705 14.2327 16.998 14.7883 17.6662 14.8461V15.7802C17.6662 16.832 16.8102 17.6877 15.7584 17.6877H14.3455C14.2762 17.4895 14.1674 17.3064 14.0149 17.1545C13.7477 16.8861 13.3915 16.7383 13.0121 16.7383H11.5559C11.3468 16.7383 11.1462 16.7827 10.9624 16.8683C10.4612 17.0986 10.1374 17.6042 10.1374 18.1564C10.1374 18.5358 10.2852 18.892 10.553 19.1586C10.8209 19.427 11.1771 19.5748 11.5559 19.5748H13.0121C13.6159 19.5748 14.148 19.1845 14.3465 18.6252H15.7584C17.3274 18.6252 18.6037 17.3489 18.6037 15.7802V14.6792C19.3074 14.3627 19.7993 13.6564 19.7993 12.8361V10.5667C19.7993 9.74359 19.3037 9.03484 18.5959 8.72016ZM2.59242 9.85359V13.5498C2.59242 13.7539 2.42648 13.9202 2.22211 13.9202C1.62461 13.9202 1.13836 13.4339 1.13836 12.8364V10.567C1.13836 9.96922 1.62461 9.48328 2.22211 9.48328C2.42648 9.48328 2.59242 9.64953 2.59242 9.85359ZM13.4824 18.257C13.4359 18.4777 13.2377 18.638 13.0118 18.638H11.5555C11.4274 18.638 11.3071 18.588 11.2152 18.4961C11.1246 18.4058 11.0746 18.2852 11.0746 18.157C11.0746 17.9698 11.1843 17.7989 11.3562 17.7198C11.4174 17.6911 11.4846 17.6764 11.5555 17.6764H13.0118C13.1399 17.6764 13.2602 17.7261 13.3518 17.818C13.4424 17.9083 13.4924 18.0289 13.4924 18.157C13.4927 18.1914 13.489 18.2258 13.4824 18.257ZM18.8618 12.8364C18.8618 13.4339 18.3755 13.9202 17.778 13.9202C17.574 13.9202 17.4077 13.7542 17.4077 13.5498V9.85359C17.4077 9.64953 17.5737 9.48328 17.778 9.48328C18.3755 9.48328 18.8618 9.96953 18.8618 10.567V12.8364Z" fill="#2B2979"/>
<path d="M13.0354 12.9982C14.1307 12.9982 15.0216 12.107 15.0216 11.012V6.96477C15.0216 6.43539 14.8148 5.93664 14.4391 5.56102C14.0635 5.18539 13.5651 4.97852 13.0354 4.97852H6.96477C5.86945 4.97852 4.97852 5.86945 4.97852 6.96477V11.012C4.97852 12.1073 5.86945 12.9982 6.96477 12.9982H7.00195V14.047C7.00195 14.447 7.24039 14.802 7.60914 14.9516C7.7282 14.9995 7.85195 15.0232 7.97445 15.0232C8.22977 15.0232 8.47852 14.922 8.6607 14.7335L10.4054 12.9982H13.0354ZM9.88195 12.197L7.99383 14.0748C7.98539 14.0835 7.97914 14.0901 7.96133 14.0823C7.93977 14.0735 7.93977 14.0595 7.93977 14.047V12.5295C7.93977 12.2707 7.73008 12.0607 7.47102 12.0607H6.96508C6.38664 12.0607 5.91633 11.5901 5.91633 11.012V6.96477C5.91633 6.38633 6.38664 5.91602 6.96508 5.91602H13.0357C13.3151 5.91602 13.5779 6.02539 13.7766 6.22383C13.9754 6.42258 14.0845 6.6857 14.0845 6.96477V11.012C14.0845 11.5904 13.6138 12.0607 13.0357 12.0607H10.2126C10.0885 12.0607 9.96977 12.1098 9.88195 12.197Z" fill="#2B2979"/>
<path d="M7.72281 8.37109C7.34156 8.37109 7.03125 8.68172 7.03125 9.06266C7.03125 9.44359 7.34187 9.75422 7.72281 9.75422C8.10437 9.75422 8.415 9.44359 8.415 9.06266C8.415 8.68172 8.10469 8.37109 7.72281 8.37109Z" fill="#2B2979"/>
<path d="M10.0002 8.37109C9.61891 8.37109 9.30859 8.68172 9.30859 9.06266C9.30859 9.44359 9.61922 9.75422 10.0002 9.75422C10.382 9.75422 10.6923 9.44359 10.6923 9.06266C10.6923 8.68172 10.382 8.37109 10.0002 8.37109Z" fill="#2B2979"/>
<path d="M12.277 8.37109C11.8958 8.37109 11.5854 8.68172 11.5854 9.06266C11.5854 9.44359 11.8961 9.75422 12.277 9.75422C12.6586 9.75422 12.9692 9.44359 12.9692 9.06266C12.9692 8.68172 12.6586 8.37109 12.277 8.37109Z" fill="#2B2979"/>
</svg>
