<svg width="53" height="53" viewBox="0 0 53 53" fill="none" xmlns="http://www.w3.org/2000/svg">
<path fill-rule="evenodd" clip-rule="evenodd" d="M30.8733 2.13419C30.9934 1.07392 31.9415 0.294146 32.9917 0.430541C43.4127 1.59376 51.5082 9.7363 52.676 20.2284C52.7961 21.2887 52.0372 22.246 50.9869 22.3619C50.9128 22.3696 50.8413 22.3747 50.7697 22.3747C49.8089 22.3747 48.9784 21.6464 48.8685 20.6608C47.8974 11.9727 41.1971 5.23011 32.5675 4.26505C31.5147 4.14667 30.7583 3.19447 30.8733 2.13419ZM5.42448 9.84001C4.10844 11.662 4.20043 13.9988 5.61358 17.1256C6.05055 18.0958 5.62635 19.2384 4.66296 19.681C3.70213 20.1237 2.56242 19.6939 2.12544 18.7237C0.116891 14.2793 0.152666 10.5683 2.23788 7.70143C2.67741 6.95512 7.54036 0.670648 12.0915 0.971747C13.4076 1.07983 14.6137 1.70005 15.7483 2.81437C16.9519 3.9956 22.0193 10.2003 22.4256 12.1716C22.8622 14.2826 21.9213 15.9312 21.234 17.1353L21.2322 17.1384C20.5551 18.3248 20.32 18.8318 20.5525 19.4726C22.2646 23.688 24.9069 27.1287 28.3797 29.6276C29.2409 30.2504 29.4402 31.4522 28.8244 32.322C28.4513 32.847 27.8635 33.1301 27.2656 33.1301C26.8797 33.1301 26.4887 33.0143 26.1514 32.7698C22.0806 29.8386 18.9937 25.8343 16.9749 20.8597C16.0882 18.402 17.141 16.5594 17.9102 15.2135C18.4877 14.2047 18.8072 13.6025 18.6717 12.9591C18.314 12.0301 14.5754 7.05549 13.0703 5.5783C12.6052 5.11765 12.1682 4.84743 11.8437 4.82169C10.1213 4.74192 6.27287 8.42459 5.42448 9.84001ZM34.7481 32.127C36.1791 31.2211 38.1416 29.9884 40.6332 30.5057C42.588 30.9123 48.7466 36.0155 49.9221 37.2302C51.0286 38.3677 51.6444 39.5824 51.7492 40.8434C51.9153 45.5812 45.6085 50.5378 44.8879 50.9547C43.5106 51.9532 41.8981 52.4576 40.0863 52.4576C38.2822 52.4576 36.2787 51.9583 34.1092 50.9444C25.7632 47.4496 13.1421 36.1339 6.04825 25.7499C5.44773 24.8749 5.6675 23.6731 6.53889 23.0657C7.41028 22.4687 8.60622 22.6823 9.20418 23.565C15.8304 33.2593 27.943 44.1812 35.6527 47.411C38.7728 48.8676 41.0957 48.9576 42.8206 47.7121C44.1647 46.8885 47.9927 43.0618 47.9237 41.0699C47.9007 40.8357 47.635 40.3956 47.1827 39.9272C45.7108 38.4089 40.7737 34.6464 39.7413 34.2553C38.9185 34.088 38.0803 34.5769 36.7898 35.3927L36.1254 35.8097C35.2182 36.3578 34.0377 36.0593 33.4959 35.1508C32.949 34.2347 33.2429 33.0483 34.1501 32.5001L34.7481 32.127ZM39.8382 20.8376C40.0171 21.7589 40.8195 22.3971 41.7164 22.3971C41.8391 22.3971 41.9643 22.3868 42.0869 22.3637C43.127 22.1604 43.8042 21.1438 43.6023 20.099C42.5648 14.7461 38.4608 10.6131 33.1456 9.57082C32.1208 9.39325 31.1012 10.0521 30.8968 11.0969C30.6949 12.1417 31.3747 13.1583 32.4122 13.3616C36.1865 14.1002 39.1022 17.034 39.8382 20.8376Z" fill="#2B2979"/>
</svg>
