<svg width="24" height="24" viewBox="0 0 24 24" fill="none" xmlns="http://www.w3.org/2000/svg">
<ellipse cx="12" cy="12" rx="12" ry="12" transform="rotate(-180 12 12)" fill="#E8E8FD"/>
<path d="M13.3726 6.45801C15.5315 6.69776 17.2371 8.40109 17.4792 10.56" stroke="#2B2979" stroke-linecap="round" stroke-linejoin="round"/>
<path d="M13.3726 8.52441C14.4056 8.72508 15.213 9.533 15.4142 10.5661" stroke="#2B2979" stroke-linecap="round" stroke-linejoin="round"/>
<path fill-rule="evenodd" clip-rule="evenodd" d="M11.4349 12.2752C13.7618 14.6016 14.2897 11.9103 15.7712 13.3908C17.1996 14.8188 18.0211 15.1049 16.2108 16.9141C15.9841 17.0963 14.5439 19.288 9.48244 14.2278C4.42035 9.16701 6.61075 7.72527 6.79297 7.49865C8.60703 5.68442 8.88882 6.51015 10.3171 7.93812C11.7981 9.4193 9.10798 9.94892 11.4349 12.2752Z" stroke="#2B2979" stroke-linecap="round" stroke-linejoin="round"/>
</svg>
