<svg width="17" height="17" viewBox="0 0 17 17" fill="none" xmlns="http://www.w3.org/2000/svg">
<g clip-path="url(#clip0_3374_25400)">
<path fill-rule="evenodd" clip-rule="evenodd" d="M5.24957 3.35176C5.63363 2.96771 6.15451 2.75195 6.69764 2.75195H9.20394C9.58095 2.75195 9.88656 3.05758 9.88656 3.43458C9.88656 3.81158 9.58095 4.1172 9.20394 4.1172H6.69764C6.51659 4.1172 6.34297 4.18912 6.21495 4.31714L5.64944 4.88264C5.26539 5.26669 4.74451 5.48245 4.20138 5.48245H3.06032C2.68332 5.48245 2.3777 5.78807 2.3777 6.16507V12.9913C2.3777 13.3683 2.68332 13.6739 3.06032 13.6739H12.6171C12.9941 13.6739 13.2997 13.3683 13.2997 12.9913V8.21295C13.2997 7.83593 13.6053 7.53032 13.9823 7.53032C14.3593 7.53032 14.6649 7.83593 14.6649 8.21295V12.9913C14.6649 14.1224 13.7481 15.0392 12.6171 15.0392H3.06032C1.92932 15.0392 1.01245 14.1224 1.01245 12.9913V6.16507C1.01245 5.03407 1.92932 4.1172 3.06032 4.1172H4.20138C4.38242 4.1172 4.55605 4.04528 4.68407 3.91727L5.24957 3.35176Z" fill="white"/>
<path fill-rule="evenodd" clip-rule="evenodd" d="M4.42554 9.57816C4.42554 7.69316 5.95365 6.16504 7.83866 6.16504C9.72366 6.16504 11.2518 7.69316 11.2518 9.57816C11.2518 11.4632 9.72366 12.9913 7.83866 12.9913C5.95365 12.9913 4.42554 11.4632 4.42554 9.57816ZM7.83866 7.53029C6.70765 7.53029 5.79079 8.44712 5.79079 9.57816C5.79079 10.7092 6.70765 11.626 7.83866 11.626C8.9697 11.626 9.88653 10.7092 9.88653 9.57816C9.88653 8.44712 8.9697 7.53029 7.83866 7.53029Z" fill="white"/>
<path fill-rule="evenodd" clip-rule="evenodd" d="M11.2517 3.43458C11.2517 3.05758 11.5573 2.75195 11.9343 2.75195H16.0301C16.4071 2.75195 16.7127 3.05758 16.7127 3.43458C16.7127 3.81158 16.4071 4.1172 16.0301 4.1172H11.9343C11.5573 4.1172 11.2517 3.81158 11.2517 3.43458Z" fill="white"/>
<path fill-rule="evenodd" clip-rule="evenodd" d="M13.9824 0.704102C14.3594 0.704102 14.6651 1.00973 14.6651 1.38673V5.48247C14.6651 5.85947 14.3594 6.16509 13.9824 6.16509C13.6054 6.16509 13.2998 5.85947 13.2998 5.48247V1.38673C13.2998 1.00973 13.6054 0.704102 13.9824 0.704102Z" fill="white"/>
</g>
<defs>
<clipPath id="clip0_3374_25400">
<rect width="16.383" height="16.383" fill="white" transform="translate(0.329834 0.0214844)"/>
</clipPath>
</defs>
</svg>
