<svg width="59" height="65" viewBox="0 0 59 65" fill="none" xmlns="http://www.w3.org/2000/svg">
<path d="M17.1665 13.291C16.0048 13.291 15.0415 12.3277 15.0415 11.166V2.66602C15.0415 1.50435 16.0048 0.541016 17.1665 0.541016C18.3282 0.541016 19.2915 1.50435 19.2915 2.66602V11.166C19.2915 12.3277 18.3282 13.291 17.1665 13.291Z" fill="#CB544B"/>
<path d="M39.8335 13.291C38.6718 13.291 37.7085 12.3277 37.7085 11.166V2.66602C37.7085 1.50435 38.6718 0.541016 39.8335 0.541016C40.9952 0.541016 41.9585 1.50435 41.9585 2.66602V11.166C41.9585 12.3277 40.9952 13.291 39.8335 13.291Z" fill="#CB544B"/>
<path d="M18.5833 38.0821C17.8467 38.0821 17.11 37.7705 16.5716 37.2605C16.4583 37.1188 16.3167 36.9771 16.2317 36.8355C16.1183 36.6655 16.0333 36.4955 15.9767 36.3255C15.8917 36.1555 15.835 35.9858 15.8067 35.8158C15.7783 35.6174 15.75 35.4188 15.75 35.2488C15.75 34.5121 16.0616 33.7758 16.5716 33.2374C17.62 32.1891 19.5184 32.1891 20.595 33.2374C21.105 33.7758 21.4167 34.5121 21.4167 35.2488C21.4167 35.4188 21.3883 35.6174 21.36 35.8158C21.3317 35.9858 21.275 36.1555 21.19 36.3255C21.1333 36.4955 21.0483 36.6655 20.935 36.8355C20.8217 36.9771 20.7084 37.1188 20.595 37.2605C20.0567 37.7705 19.32 38.0821 18.5833 38.0821Z" fill="#CB544B"/>
<path d="M28.4998 38.0815C28.1315 38.0815 27.7632 37.9965 27.4232 37.8548C27.0548 37.7132 26.7432 37.5148 26.4882 37.2598C26.3748 37.1182 26.2332 36.9765 26.1482 36.8348C26.0348 36.6648 25.9498 36.4948 25.8932 36.3248C25.8082 36.1548 25.7515 35.9848 25.7232 35.8148C25.6948 35.6165 25.6665 35.4182 25.6665 35.2482C25.6665 34.5115 25.9782 33.7748 26.4882 33.2365C26.7432 32.9815 27.0548 32.7832 27.4232 32.6415C28.4432 32.1882 29.7182 32.4432 30.5115 33.2365C31.0215 33.7748 31.3332 34.5115 31.3332 35.2482C31.3332 35.4182 31.3048 35.6165 31.2765 35.8148C31.2482 35.9848 31.1915 36.1548 31.1065 36.3248C31.0498 36.4948 30.9648 36.6648 30.8515 36.8348C30.7382 36.9765 30.6248 37.1182 30.5115 37.2598C29.9732 37.7698 29.2365 38.0815 28.4998 38.0815Z" fill="#CB544B"/>
<path d="M18.5833 47.9987C17.8183 47.9987 17.11 47.687 16.5716 47.177C16.0616 46.6387 15.75 45.902 15.75 45.1654C15.75 44.4287 16.0616 43.692 16.5716 43.1537C16.7133 43.0404 16.855 42.8987 16.9967 42.8137C17.1667 42.7004 17.3367 42.6154 17.5067 42.5587C17.6767 42.4737 17.8467 42.417 18.0167 42.3887C18.5833 42.2754 19.15 42.332 19.66 42.5587C20.0283 42.7004 20.3117 42.8987 20.595 43.1537C21.105 43.692 21.4167 44.4287 21.4167 45.1654C21.4167 45.902 21.105 46.6387 20.595 47.177C20.3117 47.432 20.0283 47.6304 19.66 47.772C19.32 47.9137 18.9517 47.9987 18.5833 47.9987Z" fill="#CB544B"/>
<path d="M52.5832 24.8789H4.4165C3.25484 24.8789 2.2915 23.9156 2.2915 22.7539C2.2915 21.5922 3.25484 20.6289 4.4165 20.6289H52.5832C53.7448 20.6289 54.7082 21.5922 54.7082 22.7539C54.7082 23.9156 53.7448 24.8789 52.5832 24.8789Z" fill="#CB544B"/>
<path d="M45.4998 64.2917C38.0765 64.2917 32.0415 58.2567 32.0415 50.8333C32.0415 43.41 38.0765 37.375 45.4998 37.375C52.9232 37.375 58.9582 43.41 58.9582 50.8333C58.9582 58.2567 52.9232 64.2917 45.4998 64.2917ZM45.4998 41.625C40.4282 41.625 36.2915 45.7617 36.2915 50.8333C36.2915 55.905 40.4282 60.0417 45.4998 60.0417C50.5715 60.0417 54.7082 55.905 54.7082 50.8333C54.7082 45.7617 50.5715 41.625 45.4998 41.625Z" fill="#CB544B"/>
<path d="M48.5328 56.1021C47.9944 56.1021 47.4561 55.9041 47.0311 55.4791L41.0528 49.5004C40.2311 48.6788 40.2311 47.3188 41.0528 46.4971C41.8744 45.6754 43.2344 45.6754 44.0561 46.4971L50.0344 52.4754C50.8561 53.2971 50.8561 54.6574 50.0344 55.4791C49.6094 55.9041 49.0711 56.1021 48.5328 56.1021Z" fill="#CB544B"/>
<path d="M42.4685 56.188C41.9302 56.188 41.3918 55.9897 40.9668 55.5647C40.1452 54.743 40.1452 53.383 40.9668 52.5614L46.9452 46.583C47.7668 45.7614 49.1268 45.7614 49.9485 46.583C50.7702 47.4047 50.7702 48.7647 49.9485 49.5864L43.9702 55.5647C43.5452 55.9614 43.0068 56.188 42.4685 56.188Z" fill="#CB544B"/>
<path d="M38.0483 61.4577H17.1667C6.825 61.4577 0.875 55.5077 0.875 45.166V21.0827C0.875 10.741 6.825 4.79102 17.1667 4.79102H39.8333C50.175 4.79102 56.125 10.741 56.125 21.0827V43.3527C56.125 44.231 55.5867 45.0243 54.7367 45.336C53.915 45.6477 52.98 45.421 52.385 44.741C50.6283 42.7577 48.1067 41.6244 45.4717 41.6244C40.4 41.6244 36.2633 45.761 36.2633 50.8327C36.2633 52.5044 36.7167 54.1477 37.595 55.5644C38.0767 56.4144 38.7 57.1227 39.38 57.7177C40.06 58.2844 40.315 59.2194 40.0033 60.0694C39.7483 60.891 38.955 61.4577 38.0483 61.4577ZM17.1667 9.04102C9.06333 9.04102 5.125 12.9794 5.125 21.0827V45.166C5.125 53.2694 9.06333 57.2077 17.1667 57.2077H33.6567C32.6083 55.281 32.0417 53.0993 32.0417 50.8327C32.0417 43.4094 38.0767 37.3744 45.5 37.3744C47.7383 37.3744 49.9483 37.941 51.875 38.9893V21.0827C51.875 12.9794 47.9367 9.04102 39.8333 9.04102H17.1667Z" fill="#CB544B"/>
</svg>
