<svg width="53" height="44" viewBox="0 0 53 44" fill="none" xmlns="http://www.w3.org/2000/svg">
<path fill-rule="evenodd" clip-rule="evenodd" d="M52.939 17.9112C52.939 18.8386 52.1146 19.5905 51.0976 19.5905L51.0746 19.5485C50.5862 19.5485 50.1179 19.3716 49.7725 19.0566C49.4272 18.7417 49.2332 18.3146 49.2332 17.8692V14.4687C49.1709 8.75394 44.1061 4.13512 37.8396 4.07825H15.996C9.72943 4.13512 4.66466 8.75394 4.6023 14.4687V29.3302C4.66466 35.045 9.72943 39.6638 15.996 39.7207H37.8396C44.1061 39.6638 49.1709 35.045 49.2332 29.3302C49.3386 28.4695 50.1365 27.8186 51.0861 27.8186C52.0358 27.8186 52.8337 28.4695 52.939 29.3302C52.9138 36.9256 46.1683 43.0771 37.8396 43.1002H15.996C7.662 43.0886 0.90916 36.9304 0.896484 29.3302V14.4687C0.896484 6.86376 7.65675 0.69873 15.996 0.69873H37.8396C46.1683 0.721782 52.9138 6.87333 52.939 14.4687V17.9112ZM28.8397 21.5636L39.5428 13.755H39.5659C40.3629 13.1773 41.5207 13.2894 42.1668 14.0069C42.4747 14.3567 42.6162 14.8043 42.56 15.2498C42.5038 15.6954 42.2545 16.102 41.8676 16.3789L31.1645 24.2085C28.443 26.2057 24.5639 26.2057 21.8424 24.2085L11.1163 16.3789C10.3295 15.7896 10.2065 14.7337 10.84 14.0069C11.1429 13.6586 11.5865 13.4357 12.0711 13.3884C12.5558 13.341 13.0411 13.4731 13.418 13.755L24.2362 21.5636C25.5876 22.5305 27.4884 22.5305 28.8397 21.5636Z" fill="#2B2979"/>
</svg>
