<svg width="141" height="140" viewBox="0 0 141 140" fill="none" xmlns="http://www.w3.org/2000/svg">
<circle cx="70.5" cy="70" r="70" fill="#2B2979" fill-opacity="0.15"/>
<path d="M70.5 50C65.0998 50.1051 59.9617 52.3476 56.2125 56.2355C52.4633 60.1235 50.4089 65.3396 50.5 70.74V80C50.5 81.5823 50.9692 83.129 51.8482 84.4446C52.7273 85.7602 53.9767 86.7855 55.4385 87.391C56.9003 87.9965 58.5088 88.155 60.0607 87.8463C61.6125 87.5376 63.038 86.7757 64.1568 85.6569C65.2756 84.538 66.0376 83.1126 66.3463 81.5607C66.6549 80.0089 66.4965 78.4003 65.891 76.9385C65.2855 75.4767 64.2601 74.2273 62.9445 73.3482C61.6289 72.4692 60.0822 72 58.5 72C57.0901 72.0059 55.708 72.3929 54.5 73.12V70.74C54.4087 66.4003 56.0416 62.2015 59.0407 59.0637C62.0399 55.9258 66.1606 54.1049 70.5 54C74.8393 54.1049 78.9601 55.9258 81.9592 59.0637C84.9584 62.2015 86.5912 66.4003 86.5 70.74V73.12C85.292 72.3929 83.9099 72.0059 82.5 72C80.9177 72 79.371 72.4692 78.0554 73.3482C76.7398 74.2273 75.7144 75.4767 75.1089 76.9385C74.5034 78.4003 74.345 80.0089 74.6537 81.5607C74.9624 83.1126 75.7243 84.538 76.8431 85.6569C77.9619 86.7757 79.3874 87.5376 80.9392 87.8463C82.4911 88.155 84.0996 87.9965 85.5614 87.391C87.0232 86.7855 88.2727 85.7602 89.1517 84.4446C90.0308 83.129 90.5 81.5823 90.5 80V70.74C90.591 65.3396 88.5367 60.1235 84.7874 56.2355C81.0382 52.3476 75.9001 50.1051 70.5 50Z" fill="#2B2979"/>
</svg>
