<svg width="141" height="140" viewBox="0 0 141 140" fill="none" xmlns="http://www.w3.org/2000/svg">
<circle cx="70.5" cy="70" r="70" fill="#2B2979" fill-opacity="0.15"/>
<path d="M84.5 54H56.5C54.9087 54 53.3826 54.6321 52.2574 55.7574C51.1321 56.8826 50.5 58.4087 50.5 60V80C50.5 81.5913 51.1321 83.1174 52.2574 84.2426C53.3826 85.3679 54.9087 86 56.5 86H84.5C86.0913 86 87.6174 85.3679 88.7426 84.2426C89.8679 83.1174 90.5 81.5913 90.5 80V60C90.5 58.4087 89.8679 56.8826 88.7426 55.7574C87.6174 54.6321 86.0913 54 84.5 54ZM84.5 58L71.5 66.94C71.196 67.1155 70.8511 67.2079 70.5 67.2079C70.1489 67.2079 69.804 67.1155 69.5 66.94L56.5 58H84.5Z" fill="#2B2979"/>
</svg>
