<svg width="141" height="140" viewBox="0 0 141 140" fill="none" xmlns="http://www.w3.org/2000/svg">
<circle cx="70.5" cy="70" r="70" fill="#2B2979" fill-opacity="0.15"/>
<path d="M72.5 62C74.0913 62 75.6174 62.6321 76.7426 63.7574C77.8679 64.8826 78.5 66.4087 78.5 68C78.5 68.5304 78.7107 69.0391 79.0858 69.4142C79.4609 69.7893 79.9696 70 80.5 70C81.0304 70 81.5391 69.7893 81.9142 69.4142C82.2893 69.0391 82.5 68.5304 82.5 68C82.5 65.3478 81.4464 62.8043 79.5711 60.9289C77.6957 59.0536 75.1522 58 72.5 58C71.9696 58 71.4609 58.2107 71.0858 58.5858C70.7107 58.9609 70.5 59.4696 70.5 60C70.5 60.5304 70.7107 61.0391 71.0858 61.4142C71.4609 61.7893 71.9696 62 72.5 62Z" fill="#2B2979"/>
<path d="M72.5 54C76.213 54 79.774 55.475 82.3995 58.1005C85.025 60.726 86.5 64.287 86.5 68C86.5 68.5304 86.7107 69.0391 87.0858 69.4142C87.4609 69.7893 87.9696 70 88.5 70C89.0304 70 89.5391 69.7893 89.9142 69.4142C90.2893 69.0391 90.5 68.5304 90.5 68C90.5 63.2261 88.6036 58.6477 85.2279 55.2721C81.8523 51.8964 77.2739 50 72.5 50C71.9696 50 71.4609 50.2107 71.0858 50.5858C70.7107 50.9609 70.5 51.4696 70.5 52C70.5 52.5304 70.7107 53.0391 71.0858 53.4142C71.4609 53.7893 71.9696 54 72.5 54ZM90 77.82C89.89 77.4989 89.7001 77.2111 89.4482 76.9837C89.1963 76.7563 88.8906 76.5967 88.56 76.52L76.56 73.78C76.2343 73.7061 75.8952 73.715 75.5738 73.8059C75.2524 73.8967 74.9589 74.0666 74.72 74.3C74.44 74.56 74.42 74.58 73.12 77.06C68.8064 75.0723 65.35 71.6017 63.38 67.28C65.92 66 65.94 66 66.2 65.7C66.4334 65.4611 66.6033 65.1676 66.6941 64.8462C66.785 64.5248 66.7939 64.1857 66.72 63.86L63.98 52C63.9033 51.6694 63.7437 51.3637 63.5163 51.1118C63.2889 50.8599 63.0011 50.67 62.68 50.56C62.2129 50.3932 61.7306 50.2726 61.24 50.2C60.7345 50.0828 60.2187 50.0158 59.7 50C57.26 50 54.92 50.9693 53.1946 52.6946C51.4693 54.42 50.5 56.76 50.5 59.2C50.5106 67.3654 53.759 75.1934 59.5328 80.9672C65.3066 86.741 73.1346 89.9894 81.3 90C82.5082 90 83.7045 89.762 84.8207 89.2997C85.9369 88.8373 86.9511 88.1597 87.8054 87.3054C88.6597 86.4511 89.3373 85.4369 89.7997 84.3207C90.262 83.2045 90.5 82.0082 90.5 80.8C90.5006 80.2909 90.4605 79.7827 90.38 79.28C90.2959 78.7832 90.1688 78.2947 90 77.82Z" fill="#2B2979"/>
</svg>
