<svg width="21" height="21" viewBox="0 0 21 21" fill="none" xmlns="http://www.w3.org/2000/svg">
<path d="M17.0547 8.19531V4.99219L13.1484 1.08594H3.77344V5.07031" fill="white"/>
<path d="M17.0547 8.19531V4.99219L13.1484 1.08594H3.77344V5.07031" stroke="black" stroke-width="0.8" stroke-miterlimit="10" stroke-linecap="round" stroke-linejoin="round"/>
<path d="M10.4141 8.19531L9.28344 5.93402C9.01875 5.40473 8.47773 5.07031 7.8859 5.07031H2.5625C1.69957 5.07031 1 5.76985 1 6.63281V18.3516C1 19.2145 1.69957 19.9141 2.5625 19.9141H18.2656C19.1286 19.9141 19.8281 19.2145 19.8281 18.3516V9.75781C19.8281 8.89485 19.1286 8.19531 18.2656 8.19531H10.4141Z" fill="white" stroke="black" stroke-width="0.8" stroke-miterlimit="10" stroke-linecap="round" stroke-linejoin="round"/>
<path d="M13.1484 1.08594V4.21094C13.1484 4.64242 13.4982 4.99219 13.9297 4.99219H17.0547" fill="white"/>
<path d="M13.1484 1.08594V4.21094C13.1484 4.64242 13.4982 4.99219 13.9297 4.99219H17.0547" stroke="black" stroke-width="0.8" stroke-miterlimit="10" stroke-linecap="round" stroke-linejoin="round"/>
<path d="M19.8281 9.75781V7.41406C19.8281 6.55109 19.1286 5.85156 18.2656 5.85156H17.0547" fill="white"/>
<path d="M19.8281 9.75781V7.41406C19.8281 6.55109 19.1286 5.85156 18.2656 5.85156H17.0547" stroke="black" stroke-width="0.8" stroke-miterlimit="10" stroke-linecap="round" stroke-linejoin="round"/>
<path d="M13.5391 12.8828H11.5859V10.9297H9.24219V12.8828H7.28906V15.2266H9.24219V17.1797H11.5859V15.2266H13.5391V12.8828Z" fill="white" stroke="black" stroke-width="0.8" stroke-miterlimit="10" stroke-linecap="round" stroke-linejoin="round"/>
</svg>
