<svg width="23" height="19" viewBox="0 0 23 19" fill="none" xmlns="http://www.w3.org/2000/svg">
<path fill-rule="evenodd" clip-rule="evenodd" d="M20.3317 0.232162C20.6551 0.541711 20.6551 1.04354 20.3317 1.35309L2.91815 18.017C2.75698 18.1723 2.54502 18.2494 2.33306 18.2494C2.12111 18.2494 1.90915 18.1723 1.74798 18.017C1.42452 17.7074 1.42452 17.2066 1.74798 16.8971L3.92489 14.815C2.36412 13.4488 1.04015 11.6072 0.0678922 9.43855C-0.0226307 9.23782 -0.0226307 9.01173 0.0678922 8.81206C1.19501 6.31453 2.78248 4.247 4.65917 2.83449C8.29426 0.0813479 13.0732 -0.0647893 16.8557 2.43865L19.1615 0.232162C19.485 -0.0773872 20.0082 -0.0773872 20.3317 0.232162ZM19.923 5.32546C20.7223 6.34074 21.4244 7.51449 22.0106 8.80973C22.1022 9.01046 22.1022 9.23866 22.0106 9.43834C19.6967 14.5697 15.5956 17.6324 11.0396 17.6324C10.0052 17.6324 8.97635 17.4718 7.9828 17.1559C7.54896 17.0175 7.31382 16.5685 7.45843 16.1533C7.60305 15.7371 8.07001 15.5163 8.50607 15.6515C9.33071 15.9146 10.183 16.0477 11.0396 16.0477C14.8239 16.0477 18.2826 13.4678 20.3458 9.12456C19.8424 8.06914 19.2562 7.11302 18.6005 6.2784C18.3256 5.92871 18.3985 5.43111 18.7639 5.16804C19.1282 4.90498 19.6481 4.97682 19.923 5.32546ZM5.68473 4.07902C4.09948 5.27284 2.73832 7.01181 1.73374 9.12689C2.60965 10.9783 3.76037 12.5397 5.09695 13.6927L7.45695 11.4344C6.97682 10.7583 6.71846 9.96124 6.71846 9.12646C6.71846 6.84447 8.65698 4.98823 11.0393 4.98823C11.9036 4.98823 12.7492 5.2401 13.4531 5.69533L15.6627 3.58089C12.5133 1.6325 8.68026 1.81024 5.68473 4.07902ZM14.6134 8.93947C15.0638 9.01659 15.363 9.42862 15.2824 9.85966C14.9655 11.5426 13.5724 12.878 11.8149 13.1844C11.7652 13.1929 11.7144 13.1971 11.6659 13.1971C11.274 13.1971 10.9251 12.9287 10.8523 12.5463C10.7706 12.1163 11.0686 11.7032 11.5191 11.625C12.6009 11.437 13.4576 10.615 13.6519 9.57864C13.7336 9.14865 14.1641 8.86551 14.6134 8.93947ZM11.0393 6.57295C9.56994 6.57295 8.37437 7.71818 8.37437 9.12646C8.37437 9.53361 8.47453 9.92663 8.66333 10.2796L12.2463 6.85021C11.8774 6.67032 11.4625 6.57295 11.0393 6.57295Z" fill="#00D2CB"/>
</svg>
