<svg width="110" height="110" viewBox="0 0 110 110" fill="none" xmlns="http://www.w3.org/2000/svg">
<g clip-path="url(#clip0_130_24088)">
<path d="M61.8243 13.7858H58.5301V10.4978C58.5301 9.37289 57.6104 8.45292 56.4917 8.45292H53.5084C52.3835 8.45292 51.4635 9.37289 51.4635 10.4978V13.7858H48.1757C47.0508 13.7858 46.1309 14.7057 46.1309 15.8307V18.8077C46.1309 19.9329 47.0508 20.8528 48.1757 20.8528H51.4635V24.1468C51.4635 25.2718 52.3835 26.1917 53.5084 26.1917H56.4917C57.6104 26.1917 58.5301 25.2718 58.5301 24.1468V20.8528H61.8243C62.9493 20.8528 63.8692 19.9329 63.8692 18.8077V15.8307C63.8692 14.7057 62.9493 13.7858 61.8243 13.7858Z" stroke="#FAFAFA" stroke-width="3" stroke-miterlimit="10" stroke-linecap="round" stroke-linejoin="round"/>
<path d="M108.389 49.9407H85.5603" stroke="#FAFAFA" stroke-width="3" stroke-miterlimit="10" stroke-linecap="round" stroke-linejoin="round"/>
<path d="M1.61133 49.9407H24.4398" stroke="#FAFAFA" stroke-width="3" stroke-miterlimit="10" stroke-linecap="round" stroke-linejoin="round"/>
<path d="M62.1414 93.0008V97.3454" stroke="#FAFAFA" stroke-width="3" stroke-miterlimit="10" stroke-linecap="round" stroke-linejoin="round"/>
<path d="M47.8525 93.032V97.3703" stroke="#FAFAFA" stroke-width="3" stroke-miterlimit="10" stroke-linecap="round" stroke-linejoin="round"/>
<path d="M92.3347 71.1351H101.614" stroke="#FAFAFA" stroke-width="3" stroke-miterlimit="10" stroke-linecap="round" stroke-linejoin="round"/>
<path d="M92.3347 81.7324H101.614" stroke="#FAFAFA" stroke-width="3" stroke-miterlimit="10" stroke-linecap="round" stroke-linejoin="round"/>
<path d="M92.3347 92.3295H101.614" stroke="#FAFAFA" stroke-width="3" stroke-miterlimit="10" stroke-linecap="round" stroke-linejoin="round"/>
<path d="M92.3347 60.5379H101.614" stroke="#FAFAFA" stroke-width="3" stroke-miterlimit="10" stroke-linecap="round" stroke-linejoin="round"/>
<path d="M17.6653 71.1351H8.38599" stroke="#FAFAFA" stroke-width="3" stroke-miterlimit="10" stroke-linecap="round" stroke-linejoin="round"/>
<path d="M17.6653 81.7324H8.38599" stroke="#FAFAFA" stroke-width="3" stroke-miterlimit="10" stroke-linecap="round" stroke-linejoin="round"/>
<path d="M17.6653 92.3295H8.38599" stroke="#FAFAFA" stroke-width="3" stroke-miterlimit="10" stroke-linecap="round" stroke-linejoin="round"/>
<path d="M17.6653 60.5379H8.38599" stroke="#FAFAFA" stroke-width="3" stroke-miterlimit="10" stroke-linecap="round" stroke-linejoin="round"/>
<path d="M36.2548 42.8738H43.7131C44.0861 42.8738 44.3967 43.1845 44.3967 43.5575V50.3324C44.3967 50.7053 44.0861 51.016 43.7131 51.016H36.2548C35.882 51.016 35.5774 50.7053 35.5774 50.3324V43.5575C35.5774 43.1845 35.882 42.8738 36.2548 42.8738Z" stroke="#FAFAFA" stroke-width="3" stroke-miterlimit="10" stroke-linecap="round" stroke-linejoin="round"/>
<path d="M51.2708 42.8738H58.7291C59.1021 42.8738 59.4065 43.1845 59.4065 43.5575V50.3324C59.4065 50.7053 59.1021 51.016 58.7291 51.016H51.2708C50.8978 51.016 50.5872 50.7053 50.5872 50.3324V43.5575C50.5872 43.1845 50.8978 42.8738 51.2708 42.8738Z" stroke="#FAFAFA" stroke-width="3" stroke-miterlimit="10" stroke-linecap="round" stroke-linejoin="round"/>
<path d="M66.2869 42.8738H73.739C74.118 42.8738 74.4226 43.1845 74.4226 43.5575V50.3324C74.4226 50.7053 74.118 51.016 73.739 51.016H66.2869C65.9077 51.016 65.6033 50.7053 65.6033 50.3324V43.5575C65.6033 43.1845 65.9077 42.8738 66.2869 42.8738Z" stroke="#FAFAFA" stroke-width="3" stroke-miterlimit="10" stroke-linecap="round" stroke-linejoin="round"/>
<path d="M36.2548 57.6415H43.7131C44.0861 57.6415 44.3967 57.9461 44.3967 58.3253V65.1C44.3967 65.473 44.0861 65.7774 43.7131 65.7774H36.2548C35.882 65.7774 35.5774 65.473 35.5774 65.1V58.3253C35.5774 57.9461 35.882 57.6415 36.2548 57.6415Z" stroke="#FAFAFA" stroke-width="3" stroke-miterlimit="10" stroke-linecap="round" stroke-linejoin="round"/>
<path d="M51.2708 57.6415H58.7291C59.1021 57.6415 59.4065 57.9461 59.4065 58.3253V65.1C59.4065 65.473 59.1021 65.7774 58.7291 65.7774H51.2708C50.8978 65.7774 50.5872 65.473 50.5872 65.1V58.3253C50.5872 57.9461 50.8978 57.6415 51.2708 57.6415Z" stroke="#FAFAFA" stroke-width="3" stroke-miterlimit="10" stroke-linecap="round" stroke-linejoin="round"/>
<path d="M66.2869 57.6415H73.739C74.118 57.6415 74.4226 57.9461 74.4226 58.3253V65.1C74.4226 65.473 74.118 65.7774 73.739 65.7774H66.2869C65.9077 65.7774 65.6033 65.473 65.6033 65.1V58.3253C65.6033 57.9461 65.9077 57.6415 66.2869 57.6415Z" stroke="#FAFAFA" stroke-width="3" stroke-miterlimit="10" stroke-linecap="round" stroke-linejoin="round"/>
<path d="M38.0635 108.023H71.9302V81.6454C71.9302 80.8188 71.2216 80.1412 70.3515 80.1412H39.6484C38.7783 80.1412 38.0635 80.8188 38.0635 81.6454V108.023Z" stroke="#FAFAFA" stroke-width="3" stroke-miterlimit="10" stroke-linecap="round" stroke-linejoin="round"/>
<path d="M55 82.3788V108.023" stroke="#FAFAFA" stroke-width="3" stroke-miterlimit="10" stroke-linecap="round" stroke-linejoin="round"/>
<path d="M24.4399 73.9942V32.6681M85.5602 32.6681V108.023H24.4399V81.5896" stroke="#FAFAFA" stroke-width="3" stroke-miterlimit="10" stroke-linecap="round" stroke-linejoin="round"/>
<path d="M85.5601 40.4809H107.177C107.842 40.4809 108.388 41.0279 108.388 41.699V108.023H85.5601V40.4809Z" stroke="#FAFAFA" stroke-width="3" stroke-miterlimit="10" stroke-linecap="round" stroke-linejoin="round"/>
<path d="M24.4403 40.4806H2.82375C2.15236 40.4806 1.61182 41.0275 1.61182 41.6987V108.023H24.4403" stroke="#FAFAFA" stroke-width="3" stroke-miterlimit="10" stroke-linecap="round" stroke-linejoin="round"/>
<path d="M73.1547 32.6682V3.05194C73.1547 2.46134 72.67 1.97665 72.0732 1.97665H37.9205C37.3301 1.97665 36.8455 2.46134 36.8455 3.05194V32.6682" stroke="#FAFAFA" stroke-width="3" stroke-miterlimit="10" stroke-linecap="round" stroke-linejoin="round"/>
<path d="M59.7608 32.6682H87.7603C88.5372 32.6682 89.1712 32.0341 89.1712 31.2573V24.0102C89.1712 23.2333 88.5372 22.5993 87.7603 22.5993H73.1546M36.8453 22.5993H22.2394C21.4627 22.5993 20.8225 23.2333 20.8225 24.0102V31.2573C20.8225 32.0341 21.4627 32.6682 22.2394 32.6682H52.1721" stroke="#FAFAFA" stroke-width="3" stroke-miterlimit="10" stroke-linecap="round" stroke-linejoin="round"/>
</g>
<defs>
<clipPath id="clip0_130_24088">
<rect width="110" height="110" fill="white"/>
</clipPath>
</defs>
</svg>
