<svg width="112" height="112" viewBox="0 0 112 112" fill="none" xmlns="http://www.w3.org/2000/svg">
<g clip-path="url(#clip0_130_24168)">
<path d="M52.4247 26.8469C37.6138 26.9239 25.5884 38.9966 25.5884 53.8254C25.5884 68.7016 37.6911 80.8043 52.5673 80.8043" stroke="#FAFAFA" stroke-width="3" stroke-miterlimit="10" stroke-linecap="round" stroke-linejoin="round"/>
<path d="M27.7404 80.5975C20.5467 73.9217 16.0386 64.3901 16.0386 53.8253C16.0386 33.7308 32.348 17.374 52.4248 17.297" stroke="#FAFAFA" stroke-width="3" stroke-miterlimit="10" stroke-linecap="round" stroke-linejoin="round"/>
<path d="M103.822 101H8.75732V109.682H103.822V101Z" stroke="#FAFAFA" stroke-width="3" stroke-miterlimit="10" stroke-linecap="round" stroke-linejoin="round"/>
<path d="M52.5813 100.783V80.8043H8.75732V101" stroke="#FAFAFA" stroke-width="3" stroke-miterlimit="10" stroke-linecap="round" stroke-linejoin="round"/>
<path d="M52.5811 80.8043H81.4344C83.8318 80.8043 85.7752 82.7477 85.7752 85.1452C85.7752 87.5426 83.8318 89.486 81.4344 89.486H52.7981" stroke="#FAFAFA" stroke-width="3" stroke-miterlimit="10" stroke-linecap="round" stroke-linejoin="round"/>
<path d="M70.892 40.896V50.5864H52.5674V11.6719H70.892V21.3622" stroke="#FAFAFA" stroke-width="3" stroke-miterlimit="10" stroke-linecap="round" stroke-linejoin="round"/>
<path d="M56.5962 50.8035V59.3612H66.8627V50.8035" stroke="#FAFAFA" stroke-width="3" stroke-miterlimit="10" stroke-linecap="round" stroke-linejoin="round"/>
<path d="M66.8627 11.4549V2.89716H56.5962V11.4549" stroke="#FAFAFA" stroke-width="3" stroke-miterlimit="10" stroke-linecap="round" stroke-linejoin="round"/>
</g>
<defs>
<clipPath id="clip0_130_24168">
<rect width="111.125" height="111.125" fill="white" transform="translate(0.726562 0.726746)"/>
</clipPath>
</defs>
</svg>
