<svg width="20" height="20" viewBox="0 0 20 20" fill="none" xmlns="http://www.w3.org/2000/svg">
<path fill-rule="evenodd" clip-rule="evenodd" d="M1.91388 6.57278C3.05352 3.88761 5.49167 1.88688 8.44046 1.35845C7.21584 2.83532 6.39611 4.57774 5.97296 6.57278H1.91388ZM1.49936 7.79349C1.31684 8.49856 1.21973 9.23801 1.21973 10.0001C1.21973 10.7623 1.31684 11.5017 1.49936 12.2068H5.76741C5.67773 11.4996 5.63305 10.7639 5.63305 10.0001C5.63305 9.23643 5.67773 8.50071 5.76741 7.79349H1.49936ZM6.99844 7.79349C6.90212 8.49359 6.85375 9.22893 6.85375 10.0001C6.85375 10.7714 6.90212 11.5067 6.99844 12.2068H13.0004C13.0967 11.5067 13.1451 10.7714 13.1451 10.0001C13.1451 9.22893 13.0967 8.49359 13.0004 7.79349H6.99844ZM14.2314 7.79349C14.3211 8.50071 14.3658 9.23643 14.3658 10.0001C14.3658 10.7639 14.3211 11.4996 14.2314 12.2068H18.4995C18.682 11.5017 18.7791 10.7623 18.7791 10.0001C18.7791 9.23801 18.682 8.49856 18.4995 7.79349H14.2314ZM18.0849 6.57278H14.0259C13.6027 4.57774 12.783 2.83532 11.5584 1.35845C14.5072 1.88688 16.9453 3.88762 18.0849 6.57278ZM18.0849 13.4275H14.0259C13.6027 15.4226 12.783 17.165 11.5584 18.6418C14.5072 18.1134 16.9453 16.1127 18.0849 13.4275ZM12.7757 13.4275H7.22316C7.69762 15.4596 8.62702 17.1593 9.99941 18.5453C11.3718 17.1593 12.3012 15.4596 12.7757 13.4275ZM5.97296 13.4275H1.91388C3.05352 16.1127 5.49167 18.1134 8.44045 18.6418C7.21583 17.165 6.39611 15.4226 5.97296 13.4275ZM12.7757 6.57278H7.22316C7.69762 4.54068 8.62702 2.84096 9.99941 1.45502C11.3718 2.84096 12.3012 4.54068 12.7757 6.57278ZM10.0029 20.0005L9.99863 20.0005C4.47593 20.0001 -0.000976562 15.5229 -0.000976562 10.0001C-0.000976562 4.47708 4.47635 -0.000244141 9.99941 -0.000244141C15.5225 -0.000244141 19.9998 4.47708 19.9998 10.0001C19.9998 15.5221 15.5243 19.9987 10.0029 20.0005Z" fill="black"/>
</svg>
