<svg width="18" height="18" viewBox="0 0 18 18" fill="none" xmlns="http://www.w3.org/2000/svg">
<path d="M12.15 5.40042C11.3836 5.39779 10.6242 5.54632 9.91517 5.8375C9.20619 6.12868 8.56157 6.55681 8.01822 7.09737C7.47486 7.63794 7.04343 8.28035 6.74861 8.98783C6.45379 9.6953 6.30136 10.454 6.30005 11.2204V17.1004C6.30005 17.3391 6.39487 17.568 6.56365 17.7368C6.73244 17.9056 6.96135 18.0004 7.20005 18.0004H9.30005C9.53874 18.0004 9.76766 17.9056 9.93644 17.7368C10.1052 17.568 10.2 17.3391 10.2 17.1004V11.2204C10.1999 10.9478 10.2571 10.6782 10.3681 10.4293C10.4791 10.1803 10.6413 9.95747 10.8441 9.77537C11.047 9.59327 11.2859 9.45597 11.5454 9.37241C11.8049 9.28885 12.0791 9.26092 12.35 9.29043C12.8361 9.35164 13.2827 9.58909 13.6053 9.95774C13.9278 10.3264 14.1039 10.8006 14.1 11.2904V17.1004C14.1 17.3391 14.1949 17.568 14.3637 17.7368C14.5324 17.9056 14.7614 18.0004 15 18.0004H17.1C17.3387 18.0004 17.5677 17.9056 17.7364 17.7368C17.9052 17.568 18 17.3391 18 17.1004V11.2204C17.9987 10.454 17.8463 9.6953 17.5515 8.98783C17.2567 8.28035 16.8252 7.63794 16.2819 7.09737C15.7385 6.55681 15.0939 6.12868 14.3849 5.8375C13.6759 5.54632 12.9165 5.39779 12.15 5.40042Z" fill="#222222"/>
<path d="M3.6 6.30078H0.9C0.402944 6.30078 0 6.70372 0 7.20078V17.1008C0 17.5978 0.402944 18.0008 0.9 18.0008H3.6C4.09706 18.0008 4.5 17.5978 4.5 17.1008V7.20078C4.5 6.70372 4.09706 6.30078 3.6 6.30078Z" fill="#222222"/>
<path d="M2.25 4.5C3.49264 4.5 4.5 3.49264 4.5 2.25C4.5 1.00736 3.49264 0 2.25 0C1.00736 0 0 1.00736 0 2.25C0 3.49264 1.00736 4.5 2.25 4.5Z" fill="#222222"/>
</svg>
