<svg width="85" height="85" viewBox="0 0 85 85" fill="none" xmlns="http://www.w3.org/2000/svg">
<g clip-path="url(#clip0_3374_23992)">
<path d="M42.5 70.1297V82.4414" stroke="#2B2979" stroke-width="3" stroke-miterlimit="22.926" stroke-linecap="round" stroke-linejoin="round"/>
<path d="M22.5781 83.3398H62.4219V73.3789H22.5781V83.3398Z" stroke="#2B2979" stroke-width="3" stroke-miterlimit="22.926" stroke-linecap="round" stroke-linejoin="round"/>
<path d="M20.567 56.6304C18.7513 53.7004 16.9044 49.8895 15.4298 46.163C14.8674 44.7419 14.6472 43.2079 15.851 42.1962C17.0548 41.1843 18.8348 41.3138 19.8068 42.4837C20.7383 43.6048 26.253 50.5366 27.1844 51.6576C32.3241 57.8438 41.4904 59.5852 42.5 70.1296C43.5097 59.5852 52.6761 57.8438 57.8158 51.6576C58.7471 50.5366 64.2616 43.6048 65.1933 42.4837C66.1654 41.3138 67.9454 41.1843 69.149 42.1962C70.3528 43.2079 70.1326 44.7419 69.5703 46.163C68.0958 49.8895 66.2489 53.7004 64.4331 56.6304M69.8471 43.1503L77.6256 30.4197C80.0587 26.5952 84.6195 29.5305 83 32.983C81.8663 35.3356 77.3726 46.5277 73.9976 53.9516C71.57 59.2915 70.5902 60.6606 66.305 64.5557L59.7907 70.477V72.4492M15.1529 43.1503L7.37441 30.4197C4.94128 26.5952 0.380666 29.5305 2.00015 32.983C3.1337 35.3356 7.62741 46.5277 11.0025 53.9516C13.43 59.2915 14.4098 60.6606 18.695 64.5557L25.2093 70.477V72.4492" stroke="#2B2979" stroke-width="3" stroke-miterlimit="22.926" stroke-linecap="round" stroke-linejoin="round"/>
<path d="M42.5 41.5039C53.4726 41.5039 62.4219 32.5547 62.4219 21.582C62.4219 10.6094 53.4726 1.66016 42.5 1.66016C31.5274 1.66016 22.5781 10.6094 22.5781 21.582C22.5781 32.5547 31.5274 41.5039 42.5 41.5039Z" stroke="#2B2979" stroke-width="3" stroke-miterlimit="22.926" stroke-linecap="round" stroke-linejoin="round"/>
<path d="M38.3496 11.6211H46.6504V17.4316H52.4609V25.7324H46.6504V31.543H38.3496V25.7324H32.5391V17.4316H38.3496V11.6211Z" stroke="#00D2CB" stroke-width="2" stroke-miterlimit="22.926" stroke-linecap="round" stroke-linejoin="round"/>
</g>
<defs>
<clipPath id="clip0_3374_23992">
<rect width="85" height="85" fill="white"/>
</clipPath>
</defs>
</svg>
