<svg width="85" height="85" viewBox="0 0 85 85" fill="none" xmlns="http://www.w3.org/2000/svg">
<g clip-path="url(#clip0_79_26583)">
<path d="M42.5 70.1299V82.4417" stroke="#2B2979" stroke-width="3" stroke-miterlimit="22.926" stroke-linecap="round" stroke-linejoin="round"/>
<path d="M22.5781 83.3396H62.4219V73.3787H22.5781V83.3396Z" stroke="#2B2979" stroke-width="3" stroke-miterlimit="22.926" stroke-linecap="round" stroke-linejoin="round"/>
<path d="M20.567 56.6307C18.7513 53.7007 16.9044 49.8898 15.4298 46.1632C14.8674 44.7421 14.6472 43.2081 15.851 42.1964C17.0548 41.1846 18.8348 41.3141 19.8068 42.484C20.7383 43.6051 26.253 50.5369 27.1844 51.6578C32.3241 57.8441 41.4904 59.5854 42.5 70.1299C43.5097 59.5854 52.6761 57.8441 57.8158 51.6578C58.7471 50.5369 64.2616 43.6051 65.1933 42.484C66.1654 41.3141 67.9454 41.1846 69.149 42.1964C70.3528 43.2081 70.1326 44.7421 69.5703 46.1632C68.0958 49.8898 66.2489 53.7007 64.4331 56.6307M69.8471 43.1505L77.6256 30.42C80.0587 26.5954 84.6195 29.5308 83 32.9832C81.8663 35.3358 77.3726 46.5279 73.9976 53.9518C71.57 59.2917 70.5902 60.6609 66.305 64.5559L59.7907 70.4772V72.4495M15.1529 43.1505L7.37441 30.42C4.94128 26.5954 0.380666 29.5308 2.00015 32.9832C3.1337 35.3358 7.62741 46.5279 11.0025 53.9518C13.43 59.2917 14.4098 60.6609 18.695 64.5559L25.2093 70.4772V72.4495" stroke="#2B2979" stroke-width="3" stroke-miterlimit="22.926" stroke-linecap="round" stroke-linejoin="round"/>
<path d="M42.5 41.5034C53.4726 41.5034 62.4219 32.5542 62.4219 21.5815C62.4219 10.6089 53.4726 1.65967 42.5 1.65967C31.5274 1.65967 22.5781 10.6089 22.5781 21.5815C22.5781 32.5542 31.5274 41.5034 42.5 41.5034Z" stroke="#2B2979" stroke-width="3" stroke-miterlimit="22.926" stroke-linecap="round" stroke-linejoin="round"/>
<path d="M38.3496 11.6206H46.6504V17.4312H52.4609V25.7319H46.6504V31.5425H38.3496V25.7319H32.5391V17.4312H38.3496V11.6206Z" stroke="#00D2CB" stroke-width="2" stroke-miterlimit="22.926" stroke-linecap="round" stroke-linejoin="round"/>
</g>
<defs>
<clipPath id="clip0_79_26583">
<rect width="85" height="85" fill="white"/>
</clipPath>
</defs>
</svg>
