<svg width="97" height="96" viewBox="0 0 97 96" fill="none" xmlns="http://www.w3.org/2000/svg">
<rect x="0.75" width="96" height="96" rx="16" fill="#3865F3" fill-opacity="0.15"/>
<path d="M42.75 46C44.3323 46 45.879 45.5308 47.1946 44.6518C48.5102 43.7727 49.5355 42.5233 50.141 41.0615C50.7465 39.5997 50.905 37.9911 50.5963 36.4393C50.2876 34.8874 49.5257 33.462 48.4069 32.3431C47.288 31.2243 45.8626 30.4624 44.3107 30.1537C42.7589 29.845 41.1503 30.0035 39.6885 30.609C38.2267 31.2145 36.9773 32.2398 36.0982 33.5554C35.2192 34.871 34.75 36.4178 34.75 38C34.75 40.1217 35.5929 42.1566 37.0931 43.6569C38.5934 45.1571 40.6283 46 42.75 46ZM58.75 50C59.9367 50 61.0967 49.6481 62.0834 48.9888C63.0701 48.3295 63.8392 47.3925 64.2933 46.2961C64.7474 45.1997 64.8662 43.9933 64.6347 42.8295C64.4032 41.6656 63.8318 40.5965 62.9926 39.7574C62.1535 38.9182 61.0844 38.3468 59.9205 38.1153C58.7567 37.8838 57.5503 38.0026 56.4539 38.4567C55.3575 38.9109 54.4205 39.6799 53.7612 40.6666C53.1019 41.6533 52.75 42.8133 52.75 44C52.75 45.5913 53.3821 47.1174 54.5074 48.2426C55.6326 49.3679 57.1587 50 58.75 50ZM66.75 64C67.2804 64 67.7891 63.7893 68.1642 63.4142C68.5393 63.0391 68.75 62.5304 68.75 62C68.7484 60.1308 68.2229 58.2995 67.2332 56.7138C66.2435 55.1281 64.8292 53.8515 63.1507 53.0289C61.4722 52.2064 59.5968 51.8707 57.7372 52.06C55.8776 52.2493 54.1083 52.956 52.63 54.1C50.671 52.1487 48.1781 50.8212 45.4656 50.2849C42.7532 49.7485 39.9426 50.0274 37.3885 51.0863C34.8343 52.1452 32.6508 53.9367 31.1135 56.2349C29.5761 58.5331 28.7537 61.235 28.75 64C28.75 64.5304 28.9607 65.0391 29.3358 65.4142C29.7109 65.7893 30.2196 66 30.75 66H54.75C55.2804 66 55.7891 65.7893 56.1642 65.4142C56.5393 65.0391 56.75 64.5304 56.75 64" fill="#2B2979"/>
</svg>
