<svg width="97" height="96" viewBox="0 0 97 96" fill="none" xmlns="http://www.w3.org/2000/svg">
<rect x="0.25" width="96" height="96" rx="16" fill="#3865F3" fill-opacity="0.15"/>
<path d="M62.79 33.36C62.3335 33.031 61.8058 32.8143 61.2498 32.7274C60.6938 32.6406 60.1252 32.686 59.59 32.86C58.1783 33.257 56.7162 33.4456 55.25 33.42C53.0832 33.3024 50.9587 32.7729 48.99 31.86C46.5581 30.7353 43.9275 30.1031 41.25 30C35.47 30 33.25 32 32.85 32.28C32.6587 32.4676 32.5069 32.6917 32.4038 32.9391C32.3008 33.1865 32.2485 33.452 32.25 33.72V64C32.25 64.5304 32.4607 65.0391 32.8358 65.4142C33.2109 65.7893 33.7196 66 34.25 66C34.7805 66 35.2892 65.7893 35.6642 65.4142C36.0393 65.0391 36.25 64.5304 36.25 64V55.4C37.8437 54.7898 39.545 54.5108 41.25 54.58C43.4169 54.6976 45.5414 55.2271 47.51 56.14C49.942 57.2647 52.5726 57.8969 55.25 58C57.6611 58.0911 60.0595 57.6114 62.25 56.6C62.8404 56.3227 63.341 55.885 63.6946 55.3368C64.0483 54.7887 64.2407 54.1522 64.25 53.5V36.22C64.2493 35.6619 64.1167 35.112 63.863 34.6149C63.6092 34.1179 63.2416 33.6879 62.79 33.36Z" fill="#2B2979"/>
</svg>
