<svg width="97" height="96" viewBox="0 0 97 96" fill="none" xmlns="http://www.w3.org/2000/svg">
<rect x="0.25" width="96" height="96" rx="16" fill="#3865F3" fill-opacity="0.15"/>
<path d="M48.25 28C44.2944 28 40.4276 29.173 37.1386 31.3706C33.8496 33.5682 31.2862 36.6918 29.7724 40.3463C28.2587 44.0009 27.8626 48.0222 28.6343 51.9018C29.406 55.7814 31.3108 59.3451 34.1079 62.1421C36.9049 64.9392 40.4686 66.844 44.3482 67.6157C48.2278 68.3874 52.2492 67.9913 55.9037 66.4776C59.5582 64.9638 62.6818 62.4004 64.8794 59.1114C67.077 55.8224 68.25 51.9556 68.25 48C68.25 45.3736 67.7327 42.7728 66.7276 40.3463C65.7225 37.9198 64.2493 35.715 62.3921 33.8579C60.535 32.0007 58.3302 30.5275 55.9037 29.5224C53.4772 28.5173 50.8764 28 48.25 28ZM56.85 43.22L47.71 55.22C47.5237 55.462 47.2844 55.6582 47.0105 55.7934C46.7367 55.9286 46.4354 55.9993 46.13 56C45.8262 56.0016 45.5261 55.934 45.2523 55.8024C44.9785 55.6707 44.7384 55.4784 44.55 55.24L39.67 49.02C39.5085 48.8125 39.3894 48.5752 39.3196 48.3217C39.2498 48.0682 39.2305 47.8034 39.263 47.5425C39.2955 47.2816 39.3791 47.0296 39.509 46.801C39.6389 46.5723 39.8125 46.3715 40.02 46.21C40.4391 45.8838 40.9705 45.7374 41.4975 45.803C41.7584 45.8355 42.0104 45.9191 42.239 46.049C42.4677 46.1789 42.6685 46.3525 42.83 46.56L46.09 50.72L53.65 40.72C53.8102 40.5099 54.0103 40.3334 54.2387 40.2006C54.4671 40.0678 54.7194 39.9812 54.9813 39.946C55.2432 39.9107 55.5094 39.9273 55.7648 39.9949C56.0203 40.0625 56.2599 40.1798 56.47 40.34C56.6801 40.5002 56.8566 40.7002 56.9894 40.9287C57.1222 41.1571 57.2088 41.4094 57.2441 41.6713C57.2793 41.9332 57.2627 42.1994 57.1951 42.4548C57.1275 42.7103 57.0102 42.9499 56.85 43.16V43.22Z" fill="#2B2979"/>
</svg>
