<svg width="97" height="96" viewBox="0 0 97 96" fill="none" xmlns="http://www.w3.org/2000/svg">
<rect x="0.75" width="96" height="96" rx="16" fill="#3865F3" fill-opacity="0.15"/>
<path d="M60.75 32H58.75V30C58.75 29.4696 58.5393 28.9609 58.1642 28.5858C57.7891 28.2107 57.2804 28 56.75 28C56.2196 28 55.7109 28.2107 55.3358 28.5858C54.9607 28.9609 54.75 29.4696 54.75 30V32H42.75V30C42.75 29.4696 42.5393 28.9609 42.1642 28.5858C41.7891 28.2107 41.2804 28 40.75 28C40.2196 28 39.7109 28.2107 39.3358 28.5858C38.9607 28.9609 38.75 29.4696 38.75 30V32H36.75C35.1587 32 33.6326 32.6321 32.5074 33.7574C31.3821 34.8826 30.75 36.4087 30.75 38V62C30.75 63.5913 31.3821 65.1174 32.5074 66.2426C33.6326 67.3679 35.1587 68 36.75 68H60.75C62.3413 68 63.8674 67.3679 64.9926 66.2426C66.1179 65.1174 66.75 63.5913 66.75 62V38C66.75 36.4087 66.1179 34.8826 64.9926 33.7574C63.8674 32.6321 62.3413 32 60.75 32ZM40.75 58C40.3544 58 39.9678 57.8827 39.6389 57.6629C39.31 57.4432 39.0536 57.1308 38.9022 56.7654C38.7509 56.3999 38.7113 55.9978 38.7884 55.6098C38.8656 55.2219 39.0561 54.8655 39.3358 54.5858C39.6155 54.3061 39.9719 54.1156 40.3598 54.0384C40.7478 53.9613 41.1499 54.0009 41.5154 54.1522C41.8808 54.3036 42.1932 54.56 42.4129 54.8889C42.6327 55.2178 42.75 55.6044 42.75 56C42.75 56.5304 42.5393 57.0391 42.1642 57.4142C41.7891 57.7893 41.2804 58 40.75 58ZM56.75 58H48.75C48.2196 58 47.7109 57.7893 47.3358 57.4142C46.9607 57.0391 46.75 56.5304 46.75 56C46.75 55.4696 46.9607 54.9609 47.3358 54.5858C47.7109 54.2107 48.2196 54 48.75 54H56.75C57.2804 54 57.7891 54.2107 58.1642 54.5858C58.5393 54.9609 58.75 55.4696 58.75 56C58.75 56.5304 58.5393 57.0391 58.1642 57.4142C57.7891 57.7893 57.2804 58 56.75 58ZM62.75 46H34.75V38C34.75 37.4696 34.9607 36.9609 35.3358 36.5858C35.7109 36.2107 36.2196 36 36.75 36H38.75V38C38.75 38.5304 38.9607 39.0391 39.3358 39.4142C39.7109 39.7893 40.2196 40 40.75 40C41.2804 40 41.7891 39.7893 42.1642 39.4142C42.5393 39.0391 42.75 38.5304 42.75 38V36H54.75V38C54.75 38.5304 54.9607 39.0391 55.3358 39.4142C55.7109 39.7893 56.2196 40 56.75 40C57.2804 40 57.7891 39.7893 58.1642 39.4142C58.5393 39.0391 58.75 38.5304 58.75 38V36H60.75C61.2804 36 61.7891 36.2107 62.1642 36.5858C62.5393 36.9609 62.75 37.4696 62.75 38V46Z" fill="#2B2979"/>
</svg>
