<svg width="112" height="112" viewBox="0 0 112 112" fill="none" xmlns="http://www.w3.org/2000/svg">
<g clip-path="url(#clip0_130_24160)">
<path d="M111.335 25.6453C110.796 25.2236 110.091 25.074 109.425 25.2408C101.61 27.1854 84.6987 19.0284 77.7946 14.4348C72.7018 11.0459 67.4573 13.5837 64.0326 16.6008L63.562 14.9926C64.7625 13.4563 65.4175 11.5653 65.4242 9.6169C65.4242 4.707 61.4358 0.726746 56.5159 0.726746C51.5959 0.726746 47.6076 4.707 47.6076 9.6169C47.6152 11.5653 48.2702 13.4563 49.4697 14.9926L49.0001 16.6027C45.5725 13.5866 40.3242 11.0507 35.2371 14.4348C28.3331 19.0303 11.4163 27.194 3.60761 25.2408C2.94208 25.075 2.23717 25.2245 1.69649 25.6453C1.15676 26.066 0.840804 26.7129 0.839844 27.3972C0.839844 31.8423 3.86498 40.1037 15.1204 40.6979C17.3715 44.2162 22.4249 48.8846 29.5614 47.5036C32.8266 48.7715 36.307 49.4012 39.8113 49.3581C41.4363 53.2904 45.6119 56.9151 51.1446 59.4951L52.2423 77.0109C51.7141 76.8192 51.1916 76.6621 50.6625 76.4502C44.7601 74.0955 41.7849 70.1679 41.9808 67.6703C42.1882 65.0385 45.9048 63.8079 48.1031 63.3086C49.3026 63.0355 50.0526 61.8442 49.7799 60.6481C49.5062 59.451 48.3125 58.7016 47.113 58.9738C39.214 60.7698 37.7254 64.9753 37.541 67.3214C37.1511 72.2764 41.8665 77.7278 49.0078 80.5781C50.1919 81.0506 51.375 81.4646 52.5457 81.8547L54.2936 109.768C54.3666 110.939 55.3404 111.852 56.5159 111.852C57.6923 111.852 58.6652 110.939 58.7391 109.768L60.3381 84.2344C66.6035 86.1512 69.8783 87.723 69.8783 91.8499C69.8783 98.8462 62.9493 100.729 62.6468 100.808C61.4569 101.11 60.7357 102.318 61.0363 103.506C61.3378 104.695 62.546 105.416 63.7378 105.118C67.4025 104.204 74.3325 100.254 74.3325 91.8499C74.3325 84.1779 67.8549 81.8144 60.6233 79.6724L61.6845 62.7326C62.0831 62.8007 62.4788 62.8764 62.8821 62.9339C67.682 63.6191 70.6466 65.2475 71.0183 67.4029C71.4447 69.8785 68.6587 73.2933 64.3928 75.5235C63.3018 76.0928 62.8802 77.4364 63.4516 78.5242C64.0221 79.612 65.3685 80.0308 66.4585 79.4606C72.6768 76.2116 76.1889 71.1829 75.4081 66.6496C74.9836 64.1923 72.8756 59.8699 63.5131 58.5348C62.9925 58.46 62.4768 58.3709 61.964 58.276L62.6468 47.3665C62.6612 47.3675 62.6824 47.3675 62.6958 47.3675C64.5474 48.0853 66.4662 48.6163 68.4234 48.9536C67.5178 50.374 66.0868 51.7953 64.1565 53.1294C63.1462 53.829 62.8956 55.212 63.5947 56.2212C64.2948 57.2295 65.6806 57.4815 66.6919 56.7838C69.8908 54.5747 72.0939 52.0215 73.1878 49.3744C73.2406 49.3744 73.2982 49.3811 73.351 49.3811C76.8131 49.4012 80.2474 48.7639 83.4713 47.5036C90.6135 48.8904 95.6621 44.2134 97.9123 40.6979C109.167 40.1037 112.193 31.8423 112.193 27.3972C112.192 26.7129 111.876 26.066 111.335 25.6453ZM52.4852 20.5513L53.2641 17.887C54.331 18.3048 55.471 18.508 56.6167 18.486C56.8645 18.4821 59.8243 18.0777 59.7686 17.887L60.5475 20.5513L56.5159 25.9155L52.4852 20.5513ZM56.5159 5.17182C58.3338 5.16799 59.9713 6.2692 60.6493 7.95311C61.3273 9.63607 60.9105 11.5615 59.5957 12.8151C59.5842 12.8247 59.5708 12.8304 59.5602 12.841C57.8383 14.4166 55.1944 14.4166 53.4725 12.841C53.4619 12.8304 53.4475 12.8247 53.436 12.8151C52.1222 11.5615 51.7045 9.63607 52.3834 7.95215C53.0614 6.2692 54.6979 5.16799 56.5159 5.17182ZM44.5815 48.9335C46.5377 48.599 48.4565 48.0757 50.31 47.3694C50.3302 47.3684 50.3628 47.3675 50.3859 47.3665L50.8219 54.3332C48.0138 52.747 45.8098 50.8791 44.5815 48.9335ZM56.5159 73.9996L55.7197 61.2768C56.2345 61.4426 56.756 61.5998 57.2832 61.7474L56.5159 73.9996ZM55.4172 56.4599L54.6979 44.9743L54.3214 38.968L55.6659 36.2864H57.3667L58.7103 38.968L58.3348 44.9743L57.5694 57.193C56.8347 56.9669 56.1173 56.7225 55.4172 56.4599ZM96.6033 36.2864C96.5457 36.2864 90.8008 36.2433 87.0419 32.493C86.1728 31.6247 84.763 31.6247 83.8929 32.493C83.0238 33.3604 83.0238 34.7683 83.8929 35.6357C86.6251 38.3623 90.0239 39.6236 92.6236 40.214C90.8459 42.078 87.8947 44.0447 83.7815 43.0202C83.6739 43.0048 83.5664 42.9972 83.4588 42.9981C83.3868 42.9799 83.3138 42.9655 83.2408 42.954C83.2101 42.954 80.1446 42.9176 78.5514 39.7376C78.002 38.6403 76.6643 38.1946 75.5637 38.7438C74.4631 39.2929 74.0175 40.628 74.5678 41.7263C75.12 42.8429 75.87 43.8511 76.7824 44.7022C75.8451 44.8354 74.902 44.914 73.956 44.9379C73.7957 42.8697 72.8363 40.1881 69.8678 37.5065C69.8687 37.4691 69.8783 37.4355 69.8783 37.3982C69.8783 35.5571 68.3831 34.0639 66.5382 34.0639C64.6934 34.0639 63.1971 35.5571 63.1971 37.3982C63.1971 39.2393 64.6934 40.7315 66.5382 40.7315C66.615 40.7315 66.6871 40.7142 66.7629 40.7094C68.2102 41.9851 69.1014 43.2971 69.3924 44.6303C67.6061 44.3389 65.8583 43.853 64.1786 43.1821C63.8559 43.024 63.6936 42.9598 62.9253 42.9272L63.1933 38.6479C63.2173 38.2569 63.1385 37.8659 62.9628 37.5151L60.7357 33.07C60.3583 32.3177 59.5871 31.8413 58.7429 31.8423H54.2888C53.4456 31.8413 52.6744 32.3177 52.297 33.07L50.0699 37.5151C49.8942 37.8659 49.8145 38.2569 49.8394 38.6479L50.1074 42.9243C49.3612 42.9502 49.2344 42.9981 49.0078 43.1131C47.2762 43.8089 45.4746 44.314 43.6336 44.6197C43.9294 43.2837 44.8023 41.9755 46.241 40.7066C46.3264 40.7133 46.4081 40.7315 46.4945 40.7315C48.3393 40.7315 49.8346 39.2393 49.8346 37.3982C49.8346 35.5571 48.3393 34.0639 46.4945 34.0639C44.6496 34.0639 43.1544 35.5571 43.1544 37.3982C43.1544 37.4269 43.162 37.4537 43.162 37.4815C40.2377 40.1124 39.2591 42.77 39.0901 44.937C38.1384 44.9159 37.1876 44.8392 36.2445 44.7069C37.1588 43.8549 37.9108 42.8448 38.4649 41.7263C39.0152 40.628 38.5686 39.2929 37.469 38.7438C36.3684 38.1946 35.0307 38.6403 34.4804 39.7376C33.6007 41.5749 31.8038 42.8016 29.7698 42.954C29.6978 42.9655 29.6257 42.9809 29.5556 42.9991C29.4538 42.9991 29.352 43.0067 29.2512 43.0202C25.1389 44.0447 22.1858 42.0761 20.4091 40.213C23.0098 39.6236 26.4076 38.3623 29.1388 35.6357C30.0089 34.7683 30.0089 33.3604 29.1388 32.493C28.2697 31.6247 26.8599 31.6247 25.9898 32.493C22.3001 36.1743 16.5811 36.2855 16.4275 36.2864C9.15562 36.2864 6.63179 32.5994 5.75594 29.9523C15.882 30.1497 31.4927 22.2678 37.7081 18.1333C42.5416 14.9082 47.8332 21.7714 48.0541 22.0627L48.2529 22.3282L48.2539 22.3301L54.7354 30.9529C55.155 31.5126 55.8158 31.8423 56.5159 31.8423C57.2169 31.8423 57.8767 31.5126 58.2973 30.9529L64.7788 22.3301V22.3282L64.9786 22.0627C65.0333 21.9918 70.4555 14.8939 75.3246 18.1333C81.54 22.2678 97.1286 30.2561 107.275 29.9523C106.399 32.6033 103.872 36.2864 96.6033 36.2864Z" fill="#FAFAFA" stroke="#CCE8DB" stroke-width="0.75"/>
<path d="M50.3849 100.809C50.0891 100.732 43.1544 98.8501 43.1544 91.8499C43.1544 88.9459 44.5911 87.2745 48.4575 85.6825C49.5945 85.2139 50.1352 83.9152 49.6666 82.7805C49.1979 81.6457 47.8957 81.1052 46.7586 81.5739C43.2994 82.9971 38.7002 85.6116 38.7002 91.8499C38.7002 100.254 45.6302 104.204 49.2949 105.118C49.4716 105.162 49.6541 105.184 49.8366 105.184C50.9563 105.181 51.9004 104.347 52.0396 103.238C52.1789 102.128 51.4701 101.088 50.3849 100.809Z" fill="#FAFAFA" stroke="#CCE8DB" stroke-width="0.75"/>
</g>
<defs>
<clipPath id="clip0_130_24160">
<rect width="111.125" height="111.125" fill="white" transform="translate(0.726562 0.726746)"/>
</clipPath>
</defs>
</svg>
