<svg width="112" height="112" viewBox="0 0 112 112" fill="none" xmlns="http://www.w3.org/2000/svg">
<path d="M66.7074 22.6688H61.4984V17.4598C61.4984 16.9993 61.3154 16.5576 60.9898 16.232C60.6642 15.9064 60.2225 15.7234 59.762 15.7234H52.8167C52.3562 15.7234 51.9145 15.9064 51.5889 16.232C51.2633 16.5576 51.0803 16.9993 51.0803 17.4598V22.6688H45.8713C45.4108 22.6688 44.9692 22.8517 44.6436 23.1773C44.3179 23.503 44.135 23.9446 44.135 24.4051V31.3505C44.135 31.811 44.3179 32.2526 44.6436 32.5782C44.9692 32.9039 45.4108 33.0868 45.8713 33.0868H51.0803V38.2958C51.0803 38.7563 51.2633 39.1979 51.5889 39.5236C51.9145 39.8492 52.3562 40.0321 52.8167 40.0321H59.762C60.2225 40.0321 60.6642 39.8492 60.9898 39.5236C61.3154 39.1979 61.4984 38.7563 61.4984 38.2958V33.0868H66.7074C67.1679 33.0868 67.6095 32.9039 67.9351 32.5782C68.2608 32.2526 68.4437 31.811 68.4437 31.3505V24.4051C68.4437 23.9446 68.2608 23.503 67.9351 23.1773C67.6095 22.8517 67.1679 22.6688 66.7074 22.6688ZM64.971 29.6141H59.762C59.3015 29.6141 58.8599 29.7971 58.5342 30.1227C58.2086 30.4483 58.0257 30.89 58.0257 31.3505V36.5595H54.553V31.3505C54.553 30.89 54.3701 30.4483 54.0445 30.1227C53.7188 29.7971 53.2772 29.6141 52.8167 29.6141H47.6077V26.1415H52.8167C53.2772 26.1415 53.7188 25.9585 54.0445 25.6329C54.3701 25.3073 54.553 24.8656 54.553 24.4051V19.1961H58.0257V24.4051C58.0257 24.8656 58.2086 25.3073 58.5342 25.6329C58.8599 25.9585 59.3015 26.1415 59.762 26.1415H64.971V29.6141Z" fill="#FAFAFA" stroke="#F8B3CA" stroke-width="0.5"/>
<path d="M104.438 31.9755C104.473 31.67 104.49 31.3628 104.49 31.0552C104.482 29.4637 103.929 27.9228 102.925 26.688C101.921 25.4532 100.525 24.5987 98.9684 24.2662C97.2078 23.9311 95.3857 24.2772 93.8706 25.2346C92.3555 26.192 91.2607 27.6891 90.8076 29.4231L83.1678 51.4051C83.0545 51.45 82.9444 51.5022 82.8379 51.5614L67.4887 60.5556C65.1399 61.9352 63.1917 63.9038 61.8367 66.2668C60.4816 68.6299 59.7665 71.3055 59.762 74.0295V90.3858C59.3015 90.3858 58.8598 90.5687 58.5342 90.8943C58.2086 91.22 58.0256 91.6616 58.0256 92.1221V106.013C58.0256 106.473 58.2086 106.915 58.5342 107.241C58.8598 107.566 59.3015 107.749 59.762 107.749H84.0707C84.5312 107.749 84.9728 107.566 85.2984 107.241C85.6241 106.915 85.807 106.473 85.807 106.013V92.1221C85.807 91.6616 85.6241 91.22 85.2984 90.8943C84.9728 90.5687 84.5312 90.3858 84.0707 90.3858V86.5659C84.0739 85.8325 84.23 85.1079 84.5289 84.4382C84.8279 83.7685 85.2632 83.1685 85.807 82.6765L97.5446 72.2411C98.8285 71.1177 99.7476 69.6364 100.184 67.9871L107.72 39.8064C107.88 39.2179 107.962 38.6106 107.963 38.0006C107.956 36.7753 107.626 35.5733 107.008 34.5157C106.389 33.458 105.503 32.5819 104.438 31.9755ZM94.124 30.4475C94.3372 29.5496 94.8809 28.765 95.6468 28.2501C96.4127 27.7352 97.3445 27.5278 98.2565 27.6694C99.0348 27.8324 99.7335 28.2575 100.236 28.8738C100.739 29.4901 101.014 30.2601 101.017 31.0552V31.09C99.4663 31.1188 97.9672 31.6534 96.748 32.6124C95.5287 33.5715 94.6562 34.9026 94.2629 36.4032L89.4186 51.353C88.6851 51.0051 87.8988 50.7821 87.0919 50.6932L94.124 30.4475ZM82.3343 104.276H61.4983V93.8585H82.3343V104.276ZM104.368 38.9035L96.8153 67.1016C96.554 68.0814 96.0106 68.9629 95.2526 69.6366L83.4977 80.072C82.5881 80.8922 81.8602 81.8937 81.3608 83.0121C80.8614 84.1305 80.6016 85.341 80.598 86.5659V90.3858H63.2346V74.0295C63.2432 71.9111 63.8013 69.8311 64.8544 67.9929C65.9074 66.1547 67.4193 64.6211 69.2424 63.5421L84.5742 54.5652C84.9695 54.3349 85.4064 54.185 85.8599 54.124C86.3133 54.0631 86.7743 54.0923 87.2164 54.2101C87.6585 54.3279 88.073 54.5319 88.436 54.8104C88.799 55.0888 89.1034 55.4363 89.3317 55.8327C89.7827 56.635 89.9071 57.5803 89.679 58.472C89.5584 58.9123 89.3522 59.3244 89.0721 59.685C88.7921 60.0455 88.4437 60.3472 88.0469 60.5729L78.0977 66.3202C77.7197 66.5605 77.4492 66.9374 77.3427 67.3724C77.2361 67.8074 77.3018 68.2667 77.5259 68.6545C77.75 69.0422 78.1153 69.3283 78.5454 69.4531C78.9755 69.5779 79.4372 69.5316 79.834 69.3241L89.7832 63.5768C90.5784 63.1256 91.2754 62.5199 91.833 61.7952C92.3906 61.0706 92.7977 60.2418 93.0301 59.3575C93.5028 57.5809 93.2531 55.6895 92.3356 54.0964L92.2314 53.9401L97.5967 37.3929C97.8098 36.4949 98.3536 35.7103 99.1195 35.1954C99.8854 34.6805 100.817 34.4732 101.729 34.6147C102.507 34.7777 103.206 35.2029 103.709 35.8191C104.211 36.4354 104.487 37.2054 104.49 38.0006C104.496 38.306 104.455 38.6105 104.368 38.9035Z" fill="#FAFAFA" stroke="#F8B3CA" stroke-width="0.5"/>
<path d="M52.8166 90.3858V74.0295C52.8121 71.3056 52.097 68.6299 50.7419 66.2669C49.3868 63.9038 47.4387 61.9352 45.0899 60.5556L29.7407 51.544C29.6365 51.4919 29.515 51.4572 29.4108 51.4051L21.823 29.5446C21.382 27.7854 20.2873 26.2603 18.7615 25.2796C17.2358 24.299 15.3937 23.9366 13.6102 24.2662C12.0537 24.5987 10.6576 25.4532 9.6534 26.688C8.64915 27.9228 8.09706 29.4637 8.08864 31.0553C8.08818 31.3628 8.10558 31.67 8.14073 31.9755C7.07595 32.5819 6.18961 33.458 5.57087 34.5157C4.95212 35.5733 4.62278 36.7753 4.61597 38.0006C4.61934 38.6094 4.69511 39.2155 4.84169 39.8064L12.3947 67.9697C12.8264 69.6259 13.7459 71.1141 15.034 72.2411L26.7542 82.6765C27.3035 83.1651 27.7436 83.764 28.0457 84.4342C28.3479 85.1044 28.5054 85.8307 28.5079 86.5659V90.3858C28.0474 90.3858 27.6058 90.5687 27.2802 90.8944C26.9545 91.22 26.7716 91.6616 26.7716 92.1221V106.013C26.7716 106.473 26.9545 106.915 27.2802 107.241C27.6058 107.566 28.0474 107.749 28.5079 107.749H52.8166C53.2771 107.749 53.7188 107.566 54.0444 107.241C54.37 106.915 54.5529 106.473 54.5529 106.013V92.1221C54.5529 91.6616 54.37 91.22 54.0444 90.8944C53.7188 90.5687 53.2771 90.3858 52.8166 90.3858ZM11.5613 31.0553C11.5634 30.2625 11.8368 29.4944 12.3358 28.8785C12.8349 28.2625 13.5297 27.8359 14.3047 27.6694C15.2417 27.5334 16.1955 27.7567 16.9749 28.2945C17.7542 28.8322 18.3013 29.6448 18.5066 30.5691L25.4867 50.6932C24.6798 50.7821 23.8935 51.0051 23.16 51.353L18.3504 36.49C17.9589 34.9746 17.0847 33.6279 15.8597 32.6536C14.6348 31.6793 13.1259 31.1304 11.5613 31.09V31.0553ZM29.0636 80.072L17.3259 69.6366C16.5638 68.9593 16.0199 68.071 15.7632 67.0842L8.19282 38.9035C8.12094 38.608 8.08595 38.3047 8.08864 38.0006C8.09078 37.2079 8.36408 36.4397 8.86314 35.8238C9.36221 35.2079 10.057 34.7812 10.832 34.6147C11.7625 34.4751 12.7113 34.693 13.4876 35.2245C14.264 35.756 14.8102 36.5618 15.0166 37.4797L20.3472 53.9402L20.243 54.0964C19.3255 55.6895 19.0758 57.5809 19.5484 59.3575C19.7809 60.2418 20.1879 61.0706 20.7456 61.7953C21.3032 62.5199 22.0001 63.1256 22.7954 63.5768L32.7446 69.3241C33.1414 69.5317 33.6031 69.5779 34.0332 69.4531C34.4633 69.3283 34.8286 69.0422 35.0527 68.6545C35.2768 68.2667 35.3424 67.8074 35.2359 67.3724C35.1294 66.9375 34.8589 66.5605 34.4809 66.3202L24.5317 60.573C24.1349 60.3472 23.7865 60.0455 23.5065 59.685C23.2264 59.3245 23.0202 58.9123 22.8996 58.472C22.6715 57.5803 22.7958 56.6351 23.2468 55.8328C23.4737 55.4371 23.7763 55.0901 24.1373 54.8114C24.4983 54.5327 24.9106 54.3279 25.3508 54.2085C25.791 54.0892 26.2503 54.0578 26.7027 54.116C27.155 54.1742 27.5914 54.321 27.987 54.5479L43.3362 63.5421C45.1593 64.6211 46.6712 66.1547 47.7242 67.9929C48.7772 69.8311 49.3353 71.9111 49.3439 74.0295V90.3858H31.9806V86.5659C31.9776 85.3393 31.7164 84.1271 31.2138 83.0082C30.7112 81.8894 29.9785 80.8889 29.0636 80.072ZM51.0803 104.276H30.2443V93.8585H51.0803V104.276Z" fill="#FAFAFA" stroke="#F8B3CA" stroke-width="0.5"/>
<path d="M80.8532 9.00729C79.2413 7.39256 77.3268 6.11155 75.2192 5.23758C73.1116 4.36361 70.8524 3.91384 68.5708 3.914C66.2893 3.91416 64.0301 4.36426 61.9227 5.23852C59.8153 6.11279 57.9009 7.39407 56.2892 9.00902C54.6777 7.39403 52.7635 6.11274 50.6561 5.23852C48.5488 4.36429 46.2897 3.9143 44.0082 3.9143C41.7267 3.9143 39.4676 4.36429 37.3602 5.23852C35.2528 6.11274 33.3386 7.39403 31.7271 9.00902C28.4772 12.2658 26.6521 16.6788 26.6521 21.2797C26.6521 25.8806 28.4772 30.2936 31.7271 33.5504L55.0634 56.8867C55.389 57.2122 55.8306 57.3951 56.291 57.3951C56.7514 57.3951 57.193 57.2122 57.5186 56.8867L80.8549 33.5504C84.1046 30.293 85.9295 25.8796 85.9292 21.2785C85.9288 16.6773 84.1033 12.2642 80.8532 9.00729ZM56.2892 53.2039L34.1805 31.0952C32.2395 29.1516 30.9183 26.6761 30.384 23.9817C29.8497 21.2873 30.1262 18.495 31.1786 15.9578C32.231 13.4205 34.0121 11.2522 36.2966 9.72705C38.5811 8.20186 41.2665 7.38824 44.0134 7.38902C45.838 7.38276 47.6457 7.73987 49.3309 8.43954C51.0161 9.1392 52.5452 10.1674 53.8289 11.4642L55.0617 12.697C55.3873 13.0225 55.8288 13.2054 56.2892 13.2054C56.7497 13.2054 57.1912 13.0225 57.5168 12.697L58.7531 11.4607C60.0422 10.1693 61.5732 9.14481 63.2587 8.44579C64.9441 7.74676 66.7509 7.38695 68.5756 7.38695C70.4002 7.38695 72.207 7.74676 73.8924 8.44579C75.5779 9.14481 77.1089 10.1693 78.398 11.4607C80.9989 14.0652 82.4598 17.5955 82.4598 21.2762C82.4598 24.957 80.9989 28.4873 78.398 31.0917L56.2892 53.2039Z" fill="#FAFAFA" stroke="#F8B3CA" stroke-width="0.5"/>
</svg>
