<svg width="112" height="112" viewBox="0 0 112 112" fill="none" xmlns="http://www.w3.org/2000/svg">
<path d="M104.907 72.2785H100.85C100.311 67.9347 97.0615 64.3149 92.7009 63.4057L87.3469 62.3619L80.242 60.6277C73.9957 59.0956 67.3958 59.1125 61.1664 60.6614L51.9569 62.9512C51.3676 61.6042 50.4248 60.4425 49.2631 59.5671C47.6804 45.4582 41.2321 35.6426 33.4705 35.6426H33.4537H19.429C10.3711 35.6426 3.26611 48.9601 3.26611 65.9649C3.26611 79.1646 7.54255 90.1082 13.6878 94.351C12.2567 95.1423 11.2802 96.6576 11.2802 98.3917V106.456H4.52884C3.83855 106.456 3.26611 107.029 3.26611 107.719C3.26611 108.409 3.83855 108.982 4.52884 108.982H102.011C102.702 108.982 103.274 108.409 103.274 107.719C103.274 107.029 102.702 106.456 102.011 106.456H77.9859L91.7917 86.0338H104.907C106.524 86.0338 107.854 84.7037 107.854 83.0874V75.1912C107.854 73.6086 106.54 72.2785 104.907 72.2785ZM61.7725 63.1364C67.6147 61.6884 73.7936 61.6716 79.6527 63.1027L86.8082 64.8537L92.2126 65.9144C95.4115 66.571 97.8191 69.1638 98.3411 72.2953H50.2059C51.7212 70.7632 52.664 68.6587 52.664 66.3353C52.664 66.0154 52.5967 65.7292 52.5798 65.4261L61.7725 63.1364ZM72.5141 86.0675L58.7083 106.49H39.3464V98.4254C39.3464 97.129 38.8077 95.9504 37.9322 95.1086C40.8786 93.5428 43.5387 90.4449 45.5759 86.0675H72.5141ZM33.4705 93.7785C27.9819 93.7785 23.1162 86.7409 20.9948 76.9422H25.3049C25.3218 76.9422 25.3386 76.9253 25.3723 76.9253C27.1064 82.414 30.0864 86.0675 33.4874 86.0675H34.4976C34.5817 86.0675 34.6491 86.0338 34.7164 86.017C34.868 86.0338 35.0195 86.0675 35.171 86.0675H42.8147C40.2388 90.9837 36.9052 93.7785 33.4705 93.7785ZM32.2078 75.2249V83.1211C32.2078 83.1548 32.2078 83.1716 32.2247 83.2053C29.2278 81.6564 26.3151 74.7871 26.3151 65.9817C26.3151 55.9304 30.1033 48.4214 33.4705 48.4214C36.1139 48.4214 38.774 52.8325 39.9694 59.0283C37.4439 60.4931 35.7098 63.2037 35.7098 66.3353C35.7098 68.6587 36.6526 70.7632 38.1679 72.2953H35.1542C33.5211 72.2785 32.2078 73.6086 32.2078 75.2249ZM49.886 64.7695C49.886 64.7863 49.9028 64.8032 49.9028 64.8032C50.0375 65.2914 50.1217 65.7965 50.1217 66.3353C50.1217 69.6184 47.4616 72.2785 44.1785 72.2785C40.8954 72.2785 38.2352 69.6184 38.2352 66.3353C38.2352 63.0522 40.8954 60.392 44.1785 60.392C46.9228 60.3752 49.1957 62.244 49.886 64.7695ZM46.5356 58.2201C45.7779 58.0013 45.0035 57.8497 44.1785 57.8497C43.5555 57.8497 42.9326 57.9339 42.3433 58.0686C40.828 50.6269 37.4103 45.8959 33.4537 45.8959C28.1166 45.8959 23.7728 54.9034 23.7728 65.9817C23.7728 68.9954 24.1095 71.8408 24.682 74.4167H20.5065C20.0688 71.7397 19.8331 68.9112 19.8331 65.9817C19.8331 50.93 26.0626 38.2017 33.4537 38.1849H33.4705C39.4138 38.1849 44.8519 46.6704 46.5356 58.2201ZM5.79157 65.9817C5.79157 50.9132 12.0379 38.1849 19.429 38.1849H26.938C21.2305 42.8149 17.3245 53.3881 17.3245 65.9817C17.3245 78.5753 21.2305 89.1485 26.938 93.7785H19.429C12.021 93.7785 5.79157 81.0503 5.79157 65.9817ZM13.8057 106.49V98.4254C13.8057 97.2637 14.7485 96.304 15.9271 96.304H34.7164C35.8782 96.304 36.8378 97.2468 36.8378 98.4254V106.49H13.8057ZM74.9385 106.49H61.7556L75.5615 86.0675H88.7443L74.9385 106.49ZM105.328 83.1211C105.328 83.3568 105.143 83.542 104.907 83.542H35.1542C34.9185 83.542 34.7333 83.3568 34.7333 83.1211V75.2249C34.7333 74.9892 34.9185 74.804 35.1542 74.804H104.924C105.16 74.804 105.345 74.9892 105.345 75.2249V83.1211H105.328Z" fill="#FAFAFA"/>
<path d="M61.6883 47.1587H98.1222C100.681 47.1587 102.769 45.071 102.769 42.5118V16.87C102.769 14.3109 100.681 12.2232 98.1222 12.2232H95.1085V3.36728C95.1085 2.67699 94.5361 2.10455 93.8458 2.10455C93.1555 2.10455 92.5831 2.67699 92.5831 3.36728V12.24H67.2275V3.36728C67.2275 2.67699 66.6551 2.10455 65.9648 2.10455C65.2745 2.10455 64.702 2.67699 64.702 3.36728V12.24H61.6883C59.1292 12.24 57.0415 14.3278 57.0415 16.8869V42.5287C57.0415 45.0878 59.1292 47.1587 61.6883 47.1587ZM59.567 16.87C59.567 15.7083 60.5098 14.7487 61.6883 14.7487H98.1222C99.2839 14.7487 100.244 15.6915 100.244 16.87V42.5118C100.244 43.6735 99.3008 44.6332 98.1222 44.6332H61.6883C60.5266 44.6332 59.567 43.6904 59.567 42.5118V16.87Z" fill="#FAFAFA"/>
<path d="M65.0557 40.4073H94.7382C95.4285 40.4073 96.0009 39.8349 96.0009 39.1446V20.2542C96.0009 19.5639 95.4285 18.9915 94.7382 18.9915H65.0557C64.3654 18.9915 63.793 19.5639 63.793 20.2542V39.1277C63.793 39.8349 64.3654 40.4073 65.0557 40.4073ZM66.3184 37.8819V30.9789H71.7902C72.2112 30.9789 72.5984 30.7769 72.8341 30.4233L74.804 27.5107L78.0534 35.188C78.2554 35.6595 78.71 35.9625 79.2151 35.9625H79.2488C79.7707 35.9457 80.2253 35.6258 80.4105 35.1375L82.6665 29.1269L84.8048 32.4605C85.0236 32.7973 85.3772 33.0161 85.7644 33.033C86.1517 33.0498 86.5389 32.8983 86.8083 32.6121L88.1889 31.0463H93.4586V37.8819H66.3184ZM93.4755 21.5169V28.5208H87.6333C87.2797 28.5208 86.9261 28.6724 86.6904 28.9417L86.0338 29.6825L83.441 25.6418C83.1885 25.2377 82.7339 25.002 82.2456 25.0694C81.7742 25.1199 81.3701 25.4398 81.2018 25.8775L79.1646 31.282L76.235 24.3623C76.0498 23.9413 75.6626 23.6383 75.1912 23.6046C74.7366 23.5541 74.282 23.773 74.0295 24.1602L71.1336 28.4367H66.3353V21.5169H93.4755Z" fill="#FAFAFA"/>
</svg>
