<?xml version="1.0" encoding="UTF-8" standalone="no"?><!-- Generator: Gravit.io --><svg xmlns="http://www.w3.org/2000/svg" xmlns:xlink="http://www.w3.org/1999/xlink" style="isolation:isolate" viewBox="0 0 23 19" width="23pt" height="19pt"><defs><clipPath id="_clipPath_4KKuHIW6UlL6G1PIgtpbdEmMP95iRPz6"><rect width="23" height="19"/></clipPath></defs><g clip-path="url(#_clipPath_4KKuHIW6UlL6G1PIgtpbdEmMP95iRPz6)"><g><path d=" M 1.352 8.971 C 1.352 9.034 1.389 8.928 1.457 8.788 C 1.57 8.556 1.739 8.267 1.948 7.956 C 2.464 7.181 3.152 6.367 3.948 5.623 C 6.074 3.639 8.63 2.45 11.498 2.45 C 14.366 2.45 16.921 3.639 19.048 5.623 C 19.843 6.367 20.531 7.181 21.047 7.956 C 21.256 8.267 21.425 8.556 21.538 8.788 C 21.606 8.928 21.643 9.034 21.643 8.971 C 21.643 8.908 21.606 9.014 21.538 9.155 C 21.425 9.386 21.256 9.675 21.047 9.987 C 20.531 10.761 19.843 11.575 19.048 12.319 C 16.924 14.303 14.368 15.492 11.5 15.492 C 8.632 15.492 6.076 14.303 3.95 12.319 C 3.154 11.575 2.467 10.761 1.95 9.987 C 1.741 9.675 1.572 9.386 1.457 9.155 C 1.389 9.014 1.352 8.908 1.352 8.971 L 1.352 8.971 L 1.352 8.971 Z  M 0 8.971 C 0 9.78 1.378 11.842 3.06 13.413 C 5.417 15.61 8.278 16.942 11.5 16.942 C 14.722 16.942 17.583 15.612 19.94 13.413 C 21.622 11.842 23 9.78 23 8.971 C 23 8.162 21.622 6.1 19.94 4.529 C 17.583 2.332 14.722 1 11.5 1 C 8.278 1 5.417 2.33 3.06 4.529 C 1.378 6.1 0 8.162 0 8.971 L 0 8.971 L 0 8.971 Z  M 15.558 8.971 C 15.558 11.372 13.741 13.317 11.5 13.317 C 9.259 13.317 7.442 11.372 7.442 8.971 C 7.442 6.57 9.259 4.625 11.5 4.625 C 13.741 4.625 15.558 6.57 15.558 8.971 L 15.558 8.971 L 15.558 8.971 Z  M 16.912 8.971 C 16.912 5.769 14.49 3.174 11.5 3.174 C 8.51 3.174 6.088 5.769 6.088 8.971 C 6.088 12.174 8.51 14.768 11.5 14.768 C 14.49 14.768 16.912 12.174 16.912 8.971 L 16.912 8.971 L 16.912 8.971 Z " fill="rgb(0,210,203)"/></g></g></svg>