<svg width="24" height="24" viewBox="0 0 24 24" fill="none" xmlns="http://www.w3.org/2000/svg">
<path fill-rule="evenodd" clip-rule="evenodd" d="M5.66667 4.625C5.40389 4.625 5.14304 4.73598 4.94412 4.94816C4.74391 5.16171 4.625 5.45949 4.625 5.77778V18.2222C4.625 18.5405 4.74391 18.8383 4.94412 19.0518C5.14304 19.264 5.40389 19.375 5.66667 19.375H9C9.34518 19.375 9.625 19.6548 9.625 20C9.625 20.3452 9.34518 20.625 9 20.625H5.66667C5.04539 20.625 4.45839 20.3614 4.03219 19.9068C3.60728 19.4535 3.375 18.8469 3.375 18.2222V5.77778C3.375 5.15307 3.60728 4.54648 4.03219 4.09324C4.45839 3.63863 5.04539 3.375 5.66667 3.375H9C9.34518 3.375 9.625 3.65482 9.625 4C9.625 4.34518 9.34518 4.625 9 4.625H5.66667Z" fill="#EF4444"/>
<path fill-rule="evenodd" clip-rule="evenodd" d="M15.5581 7.55806C15.8021 7.31398 16.1979 7.31398 16.4419 7.55806L20.4419 11.5581C20.686 11.8021 20.686 12.1979 20.4419 12.4419L16.4419 16.4419C16.1979 16.686 15.8021 16.686 15.5581 16.4419C15.314 16.1979 15.314 15.8021 15.5581 15.5581L19.1161 12L15.5581 8.44194C15.314 8.19786 15.314 7.80214 15.5581 7.55806Z" fill="#EF4444"/>
<path fill-rule="evenodd" clip-rule="evenodd" d="M8.375 12C8.375 11.6548 8.65482 11.375 9 11.375H20C20.3452 11.375 20.625 11.6548 20.625 12C20.625 12.3452 20.3452 12.625 20 12.625H9C8.65482 12.625 8.375 12.3452 8.375 12Z" fill="#EF4444"/>
</svg>
