<svg width="16" height="15" viewBox="0 0 16 15" fill="none" xmlns="http://www.w3.org/2000/svg">
<path d="M12.1924 9.14337C12.0089 9.32117 11.9246 9.57829 11.9664 9.83046L12.5961 13.3155C12.6493 13.6108 12.5246 13.9098 12.2774 14.0805C12.0351 14.2575 11.7128 14.2788 11.4486 14.1371L8.31142 12.5009C8.20233 12.4428 8.08121 12.4116 7.95725 12.4081H7.76529C7.69871 12.418 7.63354 12.4392 7.57404 12.4718L4.43612 14.1159C4.281 14.1938 4.10533 14.2214 3.93321 14.1938C3.51387 14.1145 3.23408 13.715 3.30279 13.2935L3.93321 9.8085C3.975 9.55421 3.89071 9.29567 3.70725 9.11504L1.14946 6.63587C0.935541 6.42833 0.861166 6.11667 0.958916 5.83546C1.05383 5.55496 1.29608 5.35025 1.58862 5.30421L5.10904 4.7935C5.37679 4.76587 5.61196 4.60296 5.73237 4.36212L7.28362 1.18171C7.32046 1.11087 7.36792 1.04571 7.42529 0.990457L7.48904 0.940874C7.52233 0.904041 7.56058 0.873582 7.60308 0.848791L7.68029 0.820457L7.80071 0.770874H8.09892C8.36525 0.798499 8.59971 0.957874 8.72225 1.19587L10.294 4.36212C10.4074 4.59375 10.6277 4.75454 10.882 4.7935L14.4024 5.30421C14.6999 5.34671 14.9485 5.55212 15.047 5.83546C15.1397 6.1195 15.0597 6.43117 14.8415 6.63587L12.1924 9.14337Z" fill="#FCB427"/>
</svg>
