<svg width="24" height="22" viewBox="0 0 24 22" fill="none" xmlns="http://www.w3.org/2000/svg">
<path d="M12.161 0.288744L15.4389 6.95434L22.7775 8.02015C22.8706 8.03394 22.958 8.07343 23.0299 8.13418C23.1017 8.19494 23.1551 8.27453 23.184 8.36401C23.213 8.45349 23.2163 8.54929 23.1937 8.64064C23.1711 8.73198 23.1234 8.81523 23.056 8.88102L17.7419 14.0722L18.9897 21.3994C19.0058 21.492 18.9956 21.5873 18.9602 21.6745C18.9248 21.7617 18.8657 21.8372 18.7896 21.8926C18.7135 21.948 18.6234 21.981 18.5295 21.9879C18.4356 21.9947 18.3417 21.9752 18.2584 21.9314L11.6961 18.4756L5.12831 21.9389C5.04503 21.9828 4.9511 22.0026 4.85719 21.996C4.76328 21.9893 4.67316 21.9565 4.59707 21.9012C4.52098 21.8459 4.46197 21.7703 4.42675 21.6832C4.39153 21.596 4.38152 21.5007 4.39784 21.408L5.6574 14.0781L0.350191 8.89212C0.282898 8.8264 0.235334 8.7432 0.212857 8.65188C0.19038 8.56055 0.193882 8.46475 0.222969 8.37524C0.252056 8.28573 0.305571 8.20608 0.37749 8.14526C0.449408 8.08444 0.536872 8.04486 0.630033 8.03098L7.97036 6.958L11.2605 0.289184C11.3015 0.204676 11.3655 0.133392 11.4452 0.0834974C11.5249 0.0336025 11.617 0.00711503 11.711 0.00706907C11.8049 0.00702312 11.897 0.0334206 11.9766 0.0832375C12.0562 0.133055 12.1201 0.204276 12.161 0.288744Z" fill="#FDE047"/>
</svg>
