<svg width="40" height="40" viewBox="0 0 40 40" fill="none" xmlns="http://www.w3.org/2000/svg">
<mask id="path-1-inside-1_122_20221" fill="white">
<path d="M23.4137 39.7065C28.2678 38.8657 32.6407 36.2629 35.6943 32.3971C38.748 28.5313 40.2674 23.6745 39.9614 18.7576L35.3643 19.0437C35.5998 22.8282 34.4303 26.5665 32.0799 29.542C29.7296 32.5175 26.3637 34.5209 22.6275 35.1681L23.4137 39.7065Z"/>
</mask>
<path d="M23.4137 39.7065C28.2678 38.8657 32.6407 36.2629 35.6943 32.3971C38.748 28.5313 40.2674 23.6745 39.9614 18.7576L35.3643 19.0437C35.5998 22.8282 34.4303 26.5665 32.0799 29.542C29.7296 32.5175 26.3637 34.5209 22.6275 35.1681L23.4137 39.7065Z" fill="#2B2979" stroke="#2B2979" stroke-width="2" mask="url(#path-1-inside-1_122_20221)"/>
<mask id="path-2-inside-2_122_20221" fill="white">
<path d="M16.5863 0.293488C11.9284 1.10036 7.70685 3.53107 4.6706 7.15439C1.63436 10.7777 -0.0202908 15.3594 0.000187904 20.0866L4.60614 20.0667C4.59038 16.4281 5.86396 12.9016 8.20096 10.1127C10.538 7.32386 13.7873 5.45294 17.3725 4.83189L16.5863 0.293488Z"/>
</mask>
<path d="M16.5863 0.293488C11.9284 1.10036 7.70685 3.53107 4.6706 7.15439C1.63436 10.7777 -0.0202908 15.3594 0.000187904 20.0866L4.60614 20.0667C4.59038 16.4281 5.86396 12.9016 8.20096 10.1127C10.538 7.32386 13.7873 5.45294 17.3725 4.83189L16.5863 0.293488Z" fill="#2B2979" stroke="#2B2979" stroke-width="2" mask="url(#path-2-inside-2_122_20221)"/>
<circle cx="20.0005" cy="19.9998" r="12.4412" fill="#00D2CB" stroke="#00D2CB"/>
</svg>
