<svg width="24" height="24" viewBox="0 0 24 24" fill="none" xmlns="http://www.w3.org/2000/svg">
<ellipse cx="12" cy="12" rx="12" ry="12" transform="rotate(-180 12 12)" fill="#E8E8FD"/>
<path d="M13.938 5.56445H12.2445V6.62284H13.4087V8.61614C13.4087 10.3669 11.9843 11.7913 10.2335 11.7913C8.48279 11.7913 7.05839 10.3669 7.05839 8.61617V6.62284H8.18735V5.56445H6.52919C6.2369 5.56445 6 5.80135 6 6.09365V8.61617C6 10.9506 7.8991 12.8497 10.2336 12.8497C12.568 12.8497 14.4672 10.9506 14.4672 8.61617V6.09365C14.4672 5.80135 14.2303 5.56445 13.938 5.56445Z" fill="#2B2979"/>
<path d="M16.0017 13.2907V15.7956C16.0017 17.2546 14.8148 18.4416 13.3557 18.4416C11.8967 18.4416 10.7098 17.2546 10.7098 15.7956V12.3381H9.65137V15.7956C9.65137 17.8381 11.313 19.4999 13.3557 19.4999C15.3983 19.4999 17.0601 17.8381 17.0601 15.7956V13.2907H16.0017Z" fill="#2B2979"/>
<path d="M16.5305 9.86865C15.4506 9.86865 14.5723 10.7469 14.5723 11.8267C14.5723 12.9063 15.4506 13.7847 16.5303 13.7847C17.61 13.7847 18.4883 12.9063 18.4885 11.8267C18.4885 10.7469 17.61 9.86865 16.5305 9.86865ZM16.5303 12.7263C16.0341 12.7263 15.6305 12.3227 15.6305 11.8267C15.6305 11.3307 16.0341 10.9271 16.5303 10.9271C17.0263 10.9271 17.4299 11.3307 17.4299 11.8267C17.4299 12.3227 17.0263 12.7263 16.5303 12.7263Z" fill="#2B2979"/>
<path d="M8.16884 5C7.87655 5 7.63965 5.2369 7.63965 5.52919V6.65815C7.63965 6.95045 7.87655 7.18735 8.16884 7.18735C8.46114 7.18735 8.69804 6.95045 8.69804 6.65815V5.52919C8.69804 5.2369 8.46114 5 8.16884 5Z" fill="#2B2979"/>
<path d="M12.2616 5C11.9693 5 11.7324 5.2369 11.7324 5.52919V6.65815C11.7324 6.95045 11.9693 7.18735 12.2616 7.18735C12.5539 7.18735 12.7908 6.95045 12.7908 6.65815V5.52919C12.7908 5.2369 12.5539 5 12.2616 5Z" fill="#2B2979"/>
</svg>
