<svg width="19" height="17" viewBox="0 0 19 17" fill="none" xmlns="http://www.w3.org/2000/svg">
<path d="M5.08004 16.0008C6.55874 16.0503 8.03234 15.8028 9.41378 15.2731C10.7952 14.7433 12.0564 13.9421 13.1229 12.9166C14.1894 11.8911 15.0395 10.6623 15.623 9.30266C16.2065 7.94305 16.5115 6.48027 16.52 5.00078C17.1977 4.16219 17.7009 3.19661 18 2.16078C18.0224 2.07894 18.0206 1.99239 17.9949 1.91155C17.9691 1.83071 17.9206 1.75903 17.8551 1.70514C17.7896 1.65125 17.7099 1.61745 17.6256 1.6078C17.5413 1.59816 17.456 1.61308 17.38 1.65078C17.0255 1.82143 16.6264 1.87655 16.2389 1.80838C15.8514 1.74021 15.495 1.55218 15.22 1.27078C14.869 0.886355 14.4444 0.576307 13.9713 0.359004C13.4982 0.141701 12.9863 0.0215633 12.466 0.0057104C11.9456 -0.0101425 11.4274 0.0786115 10.942 0.266713C10.4566 0.454815 10.0138 0.738438 9.64004 1.10078C9.12824 1.59644 8.75336 2.21607 8.55185 2.89945C8.35034 3.58284 8.32905 4.30673 8.49004 5.00078C5.14004 5.20078 2.84004 3.61078 1.00004 1.43078C0.944764 1.36818 0.872455 1.32303 0.791944 1.30085C0.711433 1.27866 0.626205 1.2804 0.546666 1.30586C0.467128 1.33131 0.396722 1.37937 0.344047 1.44417C0.291372 1.50898 0.258707 1.58772 0.250041 1.67078C-0.100489 3.6152 0.152371 5.62032 0.974659 7.41685C1.79695 9.21337 3.14929 10.7153 4.85004 11.7208C3.70968 13.0286 2.10825 13.8454 0.380041 14.0008C0.287454 14.0161 0.201983 14.0601 0.135593 14.1264C0.0692023 14.1927 0.0252145 14.2782 0.00978526 14.3707C-0.00564397 14.4633 0.00825779 14.5584 0.0495449 14.6427C0.090832 14.727 0.157438 14.7962 0.240041 14.8408C1.74356 15.5921 3.39927 15.989 5.08004 16.0008Z" fill="#222222"/>
</svg>
