<svg width="15" height="16" viewBox="0 0 15 16" fill="none" xmlns="http://www.w3.org/2000/svg">
<path fill-rule="evenodd" clip-rule="evenodd" d="M2.85323 2.06055C2.31317 2.06055 1.875 2.50609 1.875 3.05455V3.63957C1.875 4.04584 2.02949 4.43654 2.30585 4.7304L5.33444 7.95075L5.33577 7.94872C5.92044 8.54729 6.24941 9.35644 6.24941 10.2001V13.0575C6.24941 13.2485 6.44918 13.3704 6.615 13.2803L8.33972 12.3405C8.60009 12.1983 8.76258 11.922 8.76258 11.6221V10.1927C8.76258 9.35373 9.08688 8.54796 9.66623 7.95075L12.6948 4.7304C12.9705 4.43654 13.125 4.04584 13.125 3.63957V3.05455C13.125 2.50609 12.6875 2.06055 12.1474 2.06055H2.85323Z" stroke="#2B2979" stroke-linecap="round" stroke-linejoin="round"/>
</svg>
