<svg width="14" height="13" viewBox="0 0 14 13" fill="none" xmlns="http://www.w3.org/2000/svg">
<path d="M10.9456 8.04673C10.7729 8.21407 10.6936 8.45607 10.7329 8.6934L11.3256 11.9734C11.3756 12.2514 11.2583 12.5327 11.0256 12.6934C10.7976 12.8601 10.4943 12.8801 10.2456 12.7467L7.29292 11.2067C7.19026 11.1521 7.07626 11.1227 6.95959 11.1194H6.77892C6.71626 11.1287 6.65493 11.1487 6.59893 11.1794L3.64559 12.7267C3.49959 12.8001 3.33426 12.8261 3.17226 12.8001C2.77759 12.7254 2.51426 12.3494 2.57893 11.9527L3.17226 8.67273C3.21159 8.4334 3.13226 8.19007 2.95959 8.02007L0.552258 5.68673C0.350925 5.4914 0.280925 5.19807 0.372925 4.9334C0.462258 4.6694 0.690258 4.47673 0.965592 4.4334L4.27892 3.95273C4.53093 3.92673 4.75226 3.7734 4.86559 3.54673L6.32559 0.553399C6.36026 0.486733 6.40493 0.425399 6.45893 0.373399L6.51892 0.326733C6.55026 0.292066 6.58626 0.263399 6.62626 0.240066L6.69893 0.213399L6.81226 0.166733H7.09293C7.34359 0.192733 7.56426 0.342733 7.67959 0.566733L9.15893 3.54673C9.26559 3.76473 9.47293 3.91607 9.71226 3.95273L13.0256 4.4334C13.3056 4.4734 13.5396 4.66673 13.6323 4.9334C13.7196 5.20073 13.6443 5.49407 13.4389 5.68673L10.9456 8.04673Z" fill="#8F949F"/>
</svg>
