<svg width="53" height="40" viewBox="0 0 53 40" fill="none" xmlns="http://www.w3.org/2000/svg">
<path d="M49.8897 7.60422C48.3234 6.85788 46.5133 7.08025 45.1729 8.18442L41.0755 11.5608C40.2631 12.2305 40.1438 13.4369 40.8089 14.2599C41.4741 15.0753 42.6749 15.1979 43.4898 14.5257L47.5872 11.1493C47.8537 10.9295 48.1254 11.0036 48.2599 11.0675C48.3995 11.1365 48.6306 11.2976 48.6306 11.6554V29.2173C48.6306 29.5752 48.3995 29.7362 48.2599 29.8052C48.1254 29.8717 47.8537 29.9432 47.5846 29.7234L37.8819 21.7233V11.5557C37.8819 5.29364 33.4138 0.92041 27.0164 0.92041H11.2615C4.86404 0.92041 0.395996 5.29364 0.395996 11.5557V29.3451C0.395996 35.5893 4.85388 39.9523 11.2361 39.9523C12.2871 39.9523 13.1401 39.0935 13.1401 38.0354C13.1401 36.9772 12.2871 36.1184 11.2361 36.1184C6.89751 36.1184 4.20399 33.5241 4.20399 29.3451V11.5557C4.20399 7.35885 6.90766 4.75433 11.2615 4.75433H27.0164C31.3702 4.75433 34.0739 7.35885 34.0739 11.5557V29.3451C34.0739 33.5241 31.3702 36.1184 27.0164 36.1184H22.6271C21.576 36.1184 20.7231 36.9772 20.7231 38.0354C20.7231 39.0935 21.576 39.9523 22.6271 39.9523H27.0164C33.4138 39.9523 37.8819 35.5893 37.8819 29.3451V26.6793L45.1729 32.6883C45.9853 33.3605 46.9728 33.7056 47.973 33.7056C48.6204 33.7056 49.2728 33.5624 49.8897 33.2685C51.4612 32.5196 52.4385 30.9682 52.4385 29.2173V11.6554C52.4385 9.90457 51.4612 8.35311 49.8897 7.60422Z" fill="#2B2979"/>
</svg>
