<svg width="24" height="24" viewBox="0 0 24 24" fill="none" xmlns="http://www.w3.org/2000/svg">
<path d="M23.9423 23.0847L19.7073 13.1846C19.5959 12.9246 19.3407 12.756 19.0585 12.756H16.3689C17.4575 10.8505 18.3527 8.74163 18.3527 6.95726C18.3527 -2.2317 5.64734 -2.3438 5.64734 6.95726C5.64734 8.74163 6.54254 10.8505 7.6311 12.756H4.94147C4.65912 12.756 4.40387 12.9246 4.29272 13.1846L0.0576758 23.0847C-0.141543 23.5503 0.199766 24.0704 0.706418 24.0704H23.2936C23.7991 24.0704 24.1419 23.5514 23.9423 23.0847ZM18.5929 14.1703L20.6827 19.0552C20.6173 19.0894 13.8157 22.6282 13.767 22.6561H12.2895C12.2521 22.6142 12.5696 22.934 7.9693 18.3252L10.5245 17.0149C11.0455 17.6811 11.4104 18.1043 11.4673 18.17C11.7486 18.4944 12.2516 18.4938 12.5325 18.17C12.6506 18.0339 14.0894 16.3635 15.5068 14.1703H18.5929ZM12 1.44142C14.3796 1.44142 16.9409 3.16764 16.9409 6.95726C16.9409 10.1437 13.376 14.8857 12 16.597C10.624 14.8855 7.05908 10.1437 7.05908 6.95726C7.05908 3.14709 9.54053 1.44142 12 1.44142ZM5.40692 14.1703C8.82623 14.1703 8.43768 14.1709 8.49243 14.1692C8.88995 14.7844 9.28912 15.3584 9.66046 15.8692L3.2807 19.1407L5.40692 14.1703ZM2.41003 21.1761L6.64892 19.0024L10.296 22.6561H1.77685L2.41003 21.1761ZM16.8263 22.6561L21.2404 20.3587L22.2231 22.6561H16.8263Z" fill="black" stroke="white" stroke-width="0.3"/>
<path d="M14.1174 6.39208C14.1174 5.22232 13.1674 4.27051 11.9999 4.27051C10.8323 4.27051 9.88232 5.22232 9.88232 6.39208C9.88232 7.56185 10.8323 8.51347 11.9999 8.51347C13.1674 8.51347 14.1174 7.56185 14.1174 6.39208ZM11.2941 6.39208C11.2941 6.00204 11.6107 5.68483 11.9999 5.68483C12.389 5.68483 12.7058 6.00204 12.7058 6.39208C12.7058 6.78194 12.389 7.09915 11.9999 7.09915C11.6107 7.09915 11.2941 6.78194 11.2941 6.39208Z" fill="black"/>
</svg>
