<svg width="590" height="392" viewBox="0 0 590 392" fill="none" xmlns="http://www.w3.org/2000/svg">
<path d="M543.745 243.521L533.441 243.74L528.211 243.826C526.46 243.865 524.701 243.826 522.949 243.873H522.604V243.521L522.557 234.742V234.351H522.949L533.347 234.398C536.818 234.398 540.282 234.484 543.745 234.523H543.965V234.742C543.965 236.229 543.902 237.707 543.863 239.171L543.745 243.521ZM543.745 243.521L543.635 239.1C543.596 237.645 543.549 236.205 543.533 234.765L543.745 234.984C540.282 235.024 536.818 235.11 533.347 235.11L522.949 235.157L523.342 234.765V243.521L522.989 243.177C524.701 243.177 526.413 243.177 528.132 243.216L533.245 243.349L543.745 243.521Z" fill="#EBEBEB"/>
<path d="M532.146 254.561L521.842 254.78L516.604 254.866C514.86 254.866 513.101 254.866 511.35 254.913H511.004V254.561V245.805V245.414H511.397L521.795 245.469C525.258 245.469 528.729 245.555 532.193 245.594H532.413V245.805C532.413 247.292 532.35 248.771 532.311 250.234L532.146 254.561ZM532.146 254.561L532.036 250.14C531.996 248.685 531.949 247.245 531.934 245.805L532.146 246.024C528.682 246.064 525.211 246.15 521.748 246.15L511.35 246.197L511.743 245.805V254.561L511.389 254.217C513.101 254.217 514.813 254.217 516.533 254.256L521.693 254.35L532.146 254.561Z" fill="#EBEBEB"/>
<path d="M555.345 254.561L545.041 254.78L539.811 254.866C538.059 254.866 536.3 254.866 534.549 254.913H534.203V254.561L534.156 245.805V245.414H534.549L544.947 245.469C548.418 245.469 551.881 245.555 555.345 245.594H555.564V245.805C555.564 247.292 555.494 248.771 555.462 250.234L555.345 254.561ZM555.345 254.561L555.235 250.14C555.235 248.685 555.148 247.245 555.133 245.805L555.345 246.024C551.881 246.064 548.418 246.15 544.947 246.15L534.549 246.197L534.941 245.805V254.561L534.588 254.217C536.308 254.217 538.012 254.217 539.732 254.256L544.9 254.35L555.345 254.561Z" fill="#EBEBEB"/>
<path d="M247.217 139.335L236.913 139.554L231.683 139.64C229.932 139.64 228.172 139.64 226.421 139.64H226.075V139.288L226.028 130.532V130.141H226.421L236.819 130.188C240.29 130.188 243.753 130.274 247.217 130.313H247.437V130.524C247.437 132.011 247.366 133.482 247.327 134.945L247.217 139.335ZM247.217 139.335L247.107 134.906C247.107 133.45 247.02 132.011 247.005 130.579L247.217 130.79C243.753 130.79 240.29 130.915 236.819 130.915L226.421 130.97L226.814 130.579L226.774 139.335L226.421 138.983C228.133 138.983 229.845 138.983 231.565 139.03L236.733 139.116L247.217 139.335Z" fill="#EBEBEB"/>
<path d="M235.602 150.376L225.298 150.595L220.06 150.681C218.316 150.681 216.557 150.681 214.806 150.72H214.46V150.368L214.397 141.628V141.236H214.79L225.188 141.283C228.651 141.283 232.123 141.369 235.586 141.408H235.806V141.628C235.806 143.114 235.743 144.585 235.704 146.049L235.602 150.376ZM235.602 150.376L235.492 145.947C235.452 144.491 235.405 143.052 235.39 141.62L235.602 141.831C232.138 141.87 228.667 141.956 225.204 141.956L214.806 142.011L215.199 141.62L215.183 150.376L214.829 150.023C216.541 150.023 218.254 150.023 219.973 150.07L225.133 150.157L235.602 150.376Z" fill="#EBEBEB"/>
<path d="M258.816 150.376L248.513 150.595L243.282 150.681C241.531 150.681 239.78 150.681 238.02 150.72H237.675V150.368L237.628 141.628V141.236H238.02L248.418 141.283C251.89 141.283 255.353 141.369 258.816 141.408H259.036V141.628C259.036 143.114 258.965 144.585 258.934 146.049L258.816 150.376ZM258.816 150.376L258.706 145.947C258.706 144.491 258.62 143.052 258.604 141.62L258.816 141.831C255.353 141.87 251.89 141.956 248.418 141.956L238.02 142.011L238.413 141.62L238.374 150.376L238.02 150.023C239.74 150.023 241.445 150.023 243.164 150.07L248.332 150.157L258.816 150.376Z" fill="#EBEBEB"/>
<path d="M77.6543 197.269L67.3506 197.488L62.1124 197.574C60.369 197.574 58.6098 197.574 56.8585 197.613H56.5444V197.261V188.505V188.114H56.937L67.3349 188.161C70.7983 188.161 74.2695 188.247 77.7328 188.286H77.9527V188.498C77.9527 189.984 77.8899 191.455 77.8506 192.919L77.6543 197.269ZM77.6543 197.269L77.5443 192.84C77.5443 191.385 77.4579 189.945 77.4422 188.513L77.6543 188.725C74.1909 188.764 70.7197 188.85 67.2564 188.85L56.8585 188.905L57.2512 188.513L57.2119 197.269L56.8585 196.917C58.5705 196.917 60.2826 196.917 62.0025 196.964L67.1622 197.05L77.6543 197.269Z" fill="#EBEBEB"/>
<path d="M422.402 139.327L412.099 139.546L406.868 139.632C405.117 139.671 403.358 139.632 401.607 139.671H401.261V139.319L401.214 130.563V130.172H401.607L412.004 130.219C415.476 130.219 418.939 130.313 422.402 130.352H422.622V130.563C422.622 132.05 422.559 133.529 422.52 134.984L422.402 139.327ZM422.402 139.327L422.292 134.906C422.253 133.443 422.206 132.003 422.19 130.571L422.402 130.782C418.939 130.821 415.476 130.907 412.004 130.915L401.607 130.962L401.999 130.571L401.96 139.327L401.607 138.975C403.319 138.975 405.031 138.975 406.751 139.022L411.918 139.108L422.402 139.327Z" fill="#EBEBEB"/>
<path d="M542.544 54.2877L532.24 54.5068L527.002 54.5929C525.258 54.5929 523.499 54.5929 521.748 54.6398H521.402V54.2877V45.5319V45.1406H521.795L532.193 45.1876C535.656 45.1876 539.127 45.2815 542.591 45.3206H542.811V45.5319C542.811 47.0186 542.748 48.4974 542.708 49.9528L542.544 54.2877ZM542.544 54.2877L542.434 49.8668C542.394 48.4035 542.347 46.9638 542.331 45.5319L542.544 45.7431C539.08 45.7431 535.609 45.8683 532.146 45.8762L521.748 45.9231L522.14 45.5319L522.101 54.2877L521.748 53.9356C523.46 53.9356 525.172 53.9356 526.892 53.9826L532.051 54.0686L542.544 54.2877Z" fill="#EBEBEB"/>
<path d="M554.143 65.3288L543.839 65.5478L538.609 65.6339C536.858 65.673 535.099 65.6339 533.347 65.673H533.002V65.3209L532.955 56.5651V56.1738H533.347L543.745 56.2208C547.216 56.2208 550.68 56.3147 554.143 56.3538H554.363V56.5651C554.363 58.0518 554.292 59.5306 554.253 60.986L554.143 65.3288ZM554.143 65.3288L554.033 60.9078C554.033 59.4446 553.947 58.0048 553.931 56.5729L554.143 56.7842C550.68 56.8233 547.216 56.9094 543.745 56.9172L533.347 56.9641L533.74 56.5729V65.3288L533.386 64.9766C535.099 64.9766 536.811 64.9766 538.53 65.0236L543.698 65.1097L554.143 65.3288Z" fill="#EBEBEB"/>
<path d="M54.4554 54.2955L44.1439 54.5146L38.9135 54.6007C37.1701 54.6007 35.4109 54.6007 33.6596 54.6477H33.3062V54.2955V45.5397V45.1484H33.7067L44.1046 45.2032C47.568 45.2032 51.0313 45.2893 54.5025 45.3284H54.7145V45.5397C54.7145 47.0264 54.6439 48.5052 54.6125 49.9685L54.4554 54.2955ZM54.4554 54.2955L54.3376 49.8746C54.3376 48.4113 54.2512 46.9716 54.2355 45.5397L54.4554 45.7509C50.9842 45.7979 47.5208 45.8761 44.0575 45.884L33.6596 45.9309L34.0523 45.5397L34.0052 54.2955L33.6596 53.9904C35.3717 53.9904 37.0758 53.9904 38.7957 53.9904L43.9633 54.0764L54.4554 54.2955Z" fill="#EBEBEB"/>
<path d="M309.172 162.902C308.209 163.809 307.013 164.435 305.717 164.71C304.931 164.913 304.06 165.031 303.227 165.179H300.384C299.214 164.999 298.028 164.858 296.889 164.632C292.634 163.722 288.603 161.977 285.031 159.499C275.625 153.303 267.699 145.124 261.816 135.539C259.844 132.377 258.485 128.873 257.811 125.211C257.638 124.248 257.505 123.278 257.356 122.308V119.475C257.591 118.387 257.78 117.284 258.07 116.212C258.357 115.206 258.897 114.29 259.641 113.552C259.782 113.677 259.908 113.779 260.034 113.904C264.557 118.406 269.083 122.908 273.612 127.409C273.759 127.531 273.863 127.695 273.911 127.879C273.959 128.063 273.948 128.257 273.879 128.434C273.535 129.55 273.489 130.736 273.745 131.875C274.001 133.014 274.551 134.066 275.34 134.929C279.203 139.301 283.339 143.425 287.725 147.276C288.599 148.067 289.665 148.617 290.818 148.871C291.971 149.125 293.171 149.074 294.298 148.724C294.628 148.638 294.863 148.583 295.146 148.865C299.769 153.497 304.403 158.119 309.047 162.73C309.07 162.754 309.101 162.824 309.172 162.902Z" fill="#EBEBEB"/>
<path d="M318.062 152.785V153.724C317.653 154.312 317.209 154.876 316.735 155.414C315.337 156.861 313.892 158.262 312.471 159.678L312.031 160.093L298.068 146.188C299.897 144.389 301.719 142.55 303.604 140.758C303.808 140.569 304.049 140.423 304.311 140.328C304.573 140.234 304.851 140.192 305.13 140.207C305.408 140.222 305.68 140.292 305.931 140.413C306.182 140.535 306.405 140.705 306.588 140.915C307.641 141.932 308.662 142.972 309.73 143.998C312.156 146.423 314.599 148.833 317.002 151.274C317.395 151.749 317.749 152.254 318.062 152.785V152.785Z" fill="#EBEBEB"/>
<path d="M281.458 119.546C279.73 121.212 277.963 122.84 276.251 124.452L262.397 110.657C262.704 110.383 263.057 110.093 263.379 109.78C264.651 108.521 265.9 107.23 267.196 105.993C267.722 105.533 268.275 105.105 268.853 104.71H269.803C270.333 105.034 270.837 105.398 271.311 105.798C274.704 109.147 278.083 112.511 281.45 115.891C282.722 117.159 282.722 118.302 281.458 119.546Z" fill="#EBEBEB"/>
<path d="M49.2878 127.222H140.175V69.7725H49.2878V127.222Z" fill="#EBEBEB"/>
<path d="M157.178 127.222H140.175V109.577L157.178 127.222Z" fill="#EBEBEB"/>
<path d="M129.652 79.7021H59.8035V80.7976H129.652V79.7021Z" fill="white"/>
<path d="M95.9056 85.6025H59.8035V86.698H95.9056V85.6025Z" fill="white"/>
<path d="M116.285 97.3936H59.8035V98.489H116.285V97.3936Z" fill="white"/>
<path d="M129.652 103.286H59.8035V104.382H129.652V103.286Z" fill="white"/>
<path d="M129.652 109.178H59.8035V110.273H129.652V109.178Z" fill="white"/>
<path d="M84.6202 115.078H59.8035V116.174H84.6202V115.078Z" fill="white"/>
<path d="M539.716 150.164H448.829V200.829H539.716V150.164Z" fill="#DBDBDB"/>
<path d="M431.826 200.837H448.829V183.192L431.826 200.837Z" fill="#DBDBDB"/>
<path d="M520.366 176.619H459.557V177.715H520.366V176.619Z" fill="white"/>
<path d="M507.863 182.52H459.557V183.615H507.863V182.52Z" fill="white"/>
<path d="M511.507 164.827H459.557V165.923H511.507V164.827Z" fill="white"/>
<path d="M527.386 158.936H459.557V160.031H527.386V158.936Z" fill="white"/>
<path d="M512.873 188.411H459.557V189.507H512.873V188.411Z" fill="white"/>
<path d="M493.798 96.3145H326.905V103.607H493.798V96.3145Z" fill="#EBEBEB"/>
<path d="M343.578 103.614H336.259V127.73H343.578V103.614Z" fill="#EBEBEB"/>
<path d="M343.578 103.614H336.259V111.071H343.578V103.614Z" fill="#DBDBDB"/>
<path d="M484.444 103.614H477.125V127.73H484.444V103.614Z" fill="#EBEBEB"/>
<path d="M484.444 103.614H477.125V111.071H484.444V103.614Z" fill="#DBDBDB"/>
<path d="M369.808 96.3138V49.8428H358.06V96.3138H369.808Z" fill="#C7C7C7"/>
<path d="M369.808 52.464V47.3545H358.06V52.464H369.808Z" fill="#DBDBDB"/>
<path d="M369.8 60.9072V59.0137H358.052V60.9072H369.8Z" fill="#DBDBDB"/>
<path d="M371.269 90.2267V85.1172H358.06V90.2267H371.269Z" fill="#DBDBDB"/>
<path d="M378.015 96.3142V42.1045H369.808V96.3142H378.015Z" fill="#DBDBDB"/>
<path d="M376.342 68.0512V47.1982H371.418V68.0512H376.342Z" fill="#EBEBEB"/>
<path d="M436.389 90.5237L397.695 52.4131L391.926 58.2282L430.619 96.3389L436.389 90.5237Z" fill="#C7C7C7"/>
<path d="M426.178 82.7304L411.294 68.0703L407.832 71.5594L422.716 86.2194L426.178 82.7304Z" fill="#DBDBDB"/>
<path d="M391.947 96.33V55.1484H378.007V96.33H391.947Z" fill="#A6A6A6"/>
<path d="M391.947 91.9562V88.1221H378.007V91.9562H391.947Z" fill="#C7C7C7"/>
<path d="M391.947 85.6097V84.123H378.007V85.6097H391.947Z" fill="#C7C7C7"/>
<path d="M358.06 96.33V57.6289H348.431V96.33H358.06Z" fill="#A6A6A6"/>
<path d="M358.06 92.2215V88.6143H348.431V92.2215H358.06Z" fill="#C7C7C7"/>
<path d="M358.06 69.2098V65.6025H348.431V69.2098H358.06Z" fill="#C7C7C7"/>
<path d="M358.06 73.0823V71.6816H348.431V73.0823H358.06Z" fill="#C7C7C7"/>
<path d="M476.253 78.2857L475.209 81.0478L474.565 82.7301L473.512 85.5001L469.413 96.3217H447.243L443.127 85.5001L442.075 82.7301L441.439 81.0478L440.387 78.2857L448.57 66.3999L444.329 58.5674H472.334L468.07 66.3999L476.253 78.2857Z" fill="#DBDBDB"/>
<path d="M476.253 78.2861L475.209 81.0483H441.439L440.387 78.2861H476.253Z" fill="#A6A6A6"/>
<path d="M474.565 82.7305L473.512 85.5004H443.127L442.075 82.7305H474.565Z" fill="#A6A6A6"/>
<path d="M43.8376 307.222L106.508 307.034L169.17 306.964L294.502 306.839L419.834 306.964L482.497 307.034L545.167 307.222L482.497 307.418L419.834 307.488L294.502 307.614L169.17 307.488L106.508 307.418L43.8376 307.222Z" fill="#263238"/>
<path d="M287.701 307.207H384.031L364.829 195.885H292.79L287.701 307.207Z" fill="#DBDBDB"/>
<path d="M287.701 307.207H296.151L300.887 195.885H292.79L287.701 307.207Z" fill="#A6A6A6"/>
<path d="M371.402 217.707C382.303 241.964 408.643 282.222 420.431 272.246C438.062 257.332 449.999 224.343 454.711 211.001C457.358 203.529 419.151 191.025 416.811 197.809C413.481 207.449 408.258 227.598 405.235 230.454C403.664 231.948 391.146 214.444 381.675 206.142C368.002 194.178 367.923 209.961 371.402 217.707Z" fill="#EB9481"/>
<path d="M464.253 199.773C460.853 207.394 447.761 220.282 443.41 222.183C439.059 224.084 416.08 203.404 416.559 198.537C417.038 193.67 430.75 168.177 438.345 164.264C445.939 160.352 467.779 191.87 464.253 199.773Z" fill="#EB9481"/>
<path d="M418.358 193.185C418.358 193.185 418.908 182.34 416.159 173.17C413.85 165.462 409.554 154.281 413.662 152.888C422.112 150.032 432.824 177.927 432.824 177.927C432.824 177.927 435.572 190.994 427.46 194.562C422.371 196.8 418.358 193.185 418.358 193.185Z" fill="#EB9481"/>
<path d="M427.884 172.614C428.434 177.004 433.311 173.842 433.311 173.842C433.311 173.842 427.397 180.102 429.722 184.382C431.984 188.522 437.732 184.492 438.148 184.21C437.834 184.547 432.557 190.415 435.345 194.5C438.243 198.741 443.316 193.717 443.646 193.389C443.449 193.788 440.983 199.195 443.811 201.824C448.664 206.323 455.355 192.677 460.507 191.151C460.507 191.151 464.104 199.547 464.253 199.758C464.253 199.758 470.889 186.894 468.439 180.087C468.095 179.092 467.422 178.244 466.53 177.682C465.637 177.12 464.58 176.878 463.531 176.996C463.531 176.996 466.13 173.083 464.041 169.797C462.957 168.115 459.329 168.334 459.329 168.334C459.329 168.334 461.277 165.118 459.235 162.317C457.609 160.071 454.193 160.642 454.193 160.642C454.193 160.642 454.625 156.683 452.222 154.93C447.337 151.393 426.698 163.217 427.884 172.614Z" fill="#EB9481"/>
<path d="M453.604 160.665C453.675 160.626 453.604 160.524 453.565 160.547C445.821 162.785 438.007 167.59 433.028 173.982C432.863 174.194 433.13 174.546 433.358 174.35C439.79 168.756 445.876 164.319 453.604 160.665Z" fill="#263238"/>
<path d="M459.376 168.231C459.462 168.192 459.376 168.051 459.305 168.075C451.334 170.422 442.688 176.103 437.811 184.123C437.646 184.397 437.771 184.812 437.991 184.515C441.635 179.444 452.402 171.494 459.376 168.231Z" fill="#263238"/>
<path d="M443.497 194.053C448.468 186.541 455.355 181.369 463.201 177.073C463.295 177.019 463.201 176.886 463.114 176.909C458.701 177.965 453.989 181.22 450.549 184.069C447.294 186.645 444.775 190.029 443.245 193.881C443.175 194.053 443.394 194.225 443.497 194.053Z" fill="#263238"/>
<path d="M433.154 173.834C432.957 174.084 433.546 174.092 433.358 174.35C432.573 175.43 428.371 182.355 430.295 184.523C431.866 186.252 435.235 185.375 436.413 184.523L439.358 182.402L437.332 185.446C436.42 186.78 435.73 188.251 435.29 189.804C435.046 190.511 434.955 191.262 435.024 192.007C435.094 192.751 435.321 193.473 435.69 194.123C436.037 194.726 436.582 195.192 437.233 195.441C437.883 195.691 438.601 195.709 439.264 195.493C440.741 194.986 442.063 194.111 443.104 192.95L446.088 189.82L444.298 193.732C443.797 194.815 443.436 195.956 443.222 197.128C442.982 198.23 443.072 199.379 443.481 200.43C443.683 200.893 444.011 201.291 444.427 201.58C444.843 201.869 445.331 202.037 445.837 202.066C446.984 201.95 448.074 201.51 448.978 200.798C450.961 199.288 452.823 197.627 454.546 195.829C455.449 194.953 456.353 194.069 457.303 193.224C458.195 192.334 459.266 191.641 460.444 191.189C459.324 191.755 458.326 192.534 457.507 193.482C456.635 194.382 455.803 195.321 454.97 196.267C453.334 198.222 451.52 200.022 449.552 201.643C448.496 202.536 447.203 203.104 445.829 203.278C445.072 203.286 444.329 203.074 443.689 202.67C443.049 202.267 442.541 201.687 442.224 201.001C441.675 199.711 441.524 198.286 441.792 196.909C442.003 195.6 442.386 194.324 442.931 193.114L444.125 193.897C442.915 195.288 441.361 196.34 439.617 196.948C438.64 197.26 437.584 197.221 436.633 196.839C435.713 196.437 434.936 195.769 434.402 194.922C433.935 194.096 433.648 193.181 433.561 192.237C433.475 191.293 433.59 190.341 433.9 189.444C434.401 187.744 435.184 186.138 436.216 184.695L437.135 185.587C435.565 186.604 431.921 187.997 429.18 185.626C426.148 181.956 431.999 175.023 433.154 173.834Z" fill="#263238"/>
<path d="M433.311 173.842C432.462 174.18 431.567 174.388 430.656 174.461C430.291 174.498 429.921 174.437 429.587 174.285C429.253 174.132 428.966 173.893 428.756 173.592C428.386 172.868 428.236 172.052 428.324 171.245C428.371 170.353 428.465 169.421 428.607 168.459C428.008 169.245 427.585 170.15 427.366 171.112C427.215 171.631 427.168 172.175 427.229 172.712C427.289 173.249 427.456 173.769 427.719 174.241C428.063 174.733 428.547 175.109 429.109 175.321C429.65 175.497 430.229 175.519 430.782 175.384C431.767 175.148 432.652 174.609 433.311 173.842V173.842Z" fill="#263238"/>
<path d="M414.486 198.537L454.256 226.135C454.256 226.135 430.499 275.172 415.821 275.039C401.143 274.906 379.939 238.177 372.628 222.301C365.316 206.424 369.675 192.974 384.47 207.434C399.266 221.894 404.567 227.856 405.046 227.661C405.942 227.301 414.486 198.537 414.486 198.537Z" fill="#00D2CB"/>
<path d="M454.256 226.135C454.256 226.135 437.764 260.141 423.792 271.44C420.989 273.709 418.295 275.063 415.821 275.032C401.143 274.906 379.939 238.169 372.588 222.301C368.041 212.473 368.002 203.576 372.133 201.659C374.685 200.478 378.808 201.933 384.439 207.457C399.361 222.019 404.528 227.872 405.015 227.676C405.942 227.301 414.494 198.545 414.494 198.545L454.256 226.135Z" fill="#00D2CB"/>
<path d="M429.643 265.65C429.156 266.213 428.662 266.761 428.167 267.293C423.691 270.1 418.67 271.932 413.434 272.668C411.989 272.827 410.536 272.885 409.083 272.841L408.18 272.277C409.913 272.382 411.653 272.337 413.379 272.144C415.445 271.919 417.478 271.452 419.434 270.751L420.918 270.266L422.355 269.664C422.834 269.46 423.329 269.288 423.792 269.053L425.182 268.349C426.729 267.551 428.219 266.649 429.643 265.65V265.65ZM399.47 222.449C394.932 224.506 390.793 227.343 387.243 230.83C384.94 233.09 382.811 235.52 380.874 238.099C380.968 238.271 381.07 238.451 381.18 238.623C383.14 236.001 385.301 233.534 387.643 231.244C390.619 228.332 394.008 225.872 397.703 223.944L399.094 223.24C399.349 223.111 399.611 222.996 399.879 222.895L399.47 222.449ZM433.821 224.945C430.05 223.106 426.103 221.646 422.041 220.587C421.617 220.485 421.193 220.384 420.761 220.298C420.486 220.235 420.203 220.172 419.929 220.125C416.496 219.409 412.972 219.229 409.484 219.593C408.973 219.664 408.47 219.742 407.96 219.836C407.905 220.016 407.842 220.204 407.787 220.376C408.368 220.274 408.957 220.188 409.546 220.118C412.784 219.777 416.055 219.911 419.253 220.517L420.109 220.673C420.714 220.798 421.319 220.931 421.923 221.08C425.951 222.114 429.866 223.545 433.609 225.352C439.216 228.093 444.655 231.163 449.897 234.546C449.976 234.413 450.046 234.28 450.109 234.155C444.869 230.765 439.43 227.69 433.821 224.945V224.945ZM437.944 214.82C431.577 215.082 425.373 216.904 419.881 220.125L419.206 220.517C417.819 221.345 416.48 222.249 415.193 223.224C408.463 228.326 403.091 234.883 397.978 241.479C395.418 244.789 392.905 248.122 390.251 251.346C390.062 251.581 389.866 251.808 389.669 252.042L389.968 252.473C390.196 252.207 390.423 251.941 390.643 251.69C393.313 248.459 395.834 245.125 398.402 241.823C403.515 235.251 408.879 228.74 415.539 223.709C416.982 222.612 418.493 221.606 420.062 220.697C420.274 220.564 420.494 220.438 420.714 220.321C422.543 219.298 424.449 218.419 426.415 217.692L427.884 217.16C428.371 216.988 428.881 216.87 429.384 216.722L430.884 216.307L432.455 216.002C434.482 215.546 436.557 215.331 438.635 215.36H438.73L437.944 214.82ZM389.135 212.089C386.392 213.304 383.524 214.22 380.583 214.82L379.052 215.118C378.541 215.211 378.023 215.243 377.481 215.313L375.91 215.493L374.34 215.556C372.906 215.655 371.465 215.629 370.036 215.478L370.177 215.994C376.816 216.477 383.469 215.282 389.52 212.52C389.434 212.371 389.285 212.23 389.135 212.089ZM377.811 202.371C375.03 204.253 372.146 205.98 369.172 207.543C369.172 207.754 369.172 207.966 369.172 208.185C372.345 206.531 375.413 204.687 378.361 202.661C378.172 202.559 377.991 202.457 377.811 202.371Z" fill="white"/>
<path d="M444.855 230.736C443.803 229.867 442.743 229.022 441.675 228.177C439.507 226.471 437.339 224.774 435.172 223.083C430.853 219.727 426.439 216.487 421.994 213.302C419.473 211.487 416.991 209.578 414.392 207.88C414.38 207.871 414.365 207.864 414.35 207.86C414.335 207.856 414.32 207.855 414.305 207.858C414.289 207.86 414.275 207.865 414.261 207.873C414.248 207.881 414.236 207.891 414.227 207.903C414.218 207.916 414.211 207.93 414.207 207.945C414.203 207.96 414.202 207.975 414.205 207.99C414.207 208.006 414.212 208.02 414.22 208.034C414.228 208.047 414.238 208.058 414.251 208.068C416.316 209.883 418.531 211.542 420.675 213.271C422.819 215 424.947 216.738 427.122 218.428C431.447 221.777 435.824 225.06 440.253 228.279C441.486 229.187 442.703 230.141 443.983 230.994C444.635 231.432 445.256 231.917 445.915 232.34C446.575 232.763 447.282 233.122 447.926 233.6C447.941 233.608 447.958 233.611 447.974 233.608C447.991 233.604 448.006 233.595 448.016 233.582C448.027 233.569 448.032 233.552 448.032 233.535C448.031 233.519 448.024 233.503 448.012 233.49C446.936 232.59 445.931 231.612 444.855 230.736Z" fill="#263238"/>
<path d="M405.353 226.784C403.835 230.872 402.586 235.054 401.614 239.303C401.096 241.4 400.688 243.521 400.287 245.634C399.863 247.733 399.58 249.858 399.439 251.995C399.439 252.073 399.557 252.073 399.573 251.995C400.232 249.953 400.719 247.824 401.19 245.735C401.662 243.646 402.196 241.541 402.667 239.475C403.617 235.266 404.732 231.095 405.557 226.862C405.562 226.849 405.564 226.834 405.564 226.82C405.564 226.806 405.561 226.792 405.555 226.779C405.549 226.766 405.54 226.754 405.53 226.744C405.52 226.734 405.507 226.726 405.494 226.721C405.481 226.716 405.466 226.714 405.452 226.714C405.438 226.714 405.423 226.717 405.41 226.723C405.397 226.729 405.385 226.737 405.375 226.748C405.366 226.758 405.358 226.77 405.353 226.784V226.784Z" fill="#263238"/>
<path opacity="0.1" d="M423.792 271.44C420.989 273.709 418.295 275.063 415.821 275.032C401.143 274.906 379.939 238.169 372.588 222.301C368.041 212.473 368.002 203.576 372.133 201.659L423.792 271.44Z" fill="black"/>
<path d="M401.025 307.207H305.552C304.499 305.282 320.143 221.964 352.342 198.498C359.489 193.295 372.164 196.644 375.683 201.706C393.4 227.144 401.025 307.207 401.025 307.207Z" fill="#00D2CB"/>
<path d="M396.062 270.219C393.679 269.378 391.343 268.409 389.065 267.316C385.868 265.79 382.782 264.1 379.711 262.316L379.264 262.05C376.122 260.196 372.981 258.232 369.902 256.252L369.463 255.97L367.374 254.624C360.306 250.11 353.348 245.462 345.8 241.847C342.07 239.988 338.109 238.63 334.02 237.809C331.969 237.444 329.88 237.329 327.8 237.465C327.282 237.465 326.772 237.574 326.23 237.645C325.876 237.715 325.523 237.762 325.162 237.833C325.217 237.707 325.264 237.59 325.327 237.465C325.609 237.41 325.9 237.363 326.183 237.3C326.701 237.238 327.227 237.16 327.753 237.12C329.854 236.98 331.963 237.093 334.036 237.457C338.168 238.271 342.172 239.632 345.942 241.502C353.528 245.117 360.533 249.765 367.586 254.264L369.659 255.587L370.107 255.869C373.248 257.879 376.389 259.875 379.649 261.761L380.096 262.027C383.08 263.756 386.12 265.399 389.245 266.878C391.429 267.919 393.665 268.846 395.944 269.656L396.062 270.219ZM387.565 230.493L387.243 230.798C381.188 236.674 376.664 243.842 372.4 251.009C371.499 252.538 370.594 254.064 369.683 255.587C369.612 255.72 369.541 255.845 369.463 255.97C368.308 257.911 367.146 259.843 365.936 261.745C364.876 263.419 363.769 265.07 362.591 266.667C362.481 266.815 362.379 266.964 362.269 267.105C361.077 268.709 359.792 270.243 358.421 271.698C356.992 273.209 355.413 274.572 353.709 275.767L353.073 276.213C352.861 276.361 352.625 276.479 352.405 276.612L351.062 277.394C350.137 277.86 349.182 278.265 348.204 278.607C344.242 279.918 340.095 280.586 335.921 280.587C331.761 280.57 327.616 280.101 323.56 279.186C319.633 278.357 315.824 277.246 311.984 276.135C311.984 276.26 311.921 276.385 311.882 276.502C315.714 277.621 319.562 278.748 323.473 279.585C327.578 280.518 331.773 281.001 335.984 281.025C340.205 281.027 344.399 280.356 348.408 279.038C349.408 278.695 350.385 278.284 351.329 277.809L352.704 277.027C352.936 276.903 353.161 276.767 353.379 276.62L354.031 276.166C355.761 274.959 357.363 273.58 358.813 272.05C360.276 270.491 361.644 268.847 362.913 267.128C363.031 266.98 363.133 266.839 363.235 266.69C364.35 265.172 365.402 263.615 366.376 262.034C367.594 260.133 368.732 258.2 369.91 256.268L370.138 255.884L372.863 251.299C377.135 244.139 381.659 237.034 387.651 231.228L387.753 231.135C387.683 230.908 387.62 230.696 387.565 230.493ZM392.096 249.077C391.491 249.859 390.879 250.595 390.258 251.346C387.658 254.603 384.752 257.605 381.58 260.313C380.952 260.806 380.324 261.299 379.672 261.761L379.264 262.05C378.355 262.689 377.402 263.264 376.413 263.771L375.73 264.139C375.502 264.264 375.251 264.351 375.015 264.46L373.586 265.07C372.611 265.421 371.614 265.706 370.601 265.923C368.167 266.443 365.685 266.705 363.196 266.706H362.591C361.115 266.706 359.638 266.588 358.169 266.432C354.025 265.912 349.951 264.938 346.02 263.529C342.094 262.175 338.222 260.509 334.374 258.834C330.544 257.108 326.609 255.621 322.594 254.382C321.408 254.045 320.238 253.748 318.981 253.529L318.863 253.865C320.088 254.092 321.306 254.382 322.492 254.726C326.484 255.969 330.395 257.458 334.201 259.186C338.049 260.837 341.897 262.512 345.863 263.881C349.828 265.302 353.936 266.289 358.115 266.823C359.497 266.98 360.879 267.081 362.261 267.105C362.465 267.105 362.662 267.105 362.866 267.105C365.503 267.147 368.136 266.901 370.719 266.369C371.752 266.142 372.769 265.852 373.766 265.501L375.227 264.875C375.471 264.765 375.714 264.679 375.95 264.554L376.649 264.178C377.721 263.634 378.75 263.009 379.727 262.308L380.135 262.019C380.732 261.588 381.321 261.135 381.902 260.673C385.106 257.954 388.041 254.936 390.667 251.659C391.19 251.017 391.714 250.368 392.237 249.71C392.19 249.507 392.143 249.288 392.096 249.077ZM382.232 214.452C381.683 214.585 381.133 214.71 380.583 214.82L379.052 215.117C378.541 215.211 378.023 215.243 377.481 215.313L375.91 215.493L374.34 215.556C372.266 215.689 370.183 215.579 368.135 215.227C364.923 214.674 361.81 213.648 358.9 212.183L358.115 211.8C357.565 211.518 357.023 211.221 356.489 210.915C352.894 208.812 349.521 206.353 346.421 203.576L346.075 203.92C349.204 206.727 352.606 209.217 356.23 211.354C356.607 211.573 357.015 211.784 357.376 211.987L358.162 212.379C361.267 214.002 364.604 215.139 368.057 215.751C372.843 216.42 377.713 216.155 382.397 214.969C382.366 214.797 382.295 214.624 382.232 214.452ZM376.641 203.146C372.47 205.933 368.019 208.28 363.361 210.149C361.671 210.804 359.943 211.356 358.185 211.8L357.447 211.987C355.406 212.46 353.332 212.782 351.243 212.95L349.672 213.052C349.154 213.091 348.635 213.052 348.101 213.052H346.531L344.96 212.926C343.068 212.817 341.193 212.505 339.368 211.995C339.259 212.144 339.149 212.293 339.046 212.449C345.319 214.018 351.886 213.994 358.146 212.379L358.931 212.183C360.498 211.77 362.04 211.268 363.549 210.681C368.232 208.799 372.706 206.439 376.9 203.638L376.641 203.146ZM400.13 299.022C399.345 299.022 398.497 299.092 397.68 299.116H397.617L397.138 299.155C393.113 299.575 389.202 300.734 385.601 302.574C383.025 303.915 380.564 305.464 378.243 307.207H378.738C380.952 305.573 383.295 304.118 385.743 302.856C389.374 301.009 393.323 299.859 397.381 299.468H397.672H397.861C398.646 299.468 399.384 299.382 400.138 299.39C400.154 299.249 400.146 299.139 400.13 299.022ZM400.539 302.621C399.685 301.541 398.803 300.48 397.892 299.437C397.806 299.327 397.711 299.225 397.617 299.124L397.295 298.748C394.551 295.562 391.395 292.751 387.91 290.391C386.142 289.241 384.237 288.314 382.24 287.629C381.745 287.465 381.227 287.324 380.724 287.183C380.222 287.042 379.696 286.933 379.154 286.862C378.117 286.667 377.057 286.651 376.012 286.549C371.79 286.396 367.578 287.063 363.612 288.513C359.682 290.002 355.929 291.917 352.421 294.225C346.138 298.255 340.413 302.997 334.295 307.207H334.554C340.641 303.067 346.334 298.412 352.554 294.468C356.05 292.176 359.79 290.279 363.706 288.811C367.633 287.378 371.802 286.722 375.981 286.878C377.01 286.987 378.062 287.003 379.083 287.199C379.601 287.269 380.096 287.418 380.607 287.52C381.117 287.621 381.612 287.793 382.099 287.958C384.067 288.637 385.942 289.557 387.683 290.696C391.138 293.041 394.262 295.836 396.973 299.006C397.02 299.061 397.067 299.108 397.107 299.163L397.381 299.468C398.481 300.743 399.557 302.042 400.593 303.38C400.601 303.13 400.57 302.887 400.523 302.621H400.539Z" fill="white"/>
<path d="M339.667 208.709C320.23 231.111 294.031 270.681 304.735 279.429C322.334 293.811 373.735 302.12 385.531 303.513C390.62 304.124 400.813 270.978 397.413 266.69C394.012 262.402 339.667 259.374 339.298 256.048C339.086 254.163 347.34 237.762 352.649 217.645C358.751 194.452 345.141 202.394 339.667 208.709Z" fill="#EB9481"/>
<path d="M388.507 263.959C388.507 263.959 404.104 263.842 414.305 264.241C419.999 264.46 429.722 265.712 433.829 267.786C439.97 270.877 463.672 287.739 459.698 293.553C456.093 298.811 437.575 281.753 437.575 281.753C437.575 281.753 457.79 297.324 452.284 302.88C446.779 308.435 428.426 286.385 428.426 286.385C428.426 286.385 448.845 302.817 442.256 307.668C437.277 311.307 419.528 292.277 419.528 292.277C419.528 292.277 436.97 306.542 432.015 310.509C426.517 314.891 409.044 298.349 409.044 298.349C394.751 306.315 384.698 304.28 377.63 301.988C375.973 301.401 388.507 263.959 388.507 263.959Z" fill="#EB9481"/>
<path d="M430.931 275.923C433.374 277.668 435.855 279.413 438.133 281.401C440.41 283.388 442.617 285.383 444.706 287.543C449.819 292.832 452.19 296.933 452.01 296.698C447.894 291.072 439.853 283.959 437.575 282.003C435.298 280.047 433.122 277.989 430.853 276.041C430.798 275.954 430.876 275.884 430.931 275.923Z" fill="#263238"/>
<path d="M423.706 283.991C426.722 286.338 429.808 288.576 432.722 291.072C435.635 293.568 439.578 297.167 442.303 299.844C442.507 300.047 442.303 300.438 442.083 300.243C439.256 297.676 435.054 294.171 432.196 291.635C429.337 289.1 426.58 286.463 423.643 284.045C423.596 284.038 423.659 283.951 423.706 283.991Z" fill="#263238"/>
<path d="M416.23 289.796C421.028 293.169 425.198 297.418 429.188 301.682C429.392 301.893 429.188 301.925 428.936 301.721C424.703 297.692 421.405 294.499 416.112 289.984C416.049 289.89 416.151 289.726 416.23 289.796Z" fill="#263238"/>
<path d="M386.316 263.466C393.431 263.419 414.329 263.365 421.429 263.912C427.711 264.39 432.887 265.736 438.156 269.21C449.465 276.659 456.753 285.407 458.575 287.989C459.675 289.554 461.269 292.081 459.816 293.834C458.033 295.962 451.476 293.881 444.557 287.645C444.305 287.418 444.463 287.277 444.722 287.488C454.436 295.313 458.3 294.421 459.313 293.083C459.973 292.214 459.313 290.736 458.748 289.562C457.802 287.901 456.646 286.368 455.308 285C450.846 280.244 445.909 275.952 440.575 272.191C434.86 267.941 428.052 265.393 420.942 264.844C413.669 264.249 393.549 264.437 386.285 263.74C386.135 263.693 386.159 263.474 386.316 263.466Z" fill="#263238"/>
<path d="M453.439 299.749C453.038 297.817 451.641 296.048 450.533 294.452C449.188 292.443 447.644 290.574 445.923 288.873C445.853 288.803 445.719 288.873 445.79 288.983C447.255 290.689 448.616 292.481 449.866 294.35C450.53 295.378 451.133 296.444 451.672 297.543C452.182 298.599 452.787 299.82 452.52 301.025C452.018 303.325 449.08 303.27 447.345 302.652C446.22 302.231 445.137 301.707 444.109 301.087C442.709 300.198 441.38 299.202 440.135 298.106C440.033 298.012 439.751 298.051 439.86 298.153C442.452 300.61 447.36 305.72 451.366 303.85C452.134 303.511 452.761 302.917 453.139 302.169C453.518 301.422 453.623 300.566 453.439 299.749V299.749Z" fill="#263238"/>
<path d="M388.743 261.948L370.06 304.202C370.06 304.202 304.766 289.515 300.981 277.167C297.196 264.82 317.654 231.784 336.117 211.158C354.274 190.892 356.96 204.64 352.444 220.313C347.929 235.986 340.523 254.053 341.348 255.407C342.172 256.761 388.743 261.948 388.743 261.948Z" fill="#00D2CB"/>
<path d="M345.549 241.314C345.502 241.432 345.463 241.557 345.416 241.674C341.789 239.897 337.945 238.597 333.981 237.809C331.929 237.444 329.841 237.329 327.761 237.465C327.243 237.465 326.732 237.574 326.191 237.645C325.649 237.715 325.17 237.801 324.667 237.942C323.646 238.161 322.68 238.552 321.683 238.857C317.834 240.316 314.304 242.5 311.285 245.289L311.78 244.436C314.66 241.903 317.974 239.907 321.565 238.544C322.57 238.231 323.552 237.832 324.588 237.613C325.099 237.472 325.625 237.41 326.159 237.3C326.693 237.191 327.204 237.159 327.73 237.12C329.83 236.98 331.94 237.093 334.012 237.457C338.01 238.237 341.888 239.534 345.549 241.314V241.314ZM380.104 262.026L379.656 261.76L377.866 260.704L376.782 260.579C377.567 261.072 378.423 261.573 379.248 262.05L379.696 262.316C382.052 263.685 384.408 265 386.827 266.228L387.015 265.798C384.69 264.601 382.389 263.341 380.104 262.026ZM367.358 259.436C366.887 260.219 366.408 261.001 365.921 261.745C364.861 263.419 363.753 265.07 362.575 266.666C362.465 266.815 362.363 266.964 362.253 267.105C361.061 268.709 359.776 270.242 358.405 271.698C356.976 273.209 355.397 274.572 353.693 275.767L353.057 276.213C352.845 276.361 352.609 276.479 352.389 276.612L351.046 277.394C350.121 277.859 349.166 278.265 348.188 278.607C344.226 279.918 340.079 280.586 335.905 280.587C331.751 280.569 327.611 280.099 323.56 279.186C319.468 278.317 315.455 277.136 311.426 275.97C307.853 274.937 304.256 273.896 300.581 273.216C300.581 273.341 300.581 273.466 300.581 273.584C304.217 274.264 307.774 275.313 311.332 276.338C315.353 277.512 319.382 278.685 323.489 279.585C327.594 280.518 331.789 281.001 335.999 281.025C340.221 281.027 344.415 280.356 348.423 279.037C349.424 278.695 350.4 278.284 351.345 277.809L352.719 277.026C352.952 276.903 353.177 276.767 353.395 276.619L354.046 276.166C355.777 274.959 357.379 273.58 358.829 272.05C360.291 270.491 361.66 268.847 362.929 267.128C363.046 266.979 363.149 266.839 363.251 266.69C364.366 265.172 365.418 263.615 366.392 262.034C366.926 261.205 367.444 260.36 367.963 259.522L367.358 259.436ZM380.646 261.001C380.324 261.252 379.994 261.502 379.656 261.737L379.248 262.026C378.339 262.665 377.386 263.241 376.397 263.748L375.714 264.116C375.486 264.241 375.235 264.327 374.999 264.436L373.57 265.047C372.596 265.397 371.599 265.682 370.586 265.9C368.152 266.419 365.669 266.681 363.18 266.682H362.575C361.099 266.682 359.622 266.565 358.154 266.408C354.009 265.888 349.935 264.915 346.005 263.505C342.078 262.152 338.206 260.485 334.358 258.81C330.528 257.084 326.594 255.597 322.578 254.358C318.549 253.208 314.253 252.582 310.083 253.396C308.757 253.661 307.472 254.106 306.266 254.718C306.188 254.875 306.109 255.039 306.039 255.195C307.329 254.51 308.713 254.014 310.146 253.724C314.246 252.942 318.486 253.552 322.476 254.702C326.468 255.945 330.379 257.435 334.185 259.163C338.033 260.814 341.882 262.488 345.848 263.857C349.816 265.288 353.929 266.282 358.115 266.823C359.497 266.979 360.879 267.081 362.261 267.105C362.465 267.105 362.662 267.105 362.866 267.105C365.503 267.147 368.136 266.901 370.719 266.369C371.752 266.142 372.769 265.852 373.766 265.501L375.227 264.875C375.471 264.765 375.714 264.679 375.95 264.554L376.649 264.178C377.721 263.634 378.75 263.008 379.727 262.308L380.135 262.019C380.544 261.721 380.921 261.408 381.361 261.095L380.646 261.001ZM346.452 203.537C346.115 203.239 345.785 202.95 345.455 202.645L345.031 202.918L346.13 203.896C348.687 206.178 351.418 208.257 354.298 210.117C354.298 209.922 354.298 209.726 354.298 209.538C351.541 207.744 348.924 205.745 346.468 203.56L346.452 203.537ZM351.227 212.926L349.656 213.028C349.138 213.067 348.62 213.028 348.086 213.028H346.515L344.944 212.903C342.868 212.779 340.812 212.417 338.819 211.823C337.947 211.565 337.083 211.267 336.235 210.923L336.047 211.134L335.866 211.338C336.781 211.72 337.717 212.052 338.67 212.332C343.644 213.655 348.838 213.942 353.929 213.177C353.929 212.981 353.984 212.793 354.015 212.598C353.143 212.77 352.193 212.879 351.243 212.95L351.227 212.926ZM376.012 286.526C371.789 286.379 367.577 287.054 363.612 288.513C359.682 290.002 355.929 291.917 352.421 294.225C350.457 295.493 348.541 296.823 346.649 298.192L346.955 298.278C348.793 296.956 350.654 295.681 352.562 294.468C356.058 292.176 359.798 290.279 363.714 288.81C367.641 287.378 371.81 286.722 375.989 286.878C376.531 286.932 377.073 286.964 377.614 287.011L377.764 286.682C377.206 286.635 376.609 286.604 376.028 286.549L376.012 286.526Z" fill="white"/>
<path d="M362.567 297.215C363.204 296.01 363.816 294.805 364.429 293.592C365.659 291.135 366.884 288.673 368.104 286.205C370.523 281.307 372.816 276.346 375.023 271.338C376.287 268.506 377.662 265.704 378.8 262.817C378.814 262.788 378.815 262.755 378.804 262.725C378.793 262.695 378.771 262.67 378.741 262.657C378.712 262.643 378.679 262.642 378.649 262.653C378.619 262.664 378.594 262.686 378.58 262.715C377.222 265.102 376.044 267.598 374.787 270.047C373.531 272.496 372.251 274.922 371.041 277.395C368.633 282.293 366.298 287.23 364.036 292.207C363.4 293.6 362.709 294.977 362.135 296.401C361.837 297.129 361.491 297.833 361.201 298.568C360.91 299.304 360.69 300.055 360.416 300.783C360.412 300.79 360.41 300.799 360.41 300.807C360.409 300.816 360.41 300.824 360.413 300.832C360.416 300.84 360.421 300.848 360.427 300.854C360.432 300.86 360.439 300.865 360.447 300.869C360.455 300.872 360.463 300.874 360.472 300.875C360.48 300.875 360.489 300.874 360.497 300.871C360.505 300.868 360.512 300.864 360.518 300.858C360.525 300.852 360.53 300.845 360.533 300.838C361.169 299.625 361.916 298.451 362.567 297.215Z" fill="#263238"/>
<path d="M371.465 301.299L370.154 304.257L370.114 304.351H369.989C363.808 303.209 357.667 301.839 351.565 300.313C345.463 298.788 339.408 297.058 333.416 295.134C327.402 293.24 321.505 290.998 315.753 288.42C312.867 287.126 310.08 285.625 307.413 283.929C306.082 283.064 304.824 282.093 303.651 281.026C302.442 279.992 301.515 278.671 300.958 277.184C301.652 278.58 302.666 279.794 303.918 280.728C305.158 281.677 306.474 282.522 307.853 283.256C310.581 284.766 313.397 286.112 316.287 287.285C322.06 289.672 327.989 291.706 333.95 293.616C339.91 295.525 345.926 297.301 351.957 299.007C357.989 300.713 364.044 302.403 370.107 304.022L369.95 304.101L371.465 301.299Z" fill="#263238"/>
<path d="M387.997 263.592L388.649 261.909L388.719 262.027C382.169 261.596 375.628 261.072 369.086 260.391C362.544 259.71 356.041 258.967 349.539 257.997C347.913 257.746 346.287 257.48 344.662 257.167C343.876 257.003 343.036 256.847 342.196 256.612C341.984 256.549 341.779 256.487 341.552 256.401C341.421 256.358 341.295 256.303 341.175 256.236C341.083 256.187 340.996 256.13 340.916 256.064C340.831 255.993 340.759 255.909 340.704 255.814C340.672 255.753 340.643 255.69 340.617 255.626C340.613 255.595 340.613 255.563 340.617 255.532C340.586 255.234 340.602 254.933 340.664 254.64C340.704 254.429 340.743 254.202 340.798 254.006C341.63 250.759 342.683 247.692 343.751 244.617C345.887 238.427 348.211 232.316 350.662 226.244C348.769 232.504 346.829 238.764 344.897 245.023C343.971 248.153 342.95 251.283 342.235 254.413C342.188 254.609 342.164 254.789 342.125 254.977C342.086 255.164 342.125 255.383 342.086 255.305C342.046 255.227 342.086 255.305 342.086 255.305C342.077 255.264 342.061 255.224 342.039 255.188C342.039 255.11 341.897 255.031 341.929 255.047C341.96 255.063 341.889 255.047 341.929 255.047L342.125 255.125L342.643 255.29C343.429 255.493 344.214 255.642 344.999 255.798C346.57 256.088 348.211 256.338 349.821 256.581C353.057 257.066 356.298 257.522 359.544 257.95L369.29 259.257C375.785 260.117 382.279 261.041 388.774 261.987H388.892L388.845 262.089L387.997 263.592Z" fill="#263238"/>
<path d="M351.361 230.25C350.9 231.354 350.318 232.404 349.625 233.38C348.974 234.379 348.18 235.278 347.269 236.048C347.866 235.007 348.502 234.022 349.177 233.043C349.833 232.058 350.563 231.125 351.361 230.25V230.25Z" fill="#263238"/>
<path d="M370.389 215.799C364.845 217.364 354.855 209.281 350.756 202.544C350.473 202.082 351.588 183.052 351.416 179.257C351.416 178.475 375.557 183.952 375.557 183.952C375.557 183.952 373.57 192.011 373.916 198.623C373.939 199.187 375.738 214.281 370.389 215.799Z" fill="#EB9481"/>
<path d="M351.046 191.174C362.348 199.124 373.358 196.072 373.821 195.932C374.007 191.898 374.567 187.89 375.494 183.96C375.494 183.96 351.306 178.483 351.345 179.265C351.486 181.041 351.29 186.174 351.046 191.174Z" fill="#263238"/>
<path d="M375.439 168.279C376.06 173.897 380.575 178.013 385.515 177.465C390.455 176.918 393.965 171.933 393.368 166.323C392.772 160.713 388.24 156.589 383.292 157.137C378.345 157.684 374.819 162.669 375.439 168.279Z" fill="#455A64"/>
<path d="M372.58 168.952C373.272 175.211 378.29 179.773 383.787 179.171C389.285 178.568 393.211 173.02 392.497 166.769C391.782 160.517 386.795 155.947 381.29 156.549C375.785 157.152 371.889 162.707 372.58 168.952Z" fill="#C7C7C7"/>
<path d="M348.07 150.665C345.431 159.1 349.758 183.529 355.751 189.006C364.444 196.949 378.753 197.786 385.539 187.363C392.12 177.254 385.915 145.524 379.209 140.54C369.337 133.185 351.965 138.216 348.07 150.665Z" fill="#EB9481"/>
<path d="M368.442 166.002C368.442 165.947 368.332 166.103 368.347 166.174C368.709 167.801 368.858 169.734 367.476 170.563C367.429 170.563 367.476 170.673 367.476 170.65C369.274 170.047 369.054 167.488 368.442 166.002Z" fill="#263238"/>
<path d="M366.643 164.57C363.957 164.875 364.766 170.212 367.256 169.93C369.745 169.648 368.897 164.32 366.643 164.57Z" fill="#263238"/>
<path d="M377.976 164.718C377.976 164.656 378.117 164.781 378.125 164.851C378.321 166.51 378.832 168.372 380.41 168.701C380.457 168.701 380.473 168.795 380.41 168.795C378.533 168.811 377.897 166.322 377.976 164.718Z" fill="#263238"/>
<path d="M379.193 162.755C381.832 162.152 382.845 167.45 380.402 168.013C377.96 168.576 376.963 163.279 379.193 162.755Z" fill="#263238"/>
<path d="M364.162 162.449C364.835 162.14 365.491 161.792 366.125 161.409C366.867 161.139 367.499 160.633 367.923 159.969C368.015 159.734 368.027 159.475 367.956 159.233C367.885 158.991 367.735 158.78 367.531 158.631C367.084 158.397 366.582 158.287 366.078 158.312C365.574 158.337 365.086 158.496 364.664 158.772C363.718 159.197 362.964 159.959 362.552 160.908C362.469 161.129 362.453 161.37 362.506 161.601C362.559 161.831 362.678 162.041 362.849 162.205C363.02 162.368 363.236 162.479 363.469 162.522C363.702 162.566 363.943 162.54 364.162 162.449V162.449Z" fill="#263238"/>
<path d="M380.889 159.773C380.148 159.737 379.408 159.661 378.675 159.546C377.886 159.576 377.111 159.345 376.468 158.889C376.291 158.706 376.181 158.47 376.154 158.218C376.127 157.966 376.185 157.712 376.319 157.496C376.648 157.113 377.072 156.824 377.549 156.658C378.027 156.492 378.539 156.454 379.036 156.549C380.072 156.592 381.055 157.019 381.792 157.746C381.951 157.921 382.055 158.137 382.092 158.368C382.129 158.6 382.098 158.838 382.002 159.052C381.907 159.267 381.751 159.449 381.553 159.577C381.356 159.705 381.125 159.773 380.889 159.773V159.773Z" fill="#263238"/>
<path d="M369.353 181.487C369.808 181.816 370.287 182.27 370.923 182.27C371.538 182.166 372.125 181.934 372.643 181.589C372.653 181.578 372.666 181.57 372.681 181.569C372.696 181.567 372.71 181.572 372.722 181.581C372.733 181.59 372.741 181.604 372.742 181.619C372.743 181.633 372.739 181.648 372.73 181.659C372.543 182.021 372.261 182.326 371.914 182.54C371.566 182.753 371.167 182.868 370.758 182.872C370.408 182.837 370.075 182.698 369.804 182.474C369.533 182.249 369.335 181.949 369.235 181.612C369.164 181.534 369.282 181.44 369.353 181.487Z" fill="#263238"/>
<path d="M370.342 176.283C370.862 176.872 371.499 177.348 372.213 177.681C372.926 178.013 373.701 178.195 374.489 178.216C375.179 178.243 375.869 178.172 376.539 178.004C376.668 177.981 376.794 177.944 376.916 177.895C377.035 177.864 377.153 177.828 377.269 177.785C377.355 177.756 377.429 177.7 377.48 177.625C377.531 177.55 377.556 177.461 377.552 177.37V177.37C377.547 177.314 377.534 177.259 377.512 177.206V177.206V177.065C377.347 175.79 376.931 173.873 376.931 173.873C377.434 174.037 379.978 174.741 379.837 174.084C378.675 168.607 377.379 162.566 375.062 157.394C375.046 157.36 375.019 157.333 374.985 157.317C374.951 157.301 374.912 157.298 374.876 157.309C374.84 157.319 374.808 157.342 374.788 157.374C374.767 157.405 374.759 157.443 374.764 157.48C375.675 162.762 377.512 167.848 378.518 173.129C377.612 172.865 376.673 172.731 375.73 172.73C375.557 172.809 376.601 176.416 376.625 176.995C376.63 177.015 376.63 177.037 376.625 177.057C374.52 177.652 372.808 177.253 370.507 176.134C370.334 176.056 370.224 176.165 370.342 176.283Z" fill="#263238"/>
<path d="M375.683 177.473C375.124 178.485 374.313 179.337 373.327 179.945C372.776 180.258 372.143 180.394 371.512 180.336C370.138 180.188 369.942 178.983 370.005 177.911C370.057 177.341 370.175 176.779 370.358 176.236C371.956 177.203 373.821 177.636 375.683 177.473V177.473Z" fill="#263238"/>
<path d="M373.319 179.969C372.768 180.281 372.135 180.418 371.505 180.36C370.13 180.212 369.934 179.007 369.997 177.935C371.465 177.841 372.989 178.592 373.319 179.969Z" fill="#FF99BA"/>
<path opacity="0.2" d="M352.091 159.343C351.125 161.769 349.138 167.465 348.007 167.864C346.931 159.946 346.892 152.763 348.863 148.349C349.678 146.527 350.823 144.869 352.24 143.459C352.405 145.579 353.12 156.808 352.091 159.343Z" fill="#263238"/>
<path d="M373.334 148.02C372.662 149.182 371.702 150.151 370.545 150.836C369.389 151.521 368.075 151.899 366.73 151.933C365.36 151.968 364.005 151.655 362.791 151.022C361.578 150.39 360.546 149.459 359.795 148.318C359.791 148.31 359.785 148.304 359.779 148.299C359.772 148.294 359.765 148.29 359.757 148.288C359.749 148.286 359.74 148.285 359.732 148.286C359.724 148.287 359.716 148.29 359.709 148.294C359.702 148.298 359.695 148.304 359.69 148.31C359.685 148.317 359.681 148.324 359.679 148.332C359.677 148.34 359.676 148.349 359.677 148.357C359.678 148.365 359.681 148.373 359.685 148.38C360.368 149.654 361.388 150.717 362.634 151.455C363.879 152.193 365.304 152.577 366.753 152.566C368.173 152.487 369.546 152.036 370.736 151.26C371.926 150.484 372.89 149.41 373.531 148.146C373.547 148.12 373.553 148.088 373.546 148.058C373.54 148.028 373.521 148.002 373.495 147.985C373.469 147.969 373.438 147.963 373.408 147.969C373.377 147.976 373.351 147.994 373.334 148.02Z" fill="#263238"/>
<path d="M389.717 135.43C388.585 133.351 386.752 131.738 384.541 130.876C381.478 129.671 378.408 130.477 375.368 131.346C375.352 131.346 375.336 131.352 375.324 131.364C375.312 131.376 375.306 131.392 375.306 131.408C375.306 131.425 375.312 131.441 375.324 131.452C375.336 131.464 375.352 131.471 375.368 131.471C377.952 130.743 380.622 130.156 383.261 130.954C385.445 131.605 387.337 132.987 388.617 134.867C389.866 136.813 390.37 139.142 390.036 141.428C389.703 143.714 388.556 145.804 386.803 147.316C385.77 148.16 384.575 148.786 383.29 149.153C382.006 149.52 380.66 149.622 379.334 149.452C379.232 149.452 379.185 149.593 379.295 149.609C381.099 149.913 382.953 149.711 384.648 149.024C386.343 148.338 387.812 147.194 388.89 145.721C389.969 144.248 390.614 142.505 390.753 140.687C390.892 138.869 390.519 137.049 389.677 135.43H389.717Z" fill="#263238"/>
<path d="M347.355 155.54C347.355 155.54 341.677 148.271 344.426 143.02C345.997 140.039 352.759 139.218 352.759 139.218C352.759 139.218 354.329 135.767 359.677 133.529C365.026 131.291 372.243 132.606 372.243 132.606C372.243 132.606 377.041 128.631 382.539 130.603C390.204 133.357 391.177 144.085 384.769 148.701C380.261 151.948 372.816 148.772 372.816 148.772C372.188 148.967 366.298 154.069 360.298 149.085C360.298 149.085 356.882 153.373 352.806 151.495C352.42 152.642 351.691 153.645 350.717 154.368C349.743 155.092 348.57 155.5 347.355 155.54V155.54Z" fill="#263238"/>
<path d="M353.183 170.579C353.183 170.579 347.536 162.754 343.971 164.781C340.405 166.807 344.756 178.176 348.965 179.648C349.494 179.879 350.064 180.002 350.642 180.009C351.219 180.016 351.792 179.906 352.326 179.687C352.86 179.468 353.344 179.143 353.749 178.733C354.154 178.323 354.471 177.836 354.683 177.3L353.183 170.579Z" fill="#EB9481"/>
<path d="M345.29 168.021C345.219 168.021 345.211 168.107 345.29 168.13C348.266 169.288 349.861 171.995 350.992 174.812C350.096 173.733 348.895 173.154 347.442 174.218C347.363 174.272 347.442 174.39 347.52 174.374C348.038 174.21 348.593 174.208 349.112 174.369C349.63 174.53 350.086 174.846 350.418 175.274C350.977 176.002 351.454 176.789 351.84 177.621C351.981 177.88 352.452 177.731 352.35 177.434V177.363C352.35 173.56 349.342 168.341 345.29 168.021Z" fill="#263238"/>
<path d="M348.478 165.102C348.478 165.102 345.423 152.974 347.803 145.54C350.45 137.277 360.431 129.187 372.227 132.622C372.227 132.622 359.135 134.304 352.774 145.204C349.853 150.212 352.656 164.672 352.656 164.672L348.478 165.102Z" fill="#C7C7C7"/>
<path d="M361.154 169.186C362.347 175.446 358.868 181.346 353.371 182.394C347.874 183.443 342.439 179.264 341.238 173.005C340.036 166.745 343.523 160.845 349.02 159.796C354.518 158.748 359.952 162.942 361.154 169.186Z" fill="#C7C7C7"/>
<path d="M358.185 169.39C359.261 175 356.128 180.344 351.188 181.26C346.248 182.175 341.363 178.404 340.287 172.801C339.211 167.199 342.337 161.847 347.277 160.931C352.217 160.016 357.101 163.772 358.185 169.39Z" fill="#455A64"/>
<path d="M46.5706 307.207H142.9L123.691 195.885H51.6596L46.5706 307.207Z" fill="#DBDBDB"/>
<path d="M46.5706 307.207H55.013L59.7565 195.885H51.6596L46.5706 307.207Z" fill="#A6A6A6"/>
<path d="M103.665 147.332C94.7197 156.197 92.1517 170.806 92.1517 170.806C92.1517 170.806 83.5758 185.509 85.9711 193.498C86.6046 195.763 87.7802 197.841 89.397 199.554C91.0138 201.267 93.0235 202.564 95.2538 203.333L94.4056 198.92C94.4056 198.92 97.2799 204.593 106.885 206.878C116.489 209.163 129.196 206.221 135.809 202.887C139.728 200.933 143.072 198 145.515 194.374L143.042 200.79C143.042 200.79 152.364 200.462 157.9 190.579C163.437 180.697 147.534 166.495 146.183 163.435C144.832 160.376 143.12 138.083 119.584 141.925C119.615 141.87 109.853 141.229 103.665 147.332Z" fill="#263238"/>
<path d="M91.8847 202.7C89.4344 200.877 87.0156 198.788 85.6648 196.206C84.1918 193.529 83.6688 190.436 84.1805 187.426C84.8323 183.819 86.7407 180.635 88.5941 177.528C90.4475 174.422 92.6778 171.268 94.5391 168.005C94.6412 167.825 94.3663 167.677 94.2407 167.818C92.1494 170.265 90.1987 172.827 88.3977 175.494C86.5553 177.932 85.0055 180.576 83.78 183.373C82.6345 185.949 82.2582 188.798 82.6962 191.581C83.1595 193.843 84.1674 195.959 85.6334 197.747C87.369 199.899 89.5601 201.276 91.759 202.896C91.8847 202.998 92.0182 202.802 91.8847 202.7Z" fill="#263238"/>
<path d="M159.919 180.36C157.091 172.152 149.709 166.941 145.178 159.781C142.743 155.908 140.851 151.62 137.678 148.256C137.591 148.162 137.434 148.31 137.513 148.404C140.12 151.432 141.628 155.079 143.513 158.576C145.521 162.018 147.868 165.253 150.518 168.232C155.183 173.803 160.767 180.399 159.699 188.201C159.204 191.8 157.068 195.791 153.361 196.91C153.22 196.957 153.306 197.191 153.447 197.129C154.909 196.544 156.236 195.669 157.348 194.556C158.459 193.443 159.331 192.117 159.911 190.658C161.16 187.339 161.163 183.681 159.919 180.36Z" fill="#263238"/>
<path d="M160.256 182.567C160.511 179.458 159.792 176.347 158.199 173.663C156.573 171.018 154.021 169.109 151.468 167.403C148.523 165.454 145.421 163.6 143.552 160.509C143.474 160.376 143.285 160.509 143.356 160.642C146.324 165.744 151.995 168.123 155.788 172.418C160.146 177.325 160.154 184.469 157.154 190.079C155.248 193.499 152.557 196.421 149.301 198.608C149.246 198.608 149.301 198.725 149.364 198.686C154.916 195.055 159.809 189.469 160.256 182.567Z" fill="#263238"/>
<path d="M124.665 219.962C148.5 232.998 177.031 249.359 194.513 245.509C202.264 243.804 237.07 198.342 238.547 193.084C239.811 188.569 208.295 170.392 204.777 173.952C198.84 179.922 182.788 213.537 180.432 214.101C178.076 214.664 158.065 210.619 137.238 206.871C117.196 203.287 108.118 210.916 124.665 219.962Z" fill="#EB9481"/>
<path d="M235.162 198.748C237.879 195.337 248.968 178.608 251.002 173.263C253.036 167.919 257.795 152.136 253.853 150.149C249.911 148.161 248.167 152.661 248.167 152.661C248.167 152.661 249.117 145.673 244.963 144.054C240.808 142.434 238.295 149.531 238.295 149.531C238.295 149.531 238.743 142.285 234.479 140.924C230.214 139.562 228.895 147.183 228.895 147.183C228.895 147.183 229.617 140.579 225.644 140.924C220.869 141.385 220.932 153.717 218.23 159.445C217.617 160.744 203.929 184.938 203.929 184.938L235.162 198.748Z" fill="#EB9481"/>
<path d="M228.989 146.565C228.989 155.634 227.418 159.609 222.706 167.168C222.612 167.309 222.808 167.481 222.926 167.34C228.267 160.36 230.952 155.666 229.46 146.542C229.358 146.096 228.989 146.135 228.989 146.565Z" fill="#263238"/>
<path d="M238.248 148.819C237.463 158.209 235.782 162.559 231.377 170.845C231.314 170.963 231.51 171.08 231.581 170.963C236.583 163.201 239.159 158.443 238.719 148.936C238.743 148.506 238.288 148.388 238.248 148.819Z" fill="#263238"/>
<path d="M247.9 153.076C246.463 162.137 244.845 166.957 239.536 174.453C239.522 174.47 239.512 174.489 239.505 174.51C239.499 174.531 239.497 174.553 239.499 174.575C239.501 174.597 239.508 174.618 239.518 174.637C239.529 174.657 239.543 174.674 239.56 174.688C239.577 174.701 239.596 174.712 239.617 174.718C239.638 174.724 239.661 174.727 239.682 174.724C239.704 174.722 239.726 174.716 239.745 174.705C239.764 174.695 239.781 174.681 239.795 174.664C245.96 167.544 248.026 161.55 248.175 153.146C248.167 152.583 247.994 152.504 247.9 153.076Z" fill="#263238"/>
<path d="M197.183 187.676C197.183 187.676 196.515 176.338 197.332 171.291C198.149 166.245 208.115 148.545 212.042 150.47C217.154 152.966 213.416 164.312 210.856 169.633C210.856 169.633 222.683 175.376 221.772 184.101C220.861 192.825 197.183 187.676 197.183 187.676Z" fill="#EB9481"/>
<path d="M213.251 151.612C216.267 157.238 212.466 164.006 210.361 169.351C210.327 169.428 210.311 169.512 210.317 169.597C210.322 169.681 210.348 169.763 210.392 169.835C210.436 169.907 210.497 169.968 210.569 170.012C210.642 170.055 210.724 170.081 210.809 170.086C215.607 172.825 221.576 178.083 222.086 183.873C222.086 183.909 222.1 183.943 222.125 183.968C222.15 183.992 222.184 184.006 222.22 184.006C222.255 184.006 222.289 183.992 222.314 183.968C222.339 183.943 222.353 183.909 222.353 183.873C222.651 177.614 217.209 171.949 211.767 169.28C213.997 163.803 217.523 156.878 213.337 151.581C213.282 151.557 213.235 151.581 213.251 151.612Z" fill="#263238"/>
<path d="M174.761 212.246L146.073 236.205C146.073 236.205 128.56 227.128 115.625 216.698C102.691 206.268 117.015 201.197 139.225 204.914C161.434 208.631 174.761 212.246 174.761 212.246Z" fill="#00D2CB"/>
<path d="M140.78 217.058C139.967 215.952 139.026 214.946 137.976 214.061C139.138 216.548 140.816 218.762 142.9 220.555C142.337 219.309 141.625 218.134 140.78 217.058V217.058ZM115.649 216.713L115.995 216.979C116.222 216.737 116.45 216.479 116.662 216.197C116.301 216.361 115.963 216.533 115.633 216.745L115.649 216.713ZM163.672 216.87C162.315 216.671 160.94 216.629 159.573 216.745C160.855 217.227 162.188 217.56 163.547 217.738C164.903 217.944 166.279 217.988 167.646 217.872C166.36 217.385 165.021 217.049 163.657 216.87H163.672ZM154.068 207.605C154.05 208.128 154.068 208.651 154.123 209.17C154.314 208.701 154.477 208.22 154.61 207.731L154.068 207.605Z" fill="white"/>
<path d="M139.649 231.088C145.484 225.501 151.72 220.313 158.042 215.258C159.832 213.834 161.654 212.441 163.539 211.103C163.594 211.064 163.665 211.103 163.61 211.174C160.641 213.905 157.555 216.51 154.484 219.132C151.413 221.753 148.303 224.374 145.154 226.917C143.371 228.357 141.597 229.797 139.79 231.197C139.68 231.252 139.578 231.158 139.649 231.088Z" fill="#263238"/>
<path d="M158.261 226.026L146.065 236.198C146.065 236.198 128.552 227.129 115.618 216.699C111.023 212.997 109.869 209.977 111.275 207.778L158.261 226.026Z" fill="#263238"/>
<path d="M152.356 307.113H60.9344C60.9344 307.113 80.7957 230.689 99.1805 209.171C99.5888 208.678 100.013 208.208 100.437 207.77C100.523 207.668 100.602 207.598 100.688 207.512C102.112 205.997 103.769 204.719 105.597 203.725C105.919 203.553 106.241 203.388 106.578 203.247C113.646 200 121.139 202.692 126.534 207.293C128.246 208.748 147.628 233.897 149.309 243.451C150.793 251.909 145.06 260.994 145.06 260.994L152.356 307.113Z" fill="#00D2CB"/>
<path d="M131.364 257.723C127.471 258.101 123.612 258.768 119.819 259.718C117.934 260.219 116.097 260.798 114.251 261.416C113.332 261.729 112.413 262.011 111.487 262.285C110.522 262.598 109.522 262.792 108.51 262.864C108.492 262.864 108.474 262.871 108.46 262.884C108.447 262.898 108.44 262.916 108.44 262.934C108.44 262.953 108.447 262.971 108.46 262.984C108.474 262.997 108.492 263.005 108.51 263.005C109.469 263.045 110.429 263.019 111.385 262.926C112.304 262.812 113.215 262.634 114.11 262.394C116.026 261.901 117.911 261.33 119.819 260.829C123.667 259.812 127.508 258.795 131.419 258.052C131.462 258.044 131.501 258.02 131.527 257.984C131.553 257.948 131.563 257.903 131.556 257.86C131.549 257.816 131.524 257.777 131.488 257.752C131.452 257.726 131.407 257.716 131.364 257.723V257.723Z" fill="#263238"/>
<path d="M141.023 261.08C137.811 260.773 134.583 260.645 131.356 260.697C129.785 260.736 128.144 260.861 126.534 261.026C125.748 261.112 124.963 261.206 124.241 261.307C123.518 261.409 122.576 261.644 121.735 261.745C121.649 261.745 121.649 261.894 121.735 261.886C122.521 261.816 123.345 261.886 124.146 261.847L126.557 261.761C128.128 261.714 129.769 261.675 131.379 261.605C134.599 261.472 137.811 261.37 141.031 261.339C141.204 261.346 141.188 261.096 141.023 261.08Z" fill="#263238"/>
<path d="M90.4946 227.136C90.0626 226.589 89.6228 226.049 89.1438 225.571L88.8061 226.276C89.1202 226.761 89.4579 227.238 89.8035 227.7C90.6171 228.797 91.5582 229.796 92.6071 230.673C92.0339 229.421 91.3255 228.235 90.4946 227.136V227.136ZM101.105 207.089C100.945 208.311 100.918 209.547 101.026 210.775C101.514 209.492 101.844 208.154 102.008 206.792C102.008 206.589 102.063 206.377 102.086 206.174C101.756 206.463 101.426 206.769 101.105 207.089V207.089ZM128.851 232.551C128.361 233.833 128.024 235.167 127.845 236.526C127.647 237.881 127.603 239.253 127.712 240.618C128.205 239.339 128.537 238.004 128.701 236.643C128.917 235.29 128.967 233.916 128.851 232.551ZM111.377 276.62C110.893 277.897 110.561 279.225 110.387 280.579C110.188 281.934 110.146 283.307 110.262 284.671C111.195 282.095 111.575 279.352 111.377 276.62ZM81.6752 243.349C81.1957 244.635 80.8637 245.971 80.6857 247.332C80.4858 248.684 80.4436 250.055 80.56 251.416C81.0407 250.134 81.3701 248.8 81.5417 247.441C81.7475 246.087 81.7924 244.714 81.6752 243.349V243.349ZM106.256 237.762C104.899 237.564 103.524 237.522 102.157 237.637C103.439 238.119 104.772 238.452 106.131 238.631C107.487 238.836 108.863 238.881 110.23 238.764C108.953 238.268 107.622 237.922 106.264 237.731L106.256 237.762ZM139.146 275.321C137.787 275.122 136.408 275.08 135.039 275.196C137.625 276.126 140.378 276.504 143.12 276.307C141.841 275.824 140.51 275.487 139.154 275.305L139.146 275.321ZM77.7485 271.714C76.4147 271.521 75.0638 271.474 73.7197 271.573H73.6412H73.7119C74.9805 272.039 76.2976 272.362 77.6386 272.535C78.9957 272.734 80.3713 272.776 81.738 272.661C80.4494 272.192 79.1106 271.875 77.7485 271.714ZM112.241 304.022C110.883 303.824 109.508 303.782 108.141 303.897C110.729 304.829 113.486 305.204 116.23 305C114.932 304.523 113.583 304.194 112.209 304.022H112.241ZM75.1412 300.063C73.7814 299.864 72.4033 299.822 71.0339 299.938C72.3167 300.414 73.65 300.742 75.0077 300.916C76.3664 301.126 77.746 301.168 79.115 301.041C77.8221 300.562 76.4782 300.234 75.1098 300.063H75.1412ZM113.136 218.31C112.03 219.13 111.021 220.072 110.128 221.119C111.381 220.551 112.567 219.845 113.662 219.014C114.766 218.197 115.768 217.252 116.646 216.197C115.402 216.771 114.224 217.479 113.136 218.31V218.31ZM122.921 260.196C121.818 261.004 120.816 261.942 119.937 262.989C121.186 262.425 122.365 261.716 123.447 260.876C124.553 260.07 125.555 259.132 126.432 258.083C125.183 258.655 124.005 259.37 122.921 260.211V260.196ZM88.6098 285.798C87.4998 286.605 86.4947 287.546 85.6176 288.6C86.8622 288.026 88.0395 287.318 89.1281 286.487C90.2321 285.67 91.241 284.733 92.1359 283.693C90.8751 284.249 89.6903 284.961 88.6098 285.814V285.798ZM145.594 248.967C144.781 247.862 143.84 246.856 142.79 245.97C143.952 248.458 145.63 250.672 147.714 252.465C147.15 251.224 146.438 250.055 145.594 248.983V248.967ZM133.9 296.362C133.081 295.262 132.14 294.256 131.097 293.365C131.647 294.621 132.357 295.802 133.209 296.878C134.021 297.98 134.962 298.981 136.013 299.859C135.44 298.619 134.732 297.446 133.9 296.362V296.362ZM99.471 259.085C98.6559 257.981 97.7151 256.975 96.6673 256.088C97.2242 257.342 97.9365 258.523 98.7878 259.601C99.5968 260.705 100.538 261.706 101.591 262.582C101.02 261.34 100.308 260.167 99.471 259.085V259.085Z" fill="white"/>
<path d="M97.3113 209.765C79.7276 223.889 34.6963 279.859 44.8507 292.794C55.0051 305.728 122.497 299.836 142.091 293.717C147.919 291.902 132.023 255.055 125.725 253.357C120.479 251.941 91.3899 260.509 90.8244 258.834C90.1883 256.941 98.0103 246.463 107.953 223.764C119.419 197.582 105.078 203.529 97.3113 209.765Z" fill="#EB9481"/>
<path d="M157.492 250.282C170.929 251.847 174.141 254.28 186.18 249.586C194.081 246.511 199.445 250.212 193.665 256.855C184.241 267.723 166.46 269.374 160.138 268.154L157.492 250.282Z" fill="#EB9481"/>
<path d="M119.803 253.826C119.803 253.826 136.476 249.53 150.958 249.765C160.979 249.929 182.733 252.707 197.497 278.615C201 284.757 201.62 295.994 192.235 288.005C185.576 282.347 183.07 276.753 178.594 274.163C178.594 274.163 177.675 288.537 171.361 291.8C165.838 294.645 160.12 297.095 154.248 299.131C153.626 298.146 153.07 297.122 152.584 296.064C152.584 296.064 146.395 298.552 136.877 295.102L119.803 253.826Z" fill="#EB9481"/>
<path d="M160.5 251.448C164.426 254.954 172.531 262.512 176.992 271.01C181.987 280.447 189.055 299.962 182.026 303.569C176.874 306.213 173.513 298.991 173.513 298.991C173.513 298.991 174.73 307.677 169.586 309.046C164.874 310.298 162.604 304.555 162.604 304.555C162.604 304.555 162.432 309.946 157.657 310.282C151.908 310.674 153.212 299.328 147.039 294.703C145.649 293.663 160.5 251.448 160.5 251.448Z" fill="#EB9481"/>
<path d="M166.138 274.648C169.28 278.561 174.078 289.202 173.67 298.85C173.67 299.069 173.489 299.179 173.458 298.975C171.985 290.621 169.498 282.475 166.052 274.719C166.043 274.707 166.038 274.693 166.04 274.678C166.041 274.663 166.048 274.65 166.06 274.64C166.071 274.631 166.086 274.627 166.101 274.628C166.116 274.63 166.129 274.637 166.138 274.648V274.648Z" fill="#263238"/>
<path d="M156.722 279.906C159.078 283.545 163.547 294.773 162.793 304.515C162.793 304.734 162.597 304.828 162.573 304.624C161.535 296.2 159.541 287.921 156.628 279.945C156.628 279.934 156.631 279.924 156.637 279.914C156.643 279.905 156.652 279.898 156.662 279.894C156.672 279.89 156.683 279.889 156.694 279.891C156.705 279.893 156.715 279.898 156.722 279.906Z" fill="#263238"/>
<path d="M178.617 274.1C182.544 276.448 184.735 279.21 187.657 282.598C189.085 284.294 190.605 285.911 192.212 287.441C193.688 288.811 195.864 290.869 198.078 289.891C199.311 289.343 199.649 287.872 199.751 286.651C199.848 285.279 199.647 283.902 199.162 282.614C199.162 282.551 199.256 282.504 199.28 282.574C199.762 283.711 200.079 284.909 200.222 286.135C200.409 287.286 200.242 288.467 199.743 289.523C198.518 291.682 195.691 291.276 193.916 290.141C192.866 289.416 191.89 288.591 191.002 287.676C190.131 286.823 189.298 285.931 188.489 285.024C186.832 283.146 185.285 281.182 183.652 279.296C182.051 277.497 180.335 275.804 178.515 274.225C178.445 274.163 178.539 274.053 178.617 274.1Z" fill="#263238"/>
<path d="M183.612 291.205C183.149 288.521 179.819 276.987 178.5 274.178C178.491 274.164 178.489 274.147 178.494 274.13C178.498 274.114 178.509 274.101 178.523 274.092C178.538 274.084 178.555 274.082 178.571 274.086C178.588 274.091 178.601 274.101 178.61 274.116C181.099 278.083 184.241 287.715 184.79 290.681C185.34 293.646 185.866 297.316 185.104 300.235C183.958 304.632 180.816 304.71 179.678 304.648C178.332 304.55 177.061 303.998 176.073 303.083C174.948 301.914 174.072 300.53 173.497 299.014C173.497 298.944 173.568 298.881 173.607 298.951C174.691 301.08 176.788 303.451 179.269 303.756C179.819 303.841 180.38 303.815 180.919 303.681C181.459 303.546 181.966 303.306 182.411 302.973C183.343 302.084 183.92 300.889 184.036 299.609C184.379 296.804 184.235 293.961 183.612 291.205V291.205Z" fill="#263238"/>
<path d="M162.793 304.516C163.272 305.196 164.065 307.348 165.973 308.256C166.637 308.633 167.383 308.843 168.146 308.869C168.91 308.895 169.668 308.735 170.356 308.404C171.667 307.593 172.611 306.305 172.987 304.813C173.304 302.904 173.475 300.973 173.497 299.038C173.497 298.944 173.615 298.937 173.623 299.038C173.867 301.137 173.793 303.26 173.403 305.337C173.218 306.151 172.872 306.919 172.386 307.598C171.899 308.277 171.281 308.851 170.568 309.289C169.813 309.699 168.958 309.894 168.099 309.852C167.24 309.809 166.409 309.53 165.699 309.046C164.984 308.553 162.911 306.323 162.557 304.57C162.565 304.516 162.769 304.484 162.793 304.516Z" fill="#263238"/>
<path d="M147.644 294.015C148.212 294.642 148.704 295.332 149.112 296.073C149.576 296.855 150.015 297.598 150.432 298.381C151.259 299.962 151.919 301.625 152.403 303.342C152.905 305.063 153.298 306.941 154.484 308.357C155.039 309.058 155.801 309.566 156.662 309.81C157.524 310.055 158.44 310.023 159.282 309.719C160.174 309.366 160.915 308.716 161.379 307.88C161.918 306.978 162.278 305.982 162.439 304.946C162.436 304.936 162.435 304.926 162.436 304.916C162.437 304.906 162.441 304.897 162.447 304.888C162.453 304.88 162.46 304.873 162.469 304.869C162.478 304.864 162.488 304.861 162.498 304.861C162.508 304.861 162.518 304.864 162.527 304.869C162.536 304.873 162.544 304.88 162.55 304.888C162.556 304.897 162.559 304.906 162.561 304.916C162.562 304.926 162.561 304.936 162.557 304.946C162.49 305.886 162.327 306.817 162.07 307.724C161.773 308.539 161.267 309.262 160.602 309.821C159.904 310.351 159.074 310.68 158.201 310.771C157.328 310.863 156.447 310.712 155.654 310.337C153.895 309.555 152.905 307.786 152.293 306.033C151.61 304.085 151.154 302.074 150.377 300.149C149.976 299.132 149.591 298.115 149.104 297.137C148.617 296.159 147.942 295.141 147.534 294.093C147.487 294.03 147.581 293.944 147.644 294.015Z" fill="#263238"/>
<path d="M141.51 296.44C143.993 296.797 146.504 296.92 149.01 296.808C149.089 296.808 149.136 297.034 149.057 297.05C147.815 297.282 146.551 297.379 145.288 297.34C144.007 297.286 142.741 297.041 141.534 296.612C141.432 296.557 141.432 296.424 141.51 296.44Z" fill="#263238"/>
<path d="M64.3978 267.215C68.5959 265.196 72.9343 263.481 77.3794 262.082C81.778 260.712 86.2718 259.665 90.8244 258.952C93.4239 258.521 96.0312 258.216 98.6778 257.896C98.7563 257.896 98.772 258.005 98.6778 258.013C94.1033 258.751 89.575 259.749 85.115 261.002C80.6752 262.207 76.2616 263.493 71.8742 264.86C69.3925 265.642 66.9423 266.518 64.4841 267.371C64.3978 267.434 64.3192 267.27 64.3978 267.215Z" fill="#263238"/>
<path d="M60.5732 243.749L97.7904 247.778C97.7904 247.778 107.285 230.564 112.225 214.703C117.165 198.843 103.139 201.926 86.7485 217.301C70.3585 232.677 60.5732 243.749 60.5732 243.749Z" fill="#00D2CB"/>
<path d="M60.5732 243.749L97.7904 247.778C97.7904 247.778 107.285 230.564 112.225 214.703C117.165 198.843 103.139 201.926 86.7485 217.301C70.3585 232.677 60.5732 243.749 60.5732 243.749Z" fill="#00D2CB"/>
<path d="M101.167 206.573C101.171 206.612 101.171 206.651 101.167 206.69C100.968 208.045 100.926 209.418 101.042 210.783C101.53 209.5 101.859 208.162 102.023 206.8C102.023 206.565 102.086 206.338 102.11 206.104L101.167 206.573ZM81.6752 243.349C81.3344 244.203 81.0715 245.085 80.8899 245.986L81.6752 246.064C81.7616 245.161 81.7616 244.252 81.6752 243.349V243.349ZM68.7643 235L68.403 235.376C68.8114 235.376 69.1884 235.376 69.636 235.305C69.3376 235.188 69.0548 235.086 68.7643 235ZM102.165 237.606C102.385 237.692 102.612 237.778 102.84 237.848C102.881 237.746 102.928 237.647 102.981 237.551C102.714 237.559 102.44 237.575 102.165 237.606V237.606ZM90.4946 227.136C89.6753 226.036 88.7348 225.031 87.6909 224.14C88.2432 225.397 88.953 226.58 89.8035 227.661C90.6171 228.758 91.5582 229.757 92.6072 230.634C92.0314 229.396 91.3231 228.223 90.4946 227.136V227.136Z" fill="white"/>
<path d="M96.2825 247.434C96.4867 247.434 97.8532 247.434 97.8532 247.434C98.0181 246.956 101.222 239.609 102.008 238.044C103.625 234.828 105.432 231.698 107.191 228.561C107.246 228.459 107.403 228.561 107.348 228.631C106.107 231.37 104.913 234.108 103.649 236.863C103.963 236.495 104.277 236.127 104.584 235.751C105.204 234.969 105.769 234.187 106.358 233.357C106.413 233.287 106.523 233.357 106.484 233.443C105.922 234.575 105.212 235.628 104.371 236.573C104.015 236.988 103.629 237.378 103.217 237.739C103.115 237.966 103.013 238.201 102.903 238.42C102.118 239.985 98.2459 247.872 98.1045 247.864L96.3139 247.645C96.1804 247.676 96.1804 247.426 96.2825 247.434Z" fill="#263238"/>
<path d="M67.5862 237.45C75.6595 237.989 83.7093 239.093 91.7119 240.345C93.9841 240.705 96.2406 241.114 98.4815 241.573C98.5443 241.573 98.5443 241.683 98.4815 241.675C94.4605 241.323 90.4475 240.806 86.4344 240.313C82.4213 239.82 78.3768 239.288 74.3637 238.655C72.1019 238.31 69.8323 237.966 67.5784 237.583C67.4842 237.59 67.4842 237.442 67.5862 237.45Z" fill="#263238"/>
<path d="M110.364 204.304C110.505 205.932 116.584 217.246 123.864 217.943C126.22 218.162 128.034 205.322 128.034 205.322L128.379 204.406L133.272 191.558L119.057 179.312L116.992 177.669C116.992 177.669 115.885 181.268 114.557 185.768C114.495 185.979 114.424 186.19 114.361 186.409C114.298 186.628 114.204 186.902 114.133 187.137C113.929 187.81 113.717 188.491 113.529 189.179C113.379 189.703 113.23 190.212 113.089 190.744C112.947 191.276 112.806 191.84 112.649 192.387C111.616 196.303 110.852 200.285 110.364 204.304V204.304Z" fill="#EB9481"/>
<path d="M114.557 185.768C115.367 189.687 117.022 193.384 119.409 196.603C121.796 199.821 124.857 202.484 128.379 204.406L133.272 191.558L119.057 179.312L116.992 177.669C116.992 177.669 115.885 181.268 114.557 185.768Z" fill="#263238"/>
<path d="M137.576 171.823C138.824 177.3 143.772 180.908 148.625 179.82C153.479 178.732 156.392 173.372 155.144 167.864C153.895 162.355 148.947 158.771 144.094 159.867C139.241 160.962 136.327 166.307 137.576 171.823Z" fill="#455A64"/>
<path d="M134.803 172.81C136.201 178.937 141.699 182.919 147.102 181.707C152.505 180.494 155.741 174.539 154.35 168.405C152.96 162.27 147.455 158.295 142.06 159.508C136.665 160.721 133.413 166.667 134.803 172.81Z" fill="#C7C7C7"/>
<path d="M150.683 164.969C157.28 188.169 144.078 194.703 139.052 196.143C134.489 197.426 118.798 201.213 109.83 178.811C100.861 156.409 109.602 146.017 119.874 142.535C130.146 139.053 144.086 141.761 150.683 164.969Z" fill="#EB9481"/>
<path d="M142.578 162.05C142.025 162.105 141.469 162.128 140.913 162.12C140.329 162.232 139.724 162.146 139.193 161.878C139.042 161.761 138.934 161.599 138.886 161.415C138.838 161.23 138.852 161.036 138.926 160.861C139.127 160.538 139.41 160.275 139.747 160.099C140.084 159.923 140.463 159.84 140.843 159.859C141.616 159.773 142.394 159.977 143.026 160.43C143.162 160.544 143.263 160.694 143.316 160.863C143.369 161.032 143.372 161.213 143.325 161.383C143.277 161.554 143.182 161.708 143.05 161.826C142.917 161.944 142.754 162.022 142.578 162.05V162.05Z" fill="#263238"/>
<path d="M127.225 167.45C127.759 167.285 128.283 167.092 128.796 166.871C129.377 166.743 129.901 166.43 130.288 165.979C130.379 165.812 130.414 165.62 130.385 165.432C130.357 165.244 130.268 165.071 130.131 164.938C129.819 164.72 129.455 164.588 129.075 164.556C128.696 164.525 128.315 164.594 127.971 164.758C127.226 164.981 126.591 165.472 126.188 166.135C126.106 166.292 126.07 166.469 126.086 166.645C126.102 166.821 126.169 166.989 126.279 167.128C126.388 167.267 126.536 167.371 126.704 167.428C126.872 167.485 127.053 167.493 127.225 167.45V167.45Z" fill="#263238"/>
<path d="M131.937 171.542C131.937 171.479 131.835 171.651 131.858 171.714C132.361 173.279 132.644 175.157 131.387 176.088C131.348 176.088 131.387 176.19 131.426 176.174C133.091 175.431 132.652 172.927 131.937 171.542Z" fill="#263238"/>
<path d="M130.036 170.29C127.429 170.822 128.686 175.971 131.104 175.478C133.523 174.985 132.22 169.844 130.036 170.29Z" fill="#263238"/>
<path d="M129.086 170.806C128.709 171.213 128.387 171.831 127.861 172.019C127.335 172.207 126.636 171.808 126.102 171.385C126.047 171.346 126.008 171.385 126.023 171.471C126.251 172.457 126.879 173.38 127.979 173.271C129.078 173.161 129.463 172.128 129.463 171.072C129.471 170.877 129.243 170.65 129.086 170.806Z" fill="#263238"/>
<path d="M141.118 168.717C141.118 168.654 141.267 168.764 141.275 168.826C141.604 170.438 142.248 172.23 143.827 172.418C143.874 172.418 143.89 172.504 143.827 172.512C142.005 172.676 141.173 170.29 141.118 168.717Z" fill="#263238"/>
<path d="M142.146 166.714C144.675 165.932 146.073 171.018 143.717 171.761C141.361 172.505 140.034 167.379 142.146 166.714Z" fill="#263238"/>
<path d="M143.324 166.753C143.803 166.909 144.337 167.293 144.832 167.191C145.327 167.089 145.665 166.409 145.877 165.775C145.877 165.712 145.955 165.775 145.971 165.775C146.269 166.745 146.23 167.848 145.335 168.294C144.44 168.74 143.662 168.036 143.159 167.129C143.065 167.003 143.128 166.667 143.324 166.753Z" fill="#263238"/>
<path d="M135.565 184.405C136.021 184.71 136.508 185.188 137.136 185.086C137.737 184.956 138.304 184.703 138.801 184.343C138.81 184.331 138.824 184.324 138.838 184.323C138.853 184.321 138.868 184.326 138.879 184.335C138.891 184.344 138.898 184.358 138.899 184.372C138.901 184.387 138.897 184.402 138.887 184.413C138.717 184.775 138.452 185.084 138.121 185.309C137.789 185.533 137.403 185.664 137.002 185.689C136.652 185.671 136.315 185.549 136.035 185.338C135.755 185.128 135.545 184.838 135.432 184.507C135.377 184.421 135.494 184.366 135.565 184.405Z" fill="#263238"/>
<path d="M140.835 176.455C140.835 176.455 141.769 178.748 142.06 179.867C142.06 179.977 138.196 181.855 135.699 179.554C135.673 179.536 135.655 179.509 135.649 179.478C135.643 179.448 135.65 179.416 135.667 179.39C135.685 179.364 135.712 179.346 135.743 179.34C135.774 179.334 135.806 179.341 135.832 179.358C137.516 179.97 139.354 180.022 141.07 179.507C141.07 179.178 139.327 175.634 139.5 175.595C140.393 175.448 141.301 175.422 142.201 175.516C140.379 170.689 137.803 166.189 136.068 161.346C136.052 161.31 136.051 161.27 136.064 161.233C136.077 161.196 136.103 161.165 136.137 161.147C136.172 161.128 136.212 161.123 136.25 161.132C136.288 161.142 136.321 161.165 136.343 161.197C139.382 165.728 141.597 171.244 143.599 176.182C143.866 176.784 141.361 176.534 140.835 176.455Z" fill="#263238"/>
<path d="M141.063 180.048C140.645 181.086 139.97 182.002 139.099 182.708C138.611 183.073 138.021 183.281 137.411 183.303C136.068 183.303 135.714 182.2 135.667 181.159C135.648 180.608 135.693 180.056 135.801 179.516C137.452 180.249 139.297 180.436 141.063 180.048V180.048Z" fill="#263238"/>
<path d="M139.099 182.708C138.611 183.073 138.021 183.281 137.411 183.303C136.068 183.303 135.714 182.199 135.667 181.159C137.042 180.916 138.612 181.448 139.099 182.708Z" fill="#FF99BA"/>
<path d="M110.953 178.037C115.461 178.326 115.979 168.052 115.979 168.052C115.979 168.052 134.827 163.678 135.502 148.123C135.502 148.123 139.374 157.778 149.638 161.628C149.638 161.628 147.934 144.727 134.254 142.254C134.254 142.254 117.149 137.199 108.55 151.002C99.9501 164.805 107.929 177.841 110.953 178.037Z" fill="#263238"/>
<path d="M135.502 146.972C135.875 149.345 135.733 151.77 135.086 154.084C134.476 156.436 133.379 158.635 131.866 160.54C131.495 161.019 131.094 161.473 130.665 161.901L130.036 162.566C129.817 162.77 129.581 162.958 129.345 163.153C128.874 163.529 128.419 163.936 127.932 164.288C127.445 164.64 126.911 164.929 126.361 165.242C126.102 165.391 125.851 165.555 125.576 165.696L124.79 166.072L123.149 166.815C122.018 167.206 120.872 167.535 119.733 167.848C120.793 167.308 121.892 166.878 122.937 166.338L124.468 165.477L125.254 165.047C125.497 164.89 125.725 164.71 125.961 164.538C126.432 164.194 126.903 163.857 127.382 163.529C127.861 163.2 128.246 162.746 128.678 162.394L129.33 161.823L129.911 161.181C130.31 160.771 130.685 160.337 131.034 159.882C132.461 158.068 133.568 156.026 134.309 153.842C134.688 152.745 134.976 151.62 135.173 150.477C135.381 149.32 135.492 148.147 135.502 146.972V146.972Z" fill="#263238"/>
<path d="M114.314 177.794C114.314 177.794 107.701 171.386 104.694 173.882C101.686 176.378 107.646 186.347 111.879 187.051C112.416 187.179 112.973 187.198 113.517 187.107C114.061 187.016 114.581 186.815 115.045 186.519C115.509 186.222 115.909 185.835 116.219 185.38C116.529 184.926 116.744 184.413 116.851 183.874L114.314 177.794Z" fill="#EB9481"/>
<path d="M106.476 176.69C106.462 176.69 106.448 176.696 106.437 176.706C106.427 176.717 106.421 176.731 106.421 176.745C106.421 176.76 106.427 176.774 106.437 176.784C106.448 176.794 106.462 176.8 106.476 176.8C109.468 177.387 111.416 179.672 112.955 182.129C111.934 181.268 110.701 180.924 109.516 182.129C109.453 182.199 109.516 182.293 109.618 182.262C110.076 182.015 110.6 181.916 111.117 181.978C111.635 182.04 112.12 182.259 112.508 182.606C113.152 183.189 113.732 183.839 114.235 184.546C114.408 184.773 114.832 184.546 114.683 184.288L114.644 184.226C114.031 180.751 110.332 176.323 106.476 176.69Z" fill="#263238"/>
<path d="M109.79 174.531C109.79 174.531 105.502 163.146 106.987 155.712C108.636 147.434 118.932 137.989 130.704 141.526C130.704 141.526 116.701 143.615 111.754 154.828C109.476 159.992 113.78 173.662 113.78 173.662L109.79 174.531Z" fill="#C7C7C7"/>
<path d="M116.404 190.757C121.601 189.144 124.317 183.05 122.472 177.146C120.626 171.242 114.917 167.763 109.72 169.376C104.523 170.988 101.806 177.082 103.651 182.987C105.497 188.891 111.206 192.37 116.404 190.757Z" fill="#C7C7C7"/>
<path d="M119.639 177.622C121.296 182.927 118.853 188.404 114.141 189.852C109.429 191.299 104.34 188.177 102.675 182.872C101.01 177.567 103.461 172.09 108.173 170.634C112.885 169.179 117.981 172.348 119.639 177.622Z" fill="#455A64"/>
<path d="M128.324 204.484L124.005 215.345L110.419 201.69L106.61 206.104C106.61 206.104 119.961 227.841 120.008 226.855L124.453 217.465L130.955 223.936L130.366 207.645L128.324 204.484Z" fill="#EBEBEB"/>
<path d="M131.152 215.876C130.955 213.192 130.845 210.469 130.531 207.793C130.531 207.699 130.366 207.66 130.343 207.793C129.817 210.391 130.594 220.681 130.594 223.145C130.327 222.864 124.57 217.449 124.515 217.535C123.55 219.022 120.29 225.845 120.07 226.463C117.958 223.012 109.021 209.405 106.531 206.119C106.516 206.104 106.497 206.094 106.476 206.092C106.455 206.089 106.434 206.093 106.416 206.104C106.398 206.115 106.384 206.132 106.376 206.151C106.369 206.171 106.368 206.193 106.374 206.213C108.235 209.859 119.78 227.817 119.945 227.77C121.662 224.551 123.214 221.247 124.594 217.872C125.568 219.053 131.379 225.164 131.395 224.765C131.468 221.8 131.387 218.833 131.152 215.876Z" fill="#263238"/>
<path d="M206.921 132.121C206.45 136.622 204.732 140.904 201.96 144.489C199.189 148.075 195.472 150.822 191.224 152.425C186.976 154.027 182.365 154.423 177.905 153.566C173.445 152.71 169.311 150.636 165.966 147.575L153.699 149.367L159.84 138.803C158.45 135.367 157.863 131.661 158.123 127.966C158.383 124.27 159.483 120.682 161.341 117.473C163.199 114.264 165.765 111.518 168.845 109.443C171.925 107.368 175.438 106.019 179.119 105.497C182.8 104.975 186.552 105.294 190.091 106.43C193.63 107.566 196.863 109.49 199.546 112.055C202.228 114.621 204.29 117.76 205.574 121.237C206.859 124.713 207.333 128.435 206.96 132.121H206.921Z" fill="white"/>
<path d="M206.921 132.121C206.446 136.624 204.734 140.91 201.973 144.507C200.617 146.304 198.997 147.887 197.167 149.202C195.36 150.567 193.37 151.67 191.254 152.481C189.136 153.306 186.913 153.833 184.649 154.046C183.518 154.149 182.382 154.17 181.248 154.108C180.11 154.081 178.975 153.964 177.856 153.756C173.332 152.945 169.125 150.894 165.706 147.833L165.997 147.919L153.746 149.797L152.858 149.93L153.306 149.147L159.424 138.561V138.983C157.985 135.482 157.374 131.697 157.637 127.923C157.899 124.149 159.03 120.485 160.939 117.215C162.847 113.957 165.47 111.172 168.612 109.069C171.752 106.997 175.322 105.661 179.054 105.159C182.786 104.658 186.584 105.005 190.162 106.174C193.697 107.377 196.917 109.353 199.586 111.956C202.259 114.546 204.308 117.706 205.578 121.199C206.849 124.692 207.308 128.426 206.921 132.121ZM206.921 132.121C207.313 128.442 206.852 124.723 205.573 121.251C204.295 117.778 202.233 114.644 199.547 112.09C196.861 109.536 193.623 107.631 190.081 106.521C186.54 105.412 182.79 105.127 179.12 105.689C175.485 106.233 172.022 107.598 168.997 109.679C166.001 111.773 163.498 114.491 161.662 117.645C159.855 120.81 158.792 124.342 158.552 127.976C158.313 131.609 158.904 135.25 160.28 138.623L160.366 138.842L160.248 139.038L154.076 149.586L153.636 148.936L165.911 147.223H166.083L166.201 147.34C169.49 150.399 173.569 152.485 177.981 153.365C179.077 153.584 180.187 153.717 181.303 153.764C182.42 153.842 183.54 153.842 184.657 153.764C186.896 153.59 189.1 153.108 191.206 152.332C193.325 151.572 195.318 150.501 197.12 149.155C198.962 147.849 200.588 146.265 201.942 144.46C204.711 140.883 206.434 136.613 206.921 132.121V132.121Z" fill="#263238"/>
<path d="M450.784 132.121C450.313 136.622 448.596 140.904 445.824 144.489C443.052 148.075 439.335 150.822 435.087 152.425C430.839 154.028 426.228 154.423 421.768 153.566C417.308 152.71 413.175 150.636 409.829 147.575L397.562 149.367L403.696 138.803C402.3 135.366 401.708 131.656 401.964 127.957C402.221 124.257 403.32 120.664 405.177 117.451C407.035 114.237 409.602 111.487 412.685 109.409C415.767 107.331 419.284 105.979 422.969 105.457C426.654 104.934 430.41 105.254 433.952 106.393C437.494 107.531 440.73 109.459 443.414 112.028C446.097 114.598 448.158 117.743 449.441 121.224C450.723 124.705 451.194 128.432 450.816 132.121H450.784Z" fill="white"/>
<path d="M450.784 132.121C450.306 136.624 448.595 140.909 445.837 144.507C445.147 145.398 444.405 146.247 443.614 147.05C442.796 147.831 441.931 148.56 441.023 149.233C439.218 150.601 437.227 151.705 435.109 152.512C432.994 153.338 430.774 153.865 428.512 154.077C427.379 154.18 426.24 154.201 425.104 154.14C423.965 154.112 422.831 153.995 421.711 153.787C417.192 152.961 412.993 150.896 409.586 147.825L409.876 147.911L397.625 149.789L396.737 149.922L397.185 149.14L403.287 138.553V138.975C401.849 135.474 401.238 131.69 401.499 127.916C401.76 124.142 402.888 120.478 404.795 117.207C406.705 113.949 409.331 111.164 412.476 109.061C415.615 106.99 419.185 105.653 422.917 105.152C426.649 104.65 430.447 104.997 434.025 106.166C437.561 107.369 440.781 109.344 443.449 111.949C446.125 114.538 448.176 117.7 449.446 121.194C450.717 124.688 451.174 128.425 450.784 132.121V132.121ZM450.784 132.121C451.176 128.442 450.715 124.723 449.437 121.251C448.158 117.778 446.097 114.644 443.411 112.09C440.725 109.536 437.486 107.631 433.945 106.521C430.403 105.412 426.653 105.127 422.983 105.689C419.348 106.233 415.885 107.598 412.86 109.679C409.865 111.773 407.362 114.491 405.525 117.645C403.706 120.809 402.632 124.343 402.384 127.982C402.153 131.612 402.741 135.248 404.104 138.623L404.198 138.842L404.08 139.038L397.908 149.586L397.468 148.936L409.743 147.223H409.915L410.033 147.34C413.312 150.392 417.376 152.478 421.774 153.365C422.869 153.584 423.98 153.717 425.096 153.764C426.212 153.842 427.333 153.842 428.449 153.764C430.689 153.59 432.893 153.108 434.999 152.332C437.117 151.57 439.11 150.5 440.913 149.155C442.75 147.846 444.374 146.262 445.727 144.46C448.527 140.893 450.278 136.621 450.784 132.121Z" fill="#263238"/>
<path d="M166.335 305.298H161.081V308.717H166.335V305.298Z" fill="#455A64"/>
<path d="M173.152 305.07H167.898V308.49H173.152V305.07Z" fill="#455A64"/>
<path d="M179.968 304.844H174.714V308.263H179.968V304.844Z" fill="#455A64"/>
<path d="M186.777 304.617H181.523V308.037H186.777V304.617Z" fill="#455A64"/>
<path d="M193.594 304.39H188.34V307.809H193.594V304.39Z" fill="#455A64"/>
<path d="M200.411 304.171H195.157V307.59H200.411V304.171Z" fill="#455A64"/>
<path d="M207.22 303.944H201.966V307.364H207.22V303.944Z" fill="#455A64"/>
<path d="M214.036 303.717H208.782V307.136H214.036V303.717Z" fill="#455A64"/>
<path d="M220.845 303.49H215.591V306.91H220.845V303.49Z" fill="#455A64"/>
<path d="M222.133 310.681H159.793V306.518L222.133 304.789V310.681Z" fill="#37474F"/>
<path d="M282.981 294.28H180.07L196.437 217.942H299.348L282.981 294.28Z" fill="#455A64"/>
<path d="M286.79 294.28H183.871L200.238 217.942H303.157L286.79 294.28Z" fill="#37474F"/>
<path d="M252.408 251.691C252.092 253.428 251.188 255.006 249.846 256.159C248.504 257.313 246.805 257.973 245.034 258.029C244.234 258.053 243.439 257.897 242.709 257.572C241.979 257.247 241.332 256.761 240.818 256.151C240.303 255.541 239.934 254.823 239.738 254.05C239.541 253.278 239.524 252.471 239.685 251.691C239.998 249.952 240.9 248.373 242.241 247.218C243.582 246.063 245.28 245.401 247.052 245.345C247.853 245.318 248.649 245.474 249.381 245.799C250.113 246.124 250.761 246.61 251.277 247.221C251.793 247.832 252.162 248.552 252.358 249.326C252.554 250.1 252.571 250.909 252.408 251.691V251.691Z" fill="#263238"/>
<path d="M257.685 314.218H207.07V310.297L257.685 308.67V314.218Z" fill="#455A64"/>
<path d="M271.445 314.21H244.264L227.897 271.433H255.078L271.445 314.21Z" fill="#455A64"/>
<path d="M275.913 314.21H248.74L232.374 271.433H259.547L275.913 314.21Z" fill="#263238"/>
<path d="M157.853 315.259H105.691C101.238 315.259 107.678 302.622 123.934 297.778C140.191 292.935 162.997 310.517 157.853 315.259Z" fill="#37474F"/>
<path d="M137.434 315.259C137.469 313.819 137.707 312.392 138.141 311.018C138.56 309.629 139.148 308.297 139.892 307.051C140.639 305.797 141.574 304.665 142.665 303.694C143.747 302.73 144.991 301.965 146.34 301.433C145.782 301.886 145.146 302.215 144.636 302.708L143.851 303.389L143.112 304.171C142.148 305.178 141.302 306.291 140.591 307.489C139.869 308.687 139.249 309.943 138.738 311.245C138.214 312.552 137.779 313.893 137.434 315.259V315.259Z" fill="#263238"/>
<path d="M143.576 303.231C146.68 304.21 149.616 305.653 152.285 307.512C153.636 308.441 154.858 309.544 155.921 310.79C157.036 312.03 157.715 313.599 157.853 315.258C157.421 313.728 156.592 312.338 155.45 311.228C154.337 310.099 153.12 309.077 151.814 308.177C150.518 307.246 149.159 306.408 147.777 305.587C146.395 304.765 145.005 303.99 143.576 303.231Z" fill="#263238"/>
<path d="M407.324 305.298H402.07V308.717H407.324V305.298Z" fill="#455A64"/>
<path d="M414.141 305.07H408.887V308.49H414.141V305.07Z" fill="#455A64"/>
<path d="M420.957 304.844H415.703V308.263H420.957V304.844Z" fill="#455A64"/>
<path d="M427.766 304.617H422.512V308.037H427.766V304.617Z" fill="#455A64"/>
<path d="M434.583 304.39H429.329V307.809H434.583V304.39Z" fill="#455A64"/>
<path d="M441.4 304.171H436.146V307.59H441.4V304.171Z" fill="#455A64"/>
<path d="M448.209 303.944H442.955V307.364H448.209V303.944Z" fill="#455A64"/>
<path d="M455.025 303.717H449.771V307.136H455.025V303.717Z" fill="#455A64"/>
<path d="M461.842 303.49H456.588V306.91H461.842V303.49Z" fill="#455A64"/>
<path d="M463.13 310.681H400.79V306.518L463.13 304.789V310.681Z" fill="#37474F"/>
<path d="M523.97 294.28H421.059L437.426 217.942H540.337L523.97 294.28Z" fill="#455A64"/>
<path d="M527.779 294.28H424.868L441.235 217.942H544.146L527.779 294.28Z" fill="#37474F"/>
<path d="M493.397 251.691C493.082 253.427 492.179 255.003 490.838 256.157C489.498 257.31 487.801 257.971 486.031 258.029C485.23 258.055 484.435 257.899 483.704 257.575C482.973 257.25 482.325 256.764 481.809 256.154C481.294 255.544 480.924 254.825 480.727 254.052C480.53 253.279 480.513 252.472 480.674 251.691C480.988 249.953 481.891 248.374 483.231 247.219C484.572 246.065 486.27 245.403 488.041 245.345C488.842 245.318 489.638 245.474 490.37 245.799C491.102 246.124 491.75 246.61 492.266 247.221C492.782 247.832 493.152 248.552 493.347 249.326C493.543 250.1 493.56 250.909 493.397 251.691V251.691Z" fill="#263238"/>
<path d="M498.674 314.218H448.059V310.297L498.674 308.67V314.218Z" fill="#455A64"/>
<path d="M512.434 314.21H485.253L468.887 271.433H496.067L512.434 314.21Z" fill="#455A64"/>
<path d="M516.91 314.21H489.73L473.363 271.433H500.544L516.91 314.21Z" fill="#263238"/>
<path d="M398.866 315.259H346.68C342.227 315.259 348.667 302.622 364.923 297.778C381.18 292.935 403.986 310.517 398.866 315.259Z" fill="#37474F"/>
<path d="M378.384 315.259C378.423 313.82 378.661 312.392 379.091 311.018C379.513 309.63 380.101 308.298 380.842 307.051C381.594 305.801 382.528 304.669 383.614 303.694C384.696 302.73 385.941 301.965 387.29 301.433C386.732 301.886 386.096 302.215 385.586 302.708L384.8 303.389L384.062 304.171C383.093 305.175 382.244 306.289 381.533 307.489C380.811 308.687 380.191 309.943 379.68 311.245C379.159 312.553 378.726 313.894 378.384 315.259V315.259Z" fill="#263238"/>
<path d="M384.565 303.231C387.669 304.21 390.605 305.653 393.274 307.512C394.626 308.443 395.85 309.545 396.918 310.79C398.03 312.022 398.713 313.578 398.866 315.227C398.43 313.696 397.599 312.307 396.455 311.197C395.342 310.068 394.125 309.046 392.819 308.145C391.531 307.214 390.164 306.377 388.782 305.555C387.4 304.734 386.002 303.99 384.565 303.231Z" fill="#263238"/>
<path d="M200.592 129.054C200.592 128.943 200.548 128.836 200.469 128.757C200.39 128.678 200.283 128.634 200.172 128.634H185.12C185.022 128.634 184.927 128.668 184.851 128.731C184.776 128.793 184.725 128.88 184.706 128.977V128.977C184.706 128.987 184.706 128.996 184.706 129.006C184.706 129.016 184.706 129.036 184.706 129.053V129.071C184.647 130.434 184.265 131.765 183.591 132.952C182.917 134.14 181.972 135.152 180.831 135.905C179.691 136.657 178.388 137.129 177.029 137.283C175.671 137.436 174.295 137.265 173.015 136.785C172.939 136.756 172.856 136.75 172.776 136.767C172.697 136.784 172.624 136.824 172.566 136.882L171.767 137.677C171.719 137.726 171.682 137.785 171.662 137.851C171.642 137.916 171.638 137.986 171.651 138.053C171.664 138.121 171.693 138.184 171.736 138.237C171.779 138.291 171.834 138.333 171.897 138.36C173.358 138.985 174.94 139.272 176.528 139.201C178.115 139.129 179.665 138.701 181.063 137.947C182.461 137.194 183.671 136.135 184.602 134.85C185.533 133.564 186.161 132.086 186.439 130.524H197.696L195.145 133.064C195.066 133.143 195.022 133.25 195.022 133.361C195.022 133.473 195.066 133.579 195.145 133.658L195.892 134.401C195.971 134.48 196.078 134.524 196.19 134.524C196.301 134.524 196.408 134.48 196.487 134.401L200.451 130.455C200.499 130.406 200.534 130.346 200.553 130.281C200.579 130.226 200.593 130.167 200.592 130.106V129.054Z" fill="#2B2979"/>
<path d="M175.644 120.116C175.751 120.11 175.852 120.063 175.925 119.985C175.999 119.907 176.04 119.804 176.04 119.696V118.644C176.039 118.588 176.027 118.533 176.005 118.482C175.983 118.43 175.95 118.384 175.909 118.345C175.869 118.307 175.821 118.277 175.768 118.257C175.715 118.237 175.659 118.228 175.603 118.231C173.883 118.302 172.206 118.793 170.721 119.663C169.235 120.532 167.986 121.752 167.084 123.216C166.181 124.68 165.652 126.342 165.544 128.058C165.436 129.774 165.751 131.49 166.462 133.055C166.491 133.117 166.534 133.17 166.587 133.212C166.641 133.253 166.704 133.281 166.771 133.292C166.838 133.304 166.906 133.3 166.971 133.279C167.036 133.259 167.094 133.223 167.142 133.175L167.937 132.384C167.994 132.326 168.033 132.253 168.05 132.174C168.066 132.094 168.059 132.011 168.029 131.936C167.514 130.659 167.314 129.278 167.444 127.908C167.574 126.538 168.031 125.219 168.777 124.061C169.523 122.904 170.535 121.941 171.73 121.255C172.925 120.568 174.267 120.178 175.644 120.116" fill="#2B2979"/>
<path fill-rule="evenodd" clip-rule="evenodd" d="M175.836 132.888C176.666 132.886 177.477 132.638 178.166 132.176C178.855 131.714 179.391 131.058 179.708 130.292C180.024 129.525 180.105 128.683 179.942 127.87C179.779 127.057 179.378 126.311 178.79 125.726C178.202 125.141 177.454 124.743 176.64 124.582C175.825 124.421 174.981 124.505 174.215 124.822C173.448 125.14 172.793 125.677 172.332 126.367C171.871 127.056 171.625 127.866 171.625 128.695C171.628 129.808 172.073 130.874 172.863 131.66C173.652 132.446 174.721 132.887 175.836 132.888V132.888Z" fill="#2B2979"/>
<path fill-rule="evenodd" clip-rule="evenodd" d="M168.818 128.695C168.815 130.081 169.224 131.438 169.993 132.592C170.762 133.746 171.857 134.647 173.139 135.179C174.421 135.712 175.833 135.853 177.195 135.584C178.557 135.316 179.809 134.65 180.792 133.671C181.775 132.691 182.445 131.443 182.717 130.083C182.989 128.724 182.851 127.314 182.321 126.033C181.79 124.752 180.89 123.657 179.736 122.886C178.582 122.115 177.224 121.704 175.836 121.704C173.977 121.702 172.193 122.437 170.877 123.747C169.561 125.057 168.821 126.836 168.818 128.692V128.695ZM175.836 134.285C174.729 134.283 173.647 133.953 172.728 133.337C171.809 132.721 171.093 131.847 170.671 130.826C170.25 129.804 170.14 128.68 170.358 127.597C170.575 126.513 171.11 125.518 171.893 124.738C172.677 123.957 173.674 123.426 174.76 123.211C175.846 122.997 176.971 123.108 177.993 123.531C179.016 123.955 179.89 124.671 180.504 125.59C181.119 126.51 181.447 127.59 181.447 128.695C181.445 130.179 180.853 131.602 179.801 132.65C178.748 133.699 177.322 134.287 175.836 134.285V134.285Z" fill="#00D2CB"/>
<path fill-rule="evenodd" clip-rule="evenodd" d="M175.852 129.246C175.95 129.246 176.044 129.217 176.125 129.163C176.206 129.109 176.269 129.032 176.306 128.942C176.343 128.853 176.352 128.754 176.333 128.659C176.314 128.564 176.267 128.477 176.198 128.408C176.13 128.339 176.042 128.293 175.947 128.274C175.851 128.255 175.753 128.265 175.663 128.302C175.573 128.339 175.496 128.402 175.442 128.483C175.389 128.564 175.36 128.658 175.36 128.755C175.36 128.886 175.412 129.011 175.504 129.103C175.597 129.195 175.722 129.246 175.852 129.246V129.246Z" fill="white"/>
<path d="M443.503 129.054C443.503 128.943 443.459 128.836 443.38 128.757C443.301 128.678 443.194 128.634 443.082 128.634H428.031C427.933 128.634 427.838 128.668 427.762 128.731C427.686 128.793 427.635 128.88 427.617 128.977V128.977C427.617 128.987 427.617 128.996 427.617 129.006C427.617 129.016 427.617 129.036 427.617 129.053V129.071C427.557 130.434 427.175 131.765 426.501 132.952C425.828 134.14 424.882 135.152 423.742 135.905C422.601 136.657 421.298 137.129 419.94 137.283C418.581 137.436 417.206 137.265 415.926 136.785C415.85 136.756 415.767 136.75 415.687 136.767C415.607 136.784 415.534 136.824 415.477 136.882L414.678 137.677C414.629 137.726 414.593 137.785 414.573 137.851C414.552 137.916 414.548 137.986 414.561 138.053C414.574 138.121 414.603 138.184 414.646 138.237C414.689 138.291 414.745 138.333 414.808 138.36C416.268 138.985 417.851 139.272 419.438 139.201C421.025 139.129 422.576 138.701 423.974 137.947C425.372 137.194 426.581 136.135 427.512 134.85C428.443 133.564 429.071 132.086 429.35 130.524H440.606L438.055 133.064C437.976 133.143 437.932 133.25 437.932 133.361C437.932 133.473 437.976 133.579 438.055 133.658L438.803 134.401C438.882 134.48 438.989 134.524 439.1 134.524C439.212 134.524 439.319 134.48 439.398 134.401L443.361 130.455C443.409 130.406 443.444 130.346 443.464 130.281C443.49 130.226 443.503 130.167 443.503 130.106V129.054Z" fill="#2B2979"/>
<path d="M418.554 120.116C418.661 120.11 418.762 120.063 418.836 119.985C418.909 119.907 418.95 119.804 418.95 119.696V118.644C418.95 118.588 418.938 118.533 418.915 118.482C418.893 118.43 418.861 118.384 418.82 118.345C418.779 118.307 418.731 118.277 418.678 118.257C418.626 118.237 418.57 118.228 418.514 118.231C416.793 118.302 415.117 118.793 413.631 119.663C412.146 120.532 410.897 121.752 409.994 123.216C409.092 124.68 408.563 126.342 408.454 128.058C408.346 129.774 408.661 131.49 409.373 133.055C409.401 133.117 409.444 133.17 409.498 133.212C409.552 133.253 409.615 133.281 409.681 133.292C409.748 133.304 409.817 133.3 409.881 133.279C409.946 133.259 410.005 133.223 410.053 133.175L410.847 132.384C410.904 132.326 410.944 132.253 410.96 132.174C410.976 132.094 410.969 132.011 410.939 131.936C410.425 130.659 410.224 129.278 410.355 127.908C410.485 126.538 410.942 125.219 411.688 124.061C412.433 122.904 413.446 121.941 414.64 121.255C415.835 120.568 417.177 120.178 418.554 120.116" fill="#2B2979"/>
<path fill-rule="evenodd" clip-rule="evenodd" d="M418.746 132.888C419.576 132.886 420.387 132.638 421.076 132.176C421.765 131.714 422.302 131.058 422.618 130.292C422.934 129.525 423.016 128.683 422.852 127.87C422.689 127.057 422.288 126.311 421.7 125.726C421.113 125.141 420.364 124.743 419.55 124.582C418.736 124.421 417.892 124.505 417.125 124.822C416.358 125.14 415.703 125.677 415.242 126.367C414.781 127.056 414.535 127.866 414.535 128.695C414.539 129.808 414.984 130.874 415.773 131.66C416.562 132.446 417.631 132.887 418.746 132.888V132.888Z" fill="#2B2979"/>
<path fill-rule="evenodd" clip-rule="evenodd" d="M411.728 128.695C411.725 130.081 412.134 131.438 412.903 132.592C413.673 133.746 414.768 134.647 416.05 135.179C417.332 135.712 418.743 135.853 420.105 135.584C421.468 135.316 422.72 134.65 423.703 133.671C424.686 132.691 425.356 131.443 425.628 130.083C425.9 128.724 425.762 127.314 425.231 126.033C424.7 124.752 423.801 123.657 422.647 122.886C421.492 122.115 420.135 121.704 418.746 121.704C416.887 121.702 415.104 122.437 413.788 123.747C412.472 125.057 411.731 126.836 411.728 128.692V128.695ZM418.746 134.285C417.639 134.283 416.558 133.953 415.639 133.337C414.72 132.721 414.004 131.847 413.582 130.826C413.16 129.804 413.051 128.68 413.268 127.597C413.486 126.513 414.02 125.518 414.804 124.738C415.587 123.957 416.585 123.426 417.671 123.211C418.756 122.997 419.882 123.108 420.904 123.531C421.926 123.955 422.8 124.671 423.415 125.59C424.029 126.51 424.358 127.59 424.358 128.695C424.356 130.179 423.764 131.602 422.711 132.65C421.659 133.699 420.233 134.287 418.746 134.285V134.285Z" fill="#00D2CB"/>
<path fill-rule="evenodd" clip-rule="evenodd" d="M418.763 129.246C418.86 129.246 418.955 129.217 419.036 129.163C419.116 129.109 419.179 129.032 419.216 128.942C419.253 128.853 419.263 128.754 419.244 128.659C419.225 128.564 419.178 128.477 419.109 128.408C419.04 128.339 418.953 128.293 418.857 128.274C418.762 128.255 418.663 128.265 418.573 128.302C418.484 128.339 418.407 128.402 418.353 128.483C418.299 128.564 418.27 128.658 418.27 128.755C418.27 128.886 418.323 129.011 418.415 129.103C418.507 129.195 418.632 129.246 418.763 129.246V129.246Z" fill="white"/>
</svg>
