<svg width="304" height="81" viewBox="0 0 304 81" fill="none" xmlns="http://www.w3.org/2000/svg">
<path d="M291.42 40.6678C291.42 40.3117 291.279 39.9702 291.026 39.7184C290.774 39.4666 290.432 39.3252 290.075 39.3252H241.963C241.649 39.3256 241.345 39.4352 241.103 39.6351C240.861 39.8351 240.697 40.113 240.639 40.4208C240.639 40.453 240.639 40.4816 240.639 40.5138C240.639 40.5461 240.639 40.6105 240.639 40.6642V40.7215C240.449 45.0787 239.227 49.329 237.074 53.1244C234.921 56.9197 231.897 60.1521 228.252 62.5569C224.606 64.9617 220.441 66.4705 216.098 66.9598C211.756 67.449 207.359 66.9048 203.267 65.3717C203.024 65.2788 202.759 65.2584 202.504 65.3131C202.249 65.3677 202.016 65.4951 201.832 65.6796L199.278 68.2215C199.122 68.376 199.007 68.5662 198.942 68.7755C198.877 68.9848 198.864 69.2068 198.906 69.4221C198.947 69.6374 199.04 69.8393 199.178 70.0101C199.315 70.1809 199.492 70.3155 199.694 70.4019C204.362 72.3982 209.422 73.3165 214.495 73.0883C219.568 72.8602 224.524 71.4915 228.993 69.0843C233.463 66.6772 237.329 63.2938 240.305 59.1867C243.28 55.0796 245.288 50.3549 246.178 45.3651H282.161L274.006 53.4816C273.755 53.7333 273.613 54.0746 273.613 54.4304C273.613 54.7861 273.755 55.1274 274.006 55.3791L276.396 57.7528C276.648 58.0043 276.99 58.1455 277.346 58.1455C277.703 58.1455 278.045 58.0043 278.297 57.7528L290.968 45.1431C291.121 44.9879 291.234 44.7973 291.295 44.5882C291.378 44.4138 291.421 44.2229 291.42 44.0297V40.6678Z" fill="#2B2979"/>
<path d="M211.67 12.1082C212.012 12.089 212.335 11.9395 212.57 11.6904C212.806 11.4413 212.937 11.1117 212.936 10.7692V7.40731C212.934 7.22822 212.897 7.05131 212.825 6.88712C212.753 6.72292 212.649 6.57478 212.519 6.45152C212.389 6.32827 212.235 6.2324 212.067 6.16964C211.899 6.10688 211.72 6.0785 211.541 6.08619C206.041 6.31268 200.682 7.88356 195.934 10.6608C191.185 13.438 187.193 17.3366 184.307 22.014C181.422 26.6914 179.731 32.0044 179.385 37.4863C179.039 42.9681 180.046 48.451 182.32 53.4532C182.411 53.6495 182.549 53.8209 182.72 53.9529C182.892 54.0849 183.093 54.1734 183.307 54.211C183.52 54.2487 183.74 54.2342 183.947 54.169C184.153 54.1037 184.341 53.9896 184.494 53.8362L187.034 51.3086C187.217 51.124 187.342 50.8904 187.394 50.6361C187.447 50.3819 187.424 50.1179 187.328 49.8765C185.684 45.7968 185.043 41.3834 185.459 37.0057C185.875 32.6281 187.336 28.4137 189.72 24.7153C192.104 21.017 195.34 17.9423 199.159 15.7489C202.978 13.5555 207.268 12.3071 211.67 12.1082Z" fill="#2B2979"/>
<path fill-rule="evenodd" clip-rule="evenodd" d="M212.284 52.9197C214.937 52.9126 217.529 52.1209 219.732 50.6444C221.935 49.168 223.65 47.0732 224.661 44.6245C225.671 42.1759 225.932 39.4832 225.41 36.8867C224.888 34.2903 223.607 31.9064 221.728 30.0364C219.849 28.1663 217.457 26.8939 214.854 26.3798C212.251 25.8658 209.553 26.1332 207.102 27.1482C204.651 28.1633 202.557 29.8805 201.083 32.0829C199.61 34.2853 198.823 36.8741 198.823 39.5223C198.835 43.0782 200.258 46.4847 202.78 48.9958C205.303 51.5068 208.721 52.9178 212.284 52.9197Z" fill="#2B2979"/>
<path fill-rule="evenodd" clip-rule="evenodd" d="M189.851 39.5229C189.841 43.9528 191.148 48.2861 193.607 51.9743C196.066 55.6625 199.566 58.5397 203.664 60.2418C207.762 61.944 212.274 62.3945 216.629 61.5363C220.984 60.6782 224.986 58.5499 228.128 55.421C231.27 52.2921 233.412 48.3031 234.282 43.959C235.151 39.6149 234.71 35.111 233.014 31.0173C231.317 26.9236 228.442 23.4242 224.752 20.962C221.062 18.4998 216.722 17.1856 212.284 17.1856C206.342 17.178 200.641 19.5258 196.434 23.7128C192.227 27.8997 189.859 33.5828 189.851 39.5121V39.5229ZM212.284 57.3848C208.745 57.377 205.289 56.3228 202.351 54.3554C199.412 52.388 197.125 49.5956 195.776 46.3311C194.427 43.0666 194.078 39.4764 194.774 36.0141C195.469 32.5518 197.176 29.3728 199.681 26.8787C202.186 24.3846 205.375 22.6873 208.846 22.0013C212.317 21.3153 215.913 21.6713 219.181 23.0244C222.45 24.3774 225.243 26.6669 227.208 29.6034C229.173 32.5399 230.221 35.9918 230.221 39.5229C230.216 44.2652 228.323 48.8111 224.959 52.1608C221.595 55.5105 217.036 57.3896 212.284 57.3848Z" fill="#00D2CB"/>
<path fill-rule="evenodd" clip-rule="evenodd" d="M212.337 41.2838C212.647 41.2831 212.951 41.1905 213.209 41.0178C213.467 40.845 213.667 40.5999 213.786 40.3132C213.904 40.0266 213.935 39.7114 213.874 39.4075C213.813 39.1035 213.663 38.8245 213.443 38.6055C213.223 38.3865 212.943 38.2376 212.638 38.1773C212.334 38.1171 212.018 38.1484 211.731 38.2672C211.444 38.386 211.199 38.587 211.026 38.8448C210.854 39.1026 210.762 39.4056 210.762 39.7156C210.763 40.1318 210.929 40.5307 211.224 40.8247C211.52 41.1187 211.92 41.2838 212.337 41.2838Z" fill="white"/>
<path d="M31.8698 27.1604H31.1236C30.7019 27.1701 30.2821 27.1009 29.8859 26.9563C29.5366 26.8411 29.2109 26.664 28.9245 26.4336C28.6839 26.2396 28.4892 25.9951 28.354 25.7175C28.2366 25.4713 28.1742 25.2025 28.1711 24.9299C28.1501 24.6981 28.1928 24.465 28.2946 24.2555C28.3964 24.0461 28.5533 23.8683 28.7487 23.7412C29.2007 23.4863 29.7151 23.3623 30.2339 23.3832C30.4025 23.3832 30.8438 23.4297 31.1523 23.4691C31.2404 23.4759 31.3278 23.4501 31.398 23.3966C31.4682 23.3431 31.5161 23.2657 31.5326 23.1791L31.712 22.1408C31.7206 22.0871 31.7179 22.0323 31.7042 21.9796C31.6905 21.927 31.666 21.8778 31.6323 21.8351C31.5986 21.7924 31.5564 21.7571 31.5084 21.7315C31.4604 21.7058 31.4075 21.6904 31.3532 21.6861C30.9119 21.6503 30.277 21.5966 30.1048 21.5966C29.544 21.586 28.9854 21.6671 28.4509 21.8365C28.028 21.9745 27.6349 22.1907 27.2921 22.4738C26.9951 22.7246 26.7605 23.0408 26.6069 23.3975C26.4608 23.7368 26.3851 24.1022 26.3845 24.4716C26.3821 24.8016 26.4305 25.1301 26.528 25.4454C26.6149 25.7216 26.7354 25.9861 26.8867 26.2331C27.0132 26.443 27.165 26.6366 27.3388 26.8095C27.4686 26.9401 27.609 27.0599 27.7585 27.1675H25.7854C25.667 27.1675 25.5535 27.2142 25.4695 27.2973C25.3855 27.3805 25.3379 27.4934 25.3369 27.6115V28.4779C25.3369 28.5365 25.3485 28.5945 25.3711 28.6486C25.3937 28.7027 25.4268 28.7518 25.4685 28.7931C25.5102 28.8344 25.5596 28.867 25.614 28.8891C25.6684 28.9112 25.7266 28.9223 25.7854 28.9219H31.4142C31.535 28.9219 31.6509 28.8739 31.7364 28.7887C31.8218 28.7034 31.8698 28.5878 31.8698 28.4672V27.1604Z" fill="#2B2979"/>
<path d="M55.7228 20.4289C55.9772 20.4294 56.2289 20.377 56.4619 20.275C56.687 20.1814 56.8927 20.0466 57.0682 19.8776C57.2425 19.7098 57.3816 19.509 57.4771 19.2868C57.5765 19.0542 57.6277 18.804 57.6277 18.5511C57.6277 18.2982 57.5765 18.048 57.4771 17.8153C57.3817 17.59 57.2428 17.3856 57.0682 17.2139C56.8951 17.0407 56.6906 16.9022 56.4655 16.8057C56.2318 16.7064 55.9804 16.6553 55.7264 16.6553C55.4724 16.6553 55.2211 16.7064 54.9874 16.8057C54.7638 16.9011 54.5613 17.0398 54.3919 17.2139C54.2207 17.3869 54.0843 17.5911 53.9901 17.8153C53.8636 18.1011 53.8112 18.4139 53.8378 18.7251C53.8643 19.0363 53.9688 19.3359 54.1418 19.5962C54.3147 19.8565 54.5505 20.0692 54.8274 20.2148C55.1043 20.3603 55.4135 20.4339 55.7264 20.4289" fill="#2D2571"/>
<path d="M50.6499 20.4289C50.9042 20.429 51.1559 20.3766 51.3889 20.275C51.6141 20.1814 51.8197 20.0466 51.9952 19.8776C52.1685 19.7088 52.3073 19.5082 52.4042 19.2868C52.5036 19.0542 52.5548 18.804 52.5548 18.5511C52.5548 18.2982 52.5036 18.048 52.4042 17.8153C52.2085 17.361 51.8449 16.9994 51.3889 16.8057C51.1552 16.7064 50.9039 16.6553 50.6499 16.6553C50.3959 16.6553 50.1446 16.7064 49.9109 16.8057C49.6872 16.9011 49.4848 17.0398 49.3153 17.2139C49.1506 17.3884 49.0203 17.5925 48.9315 17.8153C48.806 18.1011 48.7544 18.4137 48.7814 18.7246C48.8083 19.0354 48.913 19.3345 49.0857 19.5945C49.2585 19.8546 49.4938 20.0672 49.7702 20.213C50.0466 20.3587 50.3552 20.433 50.6678 20.4289" fill="#2D2571"/>
<path d="M77.654 28.8173C77.3982 28.256 77.0818 27.7242 76.7105 27.2313C76.3317 26.7238 75.8823 26.2729 75.3759 25.8922C74.847 25.4983 74.2584 25.1913 73.6324 24.9829C72.9397 24.7452 72.2123 24.6242 71.4798 24.6248C71.0765 24.628 70.6742 24.6676 70.278 24.743C69.8051 24.8307 69.3465 24.9825 68.9147 25.1941C68.401 25.4463 67.9193 25.7588 67.4797 26.125C66.9365 26.5806 66.4542 27.104 66.0447 27.6824C65.522 28.418 65.0715 29.2021 64.6994 30.0239C64.2142 31.0791 63.8205 32.1739 63.5227 33.2962C63.4445 33.6278 63.3007 33.9405 63.0999 34.2159C62.8991 34.4913 62.6452 34.7239 62.3531 34.9002C61.7556 35.2428 61.0762 35.4173 60.3871 35.405H59.3898C58.5136 35.419 57.639 35.3264 56.7853 35.1293C56.1085 34.97 55.4658 34.6911 54.8875 34.3059V25.9209C54.8865 25.6575 54.781 25.4053 54.5941 25.2194C54.4071 25.0335 54.154 24.9292 53.8901 24.9292H52.6811C52.5503 24.9287 52.4207 24.954 52.2997 25.0036C52.1787 25.0532 52.0688 25.1262 51.9761 25.2184C51.8835 25.3105 51.8099 25.42 51.7598 25.5405C51.7096 25.6611 51.6838 25.7904 51.6838 25.9209V33.4144C51.7196 33.9379 51.6051 34.4608 51.3537 34.9217C51.2614 35.0762 51.1299 35.2035 50.9724 35.2909C50.8149 35.3783 50.637 35.4226 50.4568 35.4193H46.6971C45.6873 35.4423 44.6799 35.3132 43.7087 35.0363C42.9433 34.8072 42.2386 34.411 41.6458 33.8762V14.1382C41.6449 13.8749 41.5394 13.6226 41.3525 13.4367C41.1655 13.2509 40.9124 13.1465 40.6485 13.1465H39.4395C39.3085 13.146 39.1788 13.1713 39.0576 13.2209C38.9364 13.2705 38.8262 13.3434 38.7332 13.4355C38.6403 13.5276 38.5664 13.637 38.5159 13.7576C38.4653 13.8782 38.4391 14.0075 38.4386 14.1382V33.4144C38.4753 33.9376 38.362 34.4603 38.1121 34.9217C38.0192 35.0764 37.8871 35.204 37.7289 35.2914C37.5708 35.3787 37.3924 35.4229 37.2116 35.4193H25.2149C23.699 35.439 22.1834 35.3649 20.6767 35.1974C19.7828 35.1104 18.911 34.868 18.1008 34.4813C17.5762 34.231 17.167 33.7906 16.9564 33.2497C16.764 32.6643 16.673 32.0504 16.6873 31.4345C16.6873 30.9548 16.7257 30.476 16.8021 30.0024C16.8217 29.8704 16.8145 29.7358 16.7807 29.6066C16.747 29.4775 16.6874 29.3565 16.6057 29.2508C16.524 29.1452 16.4217 29.0571 16.305 28.9918C16.1884 28.9266 16.0597 28.8855 15.9268 28.871L14.8828 28.7744C14.6285 28.7507 14.3749 28.8256 14.1745 28.9836C13.9741 29.1416 13.8423 29.3705 13.8065 29.6229C13.7527 29.9809 13.7061 30.3389 13.6881 30.4822C13.6559 30.7972 13.6272 31.1015 13.6092 31.3951C13.5913 31.6887 13.5841 31.9501 13.5841 32.1756C13.5814 32.7449 13.6233 33.3135 13.7097 33.8762C13.7856 34.4069 13.9467 34.9219 14.1868 35.4014C14.4439 35.8942 14.7906 36.3349 15.2093 36.7011C15.719 37.141 16.3034 37.4865 16.9349 37.7215C17.7788 38.0385 18.6563 38.2584 19.5502 38.3766C20.7698 38.5435 22 38.6213 23.231 38.6094H37.8753C38.264 38.6149 38.6513 38.5606 39.0234 38.4482C39.3473 38.3477 39.6553 38.2019 39.9382 38.015C40.2086 37.8391 40.4506 37.623 40.6557 37.3742C40.8501 37.1354 41.0196 36.8775 41.1615 36.6044C41.4644 36.8935 41.7908 37.157 42.1373 37.3921C42.5146 37.6467 42.9174 37.8614 43.3392 38.0329C43.8215 38.2269 44.3229 38.3697 44.8352 38.459C45.4501 38.5644 46.0732 38.6147 46.6971 38.6094H51.1456C51.8071 38.6347 52.4612 38.4641 53.0255 38.1189C53.5046 37.8134 53.9091 37.4048 54.2094 36.9231C54.8382 37.437 55.5472 37.8446 56.3081 38.1296C57.2959 38.4768 58.3394 38.6394 59.3862 38.6094H60.9719C61.414 38.6132 61.8552 38.5712 62.2885 38.484C62.667 38.4067 63.0304 38.2689 63.3648 38.0759C63.7061 37.8744 64.0136 37.6207 64.276 37.324C64.5824 36.9672 64.8472 36.5769 65.0653 36.1605C65.3805 36.5066 65.7303 36.8198 66.1093 37.0949C66.558 37.4229 67.0388 37.7048 67.5443 37.9363C68.128 38.1979 68.736 38.4017 69.3596 38.5449C70.0652 38.7089 70.7877 38.7894 71.5121 38.7848C72.2537 38.7941 72.9925 38.6927 73.7041 38.484C74.3226 38.2998 74.9102 38.0246 75.4476 37.6677C75.9438 37.3384 76.3896 36.9392 76.7715 36.4827C77.1274 36.0555 77.4298 35.5866 77.6719 35.0864C77.9055 34.6065 78.0848 34.1022 78.2065 33.5827C78.3212 33.1028 78.3814 32.6116 78.3858 32.1183C78.3816 31.5766 78.3215 31.0367 78.2065 30.5072C78.0849 29.93 77.8996 29.3681 77.654 28.8316M75.1893 34.0123C74.9876 34.408 74.6747 34.7365 74.2889 34.9575C73.852 35.2059 73.3727 35.371 72.8754 35.4444C72.2672 35.5449 71.6514 35.5928 71.035 35.5876C70.5353 35.586 70.0369 35.5381 69.5461 35.4444C69.0521 35.3572 68.5643 35.2376 68.086 35.0864C67.667 34.9589 67.26 34.7947 66.8698 34.5959C66.6047 34.4723 66.3687 34.2942 66.1774 34.0732C66.3052 33.2604 66.5193 32.4635 66.816 31.6959C67.1011 30.9679 67.4811 30.2805 67.9461 29.6515C68.3554 29.0854 68.8663 28.5998 69.4529 28.2194C70.0094 27.8613 70.6562 27.6676 71.3184 27.6609C71.993 27.6355 72.66 27.8112 73.2341 28.1657C73.7438 28.4909 74.182 28.916 74.5221 29.4152C74.8547 29.897 75.1078 30.4289 75.2719 30.9905C75.4193 31.4738 75.5002 31.9749 75.5122 32.4799C75.5324 33.0117 75.4254 33.5407 75.2001 34.023" fill="#2B2979"/>
<path d="M158.38 25.903V35.4193H155.812C154.969 35.4259 154.127 35.3455 153.3 35.1795C152.565 35.0339 151.867 34.7416 151.248 34.3202V27.8363C151.246 27.5761 151.141 27.3273 150.956 27.1432C150.772 26.9592 150.523 26.8546 150.262 26.8518H149.053C148.789 26.8527 148.535 26.9579 148.349 27.1443C148.162 27.3308 148.056 27.5834 148.055 27.8471V33.418C148.091 33.9403 147.976 34.462 147.725 34.9217C147.633 35.0767 147.501 35.2044 147.342 35.2918C147.184 35.3793 147.006 35.4233 146.825 35.4193H145.594C144.773 35.4222 143.954 35.3442 143.148 35.1866C142.391 35.0424 141.674 34.7411 141.042 34.3023V29.3579C141.044 29.2269 141.02 29.0968 140.971 28.9751C140.922 28.8534 140.85 28.7425 140.759 28.6487C140.667 28.5549 140.558 28.4801 140.437 28.4285C140.316 28.377 140.186 28.3497 140.055 28.3483H138.835C138.703 28.3478 138.572 28.3737 138.45 28.4244C138.328 28.4752 138.217 28.5498 138.124 28.6438C138.031 28.7378 137.958 28.8495 137.909 28.9721C137.86 29.0947 137.836 29.2259 137.838 29.3579V33.418C137.874 33.9403 137.759 34.462 137.508 34.9217C137.416 35.0762 137.284 35.2035 137.127 35.2909C136.969 35.3783 136.791 35.4226 136.611 35.4193H108.664C107.662 35.4421 106.661 35.313 105.697 35.0363C104.938 34.8072 104.237 34.4176 103.642 33.8941V14.1382C103.642 14.0077 103.616 13.8784 103.566 13.7579C103.516 13.6373 103.442 13.5278 103.349 13.4357C103.257 13.3436 103.147 13.2706 103.026 13.221C102.905 13.1713 102.775 13.146 102.644 13.1465H101.435C101.171 13.1465 100.918 13.2509 100.731 13.4367C100.544 13.6226 100.439 13.8749 100.438 14.1382V33.418C100.474 33.94 100.361 34.4615 100.112 34.9217C100.019 35.0762 99.8877 35.2035 99.7302 35.2909C99.5727 35.3783 99.3948 35.4226 99.2146 35.4193H94.4576V21.0553C94.4547 20.7869 94.3456 20.5305 94.1541 20.342C93.9626 20.1535 93.7041 20.0483 93.4351 20.0492H92.2763C92.0095 20.052 91.7543 20.1588 91.5653 20.3468C91.3763 20.5347 91.2684 20.789 91.2647 21.0553V35.4193H84.4483C84.1629 35.4193 83.8891 35.5325 83.6873 35.7339C83.4855 35.9354 83.3721 36.2086 83.3721 36.4934V37.5675C83.3721 37.8524 83.4855 38.1256 83.6873 38.327C83.8891 38.5284 84.1629 38.6416 84.4483 38.6416H99.8748C100.603 38.6715 101.322 38.4655 101.923 38.0544C102.432 37.6901 102.846 37.2103 103.132 36.6545C103.433 36.9444 103.758 37.208 104.104 37.4422C104.48 37.696 104.884 37.9073 105.306 38.0723C105.789 38.2621 106.291 38.4025 106.802 38.4912C107.411 38.5962 108.028 38.6466 108.646 38.6416H137.286C137.948 38.6668 138.603 38.5001 139.173 38.1618C139.653 37.8592 140.06 37.453 140.364 36.9732C140.716 37.2788 141.104 37.5409 141.519 37.7537C141.934 37.9672 142.369 38.1387 142.818 38.2657C143.266 38.3964 143.724 38.4921 144.188 38.5521C144.649 38.6104 145.112 38.6403 145.576 38.6416H147.496C148.151 38.6655 148.8 38.5015 149.365 38.169C149.848 37.8733 150.255 37.4702 150.556 36.9911C150.929 37.3186 151.345 37.5933 151.794 37.8074C152.231 38.016 152.686 38.1849 153.153 38.3122C153.601 38.4348 154.058 38.521 154.52 38.57C154.94 38.6153 155.361 38.6392 155.783 38.6416H160.569C160.842 38.6359 161.102 38.5224 161.292 38.3257C161.481 38.1291 161.585 37.8654 161.58 37.5926V25.903C161.579 25.6396 161.474 25.3874 161.287 25.2015C161.1 25.0156 160.847 24.9113 160.583 24.9113H159.374C159.243 24.9108 159.114 24.9361 158.993 24.9857C158.872 25.0353 158.762 25.1083 158.669 25.2005C158.576 25.2926 158.503 25.4021 158.453 25.5226C158.403 25.6432 158.377 25.7724 158.377 25.903" fill="#2B2979"/>
<path d="M11.7647 66.8041C13.7283 67.6632 15.8486 68.1081 17.9927 68.1109C21.5443 68.1109 23.6179 66.7146 23.6179 64.6953C23.6179 62.8228 22.1829 61.7523 18.5487 60.7141C14.1612 59.5541 11.4454 57.8498 11.4454 55.0393C11.4454 51.9209 14.9181 49.6045 20.1452 49.6045C22.9004 49.6045 24.8951 50.0771 26.0933 50.5819L25.1354 52.6943C23.5097 52.052 21.7752 51.7287 20.0268 51.7419C16.3532 51.7419 14.9576 53.3745 14.9576 54.7422C14.9576 56.6147 16.5935 57.5348 20.3066 58.6053C24.8556 59.9121 27.1696 61.5447 27.1696 64.4877C27.1696 67.5774 24.0986 70.2519 17.7523 70.2519C15.1585 70.2519 12.3243 69.6862 10.8857 68.9737L11.7647 66.8041Z" fill="#2B2979"/>
<path d="M42.6143 69.9545L42.3345 68.1393H42.2161C41.1398 69.2707 39.0627 70.2875 36.311 70.2875C32.397 70.2875 30.4023 68.236 30.4023 66.1558C30.4023 62.683 34.5531 60.7854 42.0152 60.8105V60.5062C42.0152 59.3175 41.5775 57.1801 37.6276 57.1801C35.896 57.1783 34.1839 57.5444 32.6051 58.2542L31.8087 56.5321C33.4015 55.7587 35.7191 55.2539 38.1514 55.2539C44.0601 55.2539 45.4951 58.2542 45.4951 61.1363V66.5067C45.4713 67.6643 45.5784 68.8209 45.8144 69.9545H42.6143ZM42.1157 62.6149C38.2842 62.5541 33.9325 63.0625 33.9325 65.8551C33.9325 67.545 35.45 68.3613 37.2438 68.3613C39.7551 68.3613 41.3551 67.1726 41.9076 65.9518C42.0303 65.6913 42.0986 65.4087 42.1085 65.1211L42.1157 62.6149Z" fill="#2B2979"/>
<path d="M51.1562 48.8604H54.672V69.9553H51.1562V48.8604Z" fill="#2B2979"/>
<path d="M71.2676 69.9545L70.9914 68.1393H70.8694C69.7932 69.2707 67.716 70.2875 64.9643 70.2875C61.0539 70.2875 59.0557 68.236 59.0557 66.1558C59.0557 62.683 63.2064 60.7854 70.6721 60.8105V60.5062C70.6721 59.3175 70.2308 57.1801 66.281 57.1801C64.5494 57.1783 62.8372 57.5444 61.2584 58.2542L60.462 56.5321C62.0584 55.7587 64.3724 55.2539 66.8083 55.2539C72.7134 55.2539 74.1484 58.2542 74.1484 61.1363V66.5067C74.1246 67.6643 74.2317 68.8209 74.4677 69.9545H71.2676ZM70.751 62.6149C66.9196 62.5541 62.5679 63.0625 62.5679 65.8551C62.5679 67.545 64.0854 68.3613 65.8828 68.3613C68.394 68.3613 69.9941 67.1726 70.5466 65.9518C70.6709 65.6919 70.7393 65.409 70.7475 65.1211L70.751 62.6149Z" fill="#2B2979"/>
<path d="M79.8102 59.4647C79.8229 58.1656 79.7702 56.8667 79.6523 55.5729H82.7233L82.8847 57.8929H83.0139C84.0901 56.5253 85.8839 55.2471 89.0804 55.2471C91.7137 55.2471 93.7083 56.4358 94.5478 58.1292H94.6267C95.2061 57.3626 95.9392 56.7249 96.7793 56.2568C98.0841 55.5397 99.5599 55.1907 101.048 55.2471C103.603 55.2471 107.395 56.4966 107.395 61.4875V69.9549H103.962V61.8133C103.962 59.0494 102.605 57.3881 99.7713 57.3881C97.7766 57.3881 96.2196 58.4873 95.6205 59.7618C95.4417 60.1758 95.3477 60.6214 95.3442 61.0722V69.9549H91.911V61.3372C91.911 59.0494 90.5549 57.3989 87.8786 57.3989C85.683 57.3989 84.0865 58.7057 83.5305 60.0125C83.3363 60.4101 83.2404 60.8484 83.2506 61.2906V69.9656H79.8174L79.8102 59.4647Z" fill="#2B2979"/>
<path d="M117.167 51.4453V55.5734H122.19V57.564H117.167V65.3189C117.167 67.109 117.845 68.1115 119.8 68.1115C120.483 68.1194 121.164 68.0594 121.835 67.9325L121.996 69.8944C120.98 70.1576 119.932 70.2781 118.882 70.2525C117.246 70.2525 115.929 69.8658 115.09 69.1533C114.093 68.38 113.734 67.1018 113.734 65.4084V57.564H110.738V55.5734H113.734V52.1291L117.167 51.4453Z" fill="#2B2979"/>
<path d="M136.826 69.9545L136.546 68.1393H136.428C135.352 69.2707 133.275 70.2875 130.519 70.2875C126.609 70.2875 124.614 68.236 124.614 66.1558C124.614 62.683 128.765 60.7854 136.227 60.8105V60.5062C136.227 59.3175 135.789 57.1801 131.836 57.1801C130.104 57.1776 128.392 57.5438 126.813 58.2542L126.013 56.5321C127.61 55.7587 129.924 55.2539 132.36 55.2539C138.265 55.2539 139.703 58.2542 139.703 61.1363V66.5067C139.678 67.6643 139.785 68.8212 140.023 69.9545H136.826ZM136.306 62.6149C132.475 62.5541 128.126 63.0625 128.126 65.8551C128.126 67.545 129.64 68.3613 131.438 68.3613C133.949 68.3613 135.549 67.1726 136.102 65.9518C136.223 65.6911 136.29 65.4085 136.299 65.1211L136.306 62.6149Z" fill="#2B2979"/>
<path d="M148.852 62.1718H148.931C149.411 61.667 150.089 61.0404 150.649 60.5356L156.317 55.5734H160.547L153.081 61.488L161.58 69.9553H157.311L150.645 63.0633L148.852 64.5455V69.9553H145.379V48.8604H148.852V62.1718Z" fill="#2B2979"/>
</svg>
