<svg width="317" height="85" viewBox="0 0 317 85" fill="none" xmlns="http://www.w3.org/2000/svg">
<path d="M304.363 42.6765C304.363 42.3028 304.215 41.9445 303.951 41.6802C303.687 41.416 303.329 41.2676 302.956 41.2676H252.62C252.292 41.268 251.974 41.383 251.721 41.5928C251.468 41.8027 251.296 42.0942 251.235 42.4172C251.235 42.4511 251.235 42.4811 251.235 42.5149C251.235 42.5487 251.235 42.6164 251.235 42.6727V42.7328C251.036 47.3052 249.758 51.7654 247.505 55.7482C245.253 59.7309 242.09 63.123 238.276 65.6465C234.461 68.1701 230.104 69.7534 225.561 70.2668C221.017 70.7802 216.417 70.2091 212.137 68.6003C211.882 68.5028 211.605 68.4815 211.338 68.5388C211.072 68.5962 210.828 68.7298 210.636 68.9234L207.963 71.5909C207.8 71.753 207.68 71.9526 207.612 72.1722C207.544 72.3919 207.531 72.6249 207.574 72.8508C207.617 73.0766 207.714 73.2885 207.858 73.4678C208.002 73.647 208.188 73.7882 208.399 73.879C213.282 75.9738 218.576 76.9374 223.883 76.698C229.191 76.4586 234.376 75.0223 239.052 72.4963C243.727 69.9703 247.773 66.4198 250.886 62.1099C253.999 57.8 256.099 52.8419 257.03 47.6058H294.676L286.145 56.123C285.881 56.3872 285.733 56.7453 285.733 57.1187C285.733 57.492 285.881 57.8501 286.145 58.1143L288.644 60.6052C288.908 60.8691 289.266 61.0173 289.639 61.0173C290.012 61.0173 290.37 60.8691 290.634 60.6052L303.89 47.3728C304.05 47.2099 304.168 47.0099 304.232 46.7905C304.319 46.6074 304.364 46.4071 304.363 46.2044V42.6765Z" fill="white"/>
<path d="M220.927 12.7064C221.286 12.6863 221.623 12.5293 221.869 12.268C222.116 12.0066 222.253 11.6607 222.252 11.3013V7.77339C222.25 7.58546 222.211 7.39982 222.136 7.22751C222.061 7.0552 221.952 6.89975 221.816 6.77041C221.68 6.64106 221.519 6.54047 221.343 6.47461C221.167 6.40875 220.98 6.37896 220.792 6.38704C215.039 6.62471 209.432 8.27316 204.464 11.1875C199.496 14.1019 195.319 18.193 192.3 23.1014C189.282 28.0098 187.513 33.5852 187.151 39.3377C186.788 45.0903 187.843 50.8439 190.222 56.0931C190.317 56.2991 190.461 56.479 190.64 56.6175C190.82 56.756 191.031 56.8489 191.254 56.8884C191.477 56.9279 191.707 56.9128 191.923 56.8443C192.139 56.7758 192.336 56.656 192.496 56.4951L195.153 53.8426C195.345 53.6489 195.476 53.4038 195.53 53.137C195.585 52.8701 195.561 52.5932 195.461 52.3398C193.741 48.0587 193.07 43.4273 193.506 38.8335C193.941 34.2396 195.47 29.8171 197.963 25.9361C200.457 22.0551 203.843 18.8287 207.839 16.5269C211.834 14.2252 216.322 12.9151 220.927 12.7064Z" fill="white"/>
<path fill-rule="evenodd" clip-rule="evenodd" d="M221.569 55.5329C224.345 55.5255 227.057 54.6946 229.361 53.1453C231.666 51.596 233.46 49.3977 234.518 46.8281C235.575 44.2585 235.848 41.4329 235.302 38.7082C234.755 35.9835 233.415 33.482 231.449 31.5196C229.483 29.5571 226.981 28.2219 224.257 27.6824C221.534 27.143 218.712 27.4236 216.148 28.4888C213.584 29.554 211.392 31.356 209.851 33.6671C208.309 35.9783 207.486 38.695 207.486 41.474C207.498 45.2055 208.987 48.7802 211.626 51.4152C214.266 54.0503 217.841 55.531 221.569 55.5329Z" fill="white"/>
<path fill-rule="evenodd" clip-rule="evenodd" d="M198.099 41.4746C198.088 46.1233 199.456 50.6706 202.028 54.5409C204.601 58.4112 208.263 61.4305 212.55 63.2167C216.838 65.0029 221.558 65.4757 226.114 64.5751C230.671 63.6746 234.857 61.4413 238.145 58.1578C241.432 54.8744 243.673 50.6884 244.583 46.1298C245.492 41.5712 245.031 36.8448 243.256 32.549C241.481 28.2531 238.473 24.5809 234.612 21.9972C230.752 19.4134 226.212 18.0342 221.568 18.0342C215.352 18.0262 209.388 20.49 204.986 24.8837C200.585 29.2774 198.108 35.2412 198.099 41.4633V41.4746ZM221.568 60.2186C217.866 60.2104 214.25 59.1042 211.176 57.0396C208.102 54.975 205.709 52.0447 204.298 48.619C202.887 45.1933 202.522 41.4258 203.249 37.7925C203.976 34.1593 205.763 30.8233 208.383 28.206C211.004 25.5887 214.34 23.8076 217.971 23.0877C221.603 22.3678 225.366 22.7414 228.785 24.1613C232.204 25.5812 235.126 27.9837 237.182 31.0653C239.237 34.1468 240.335 37.7691 240.335 41.4746C240.329 46.4511 238.348 51.2215 234.829 54.7366C231.31 58.2517 226.54 60.2236 221.568 60.2186Z" fill="#00D2CB"/>
<path fill-rule="evenodd" clip-rule="evenodd" d="M221.625 43.3224C221.95 43.3217 222.268 43.2246 222.538 43.0433C222.807 42.862 223.018 42.6047 223.141 42.304C223.265 42.0032 223.297 41.6725 223.233 41.3535C223.17 41.0345 223.013 40.7417 222.783 40.5119C222.553 40.2821 222.26 40.1258 221.941 40.0626C221.622 39.9994 221.292 40.0322 220.992 40.1569C220.691 40.2815 220.435 40.4925 220.254 40.763C220.074 41.0335 219.978 41.3515 219.978 41.6768C219.979 42.1136 220.153 42.5322 220.461 42.8407C220.77 43.1492 221.189 43.3224 221.625 43.3224Z" fill="white"/>
<path d="M32.8191 28.5016H32.0384C31.5972 28.5118 31.158 28.4392 30.7436 28.2874C30.3781 28.1665 30.0373 27.9807 29.7377 27.7389C29.486 27.5353 29.2823 27.2788 29.1409 26.9875C29.0181 26.7291 28.9527 26.4471 28.9495 26.1609C28.9276 25.9177 28.9723 25.6731 29.0787 25.4533C29.1852 25.2336 29.3494 25.047 29.5538 24.9136C30.0267 24.6461 30.5648 24.516 31.1076 24.5379C31.284 24.5379 31.7457 24.5867 32.0685 24.628C32.1606 24.6352 32.2521 24.6081 32.3255 24.552C32.3989 24.4958 32.449 24.4145 32.4663 24.3237L32.654 23.2342C32.663 23.1778 32.6602 23.1202 32.6459 23.065C32.6315 23.0098 32.6059 22.9582 32.5707 22.9133C32.5354 22.8685 32.4913 22.8315 32.441 22.8046C32.3907 22.7777 32.3355 22.7615 32.2787 22.757C31.817 22.7194 31.1527 22.6631 30.9725 22.6631C30.3859 22.652 29.8014 22.737 29.2422 22.9148C28.7998 23.0597 28.3886 23.2865 28.0299 23.5836C27.7192 23.8467 27.4738 24.1785 27.313 24.5529C27.1601 24.909 27.081 25.2924 27.0803 25.68C27.0778 26.0263 27.1284 26.371 27.2305 26.7019C27.3214 26.9918 27.4474 27.2693 27.6058 27.5285C27.7381 27.7487 27.8969 27.9519 28.0787 28.1334C28.2145 28.2705 28.3614 28.3961 28.5179 28.5091H26.4535C26.3298 28.5091 26.211 28.558 26.1231 28.6453C26.0352 28.7326 25.9854 28.8511 25.9844 28.975V29.8842C25.9844 29.9457 25.9965 30.0066 26.0202 30.0633C26.0438 30.1201 26.0784 30.1716 26.122 30.2149C26.1656 30.2582 26.2174 30.2925 26.2743 30.3157C26.3312 30.3389 26.3921 30.3505 26.4535 30.35H32.3425C32.4689 30.35 32.5901 30.2998 32.6795 30.2103C32.7689 30.1208 32.8191 29.9994 32.8191 29.8729V28.5016Z" fill="white"/>
<path d="M57.7741 21.4376C58.0403 21.4381 58.3036 21.3831 58.5473 21.276C58.7829 21.1778 58.998 21.0364 59.1816 20.859C59.364 20.6829 59.5095 20.4721 59.6095 20.239C59.7134 19.9949 59.767 19.7323 59.767 19.467C59.767 19.2016 59.7134 18.939 59.6095 18.6949C59.5097 18.4584 59.3643 18.2439 59.1816 18.0637C59.0006 17.882 58.7866 17.7367 58.551 17.6354C58.3066 17.5312 58.0436 17.4775 57.7779 17.4775C57.5122 17.4775 57.2492 17.5312 57.0047 17.6354C56.7707 17.7355 56.5589 17.8811 56.3816 18.0637C56.2025 18.2453 56.0599 18.4596 55.9613 18.6949C55.829 18.9947 55.7742 19.323 55.8019 19.6496C55.8297 19.9762 55.939 20.2905 56.12 20.5637C56.3009 20.8369 56.5476 21.0601 56.8373 21.2128C57.127 21.3655 57.4505 21.4428 57.7779 21.4376" fill="white"/>
<path d="M52.467 21.4376C52.7331 21.4377 52.9964 21.3827 53.2402 21.276C53.4758 21.1778 53.6909 21.0364 53.8745 20.859C54.0557 20.6819 54.201 20.4714 54.3024 20.239C54.4063 19.9949 54.4599 19.7323 54.4599 19.467C54.4599 19.2016 54.4063 18.939 54.3024 18.6949C54.0976 18.2181 53.7172 17.8387 53.2402 17.6354C52.9957 17.5312 52.7327 17.4775 52.467 17.4775C52.2013 17.4775 51.9383 17.5312 51.6938 17.6354C51.4599 17.7355 51.2481 17.8811 51.0708 18.0637C50.8984 18.2469 50.7622 18.4611 50.6692 18.6949C50.538 18.9948 50.484 19.3228 50.5122 19.649C50.5404 19.9752 50.6498 20.2891 50.8306 20.5619C51.0113 20.8348 51.2575 21.0579 51.5467 21.2109C51.8359 21.3639 52.1587 21.4418 52.4858 21.4376" fill="white"/>
<path d="M80.7188 30.2406C80.4512 29.6516 80.1202 29.0935 79.7317 28.5762C79.3354 28.0437 78.8653 27.5706 78.3355 27.1711C77.7821 26.7577 77.1663 26.4355 76.5114 26.2168C75.7867 25.9674 75.0257 25.8405 74.2594 25.8411C73.8374 25.8444 73.4166 25.8859 73.002 25.9651C72.5073 26.0571 72.0274 26.2164 71.5758 26.4385C71.0383 26.7032 70.5343 27.0311 70.0744 27.4153C69.5061 27.8934 69.0015 28.4427 68.5731 29.0496C68.0263 29.8215 67.5549 30.6444 67.1656 31.5067C66.6581 32.6141 66.2462 33.763 65.9346 34.9407C65.8527 35.2886 65.7024 35.6167 65.4923 35.9058C65.2822 36.1948 65.0165 36.4389 64.711 36.6239C64.0859 36.9834 63.375 37.1665 62.6542 37.1536H61.6108C60.6941 37.1683 59.7791 37.0711 58.8859 36.8643C58.1778 36.6971 57.5054 36.4045 56.9004 36.0002V27.2011C56.8994 26.9248 56.789 26.6601 56.5934 26.465C56.3979 26.27 56.133 26.1604 55.8569 26.1604H54.5921C54.4552 26.1599 54.3196 26.1865 54.1931 26.2386C54.0665 26.2906 53.9514 26.3672 53.8545 26.4639C53.7576 26.5606 53.6806 26.6755 53.6282 26.802C53.5757 26.9285 53.5487 27.0642 53.5487 27.2011V35.0647C53.5861 35.6141 53.4663 36.1627 53.2034 36.6464C53.1068 36.8085 52.9692 36.9422 52.8044 37.0339C52.6396 37.1256 52.4535 37.1721 52.265 37.1687H48.3316C47.2751 37.1928 46.2211 37.0572 45.2051 36.7666C44.4043 36.5263 43.6671 36.1105 43.0469 35.5494V14.8366C43.0459 14.5603 42.9356 14.2956 42.74 14.1005C42.5444 13.9054 42.2796 13.7959 42.0035 13.7959H40.7386C40.6016 13.7954 40.4658 13.8219 40.3391 13.874C40.2123 13.926 40.097 14.0025 39.9997 14.0992C39.9025 14.1958 39.8252 14.3107 39.7723 14.4372C39.7194 14.5637 39.692 14.6995 39.6915 14.8366V35.0647C39.7298 35.6137 39.6114 36.1623 39.3499 36.6464C39.2528 36.8088 39.1145 36.9426 38.949 37.0343C38.7836 37.126 38.5969 37.1724 38.4078 37.1687H25.8568C24.2709 37.1893 22.6852 37.1115 21.1089 36.9357C20.1737 36.8444 19.2617 36.5901 18.414 36.1843C17.8652 35.9216 17.437 35.4595 17.2167 34.8919C17.0154 34.2775 16.9202 33.6334 16.9352 32.987C16.9352 32.4837 16.9754 31.9811 17.0553 31.4842C17.0758 31.3457 17.0682 31.2044 17.0329 31.0689C16.9976 30.9334 16.9353 30.8064 16.8498 30.6955C16.7643 30.5847 16.6573 30.4922 16.5353 30.4237C16.4132 30.3553 16.2786 30.3121 16.1395 30.297L15.0473 30.1955C14.7813 30.1707 14.5159 30.2493 14.3062 30.4151C14.0966 30.5809 13.9587 30.8211 13.9213 31.086C13.865 31.4617 13.8162 31.8374 13.7975 31.9876C13.7637 32.3183 13.7336 32.6376 13.7149 32.9457C13.6961 33.2538 13.6886 33.528 13.6886 33.7647C13.6857 34.3621 13.7297 34.9588 13.82 35.5494C13.8994 36.1062 14.0679 36.6467 14.3192 37.1499C14.5881 37.6669 14.9509 38.1294 15.3889 38.5137C15.9222 38.9753 16.5335 39.3379 17.1942 39.5844C18.0771 39.9172 18.9951 40.1479 19.9303 40.272C21.2063 40.4471 22.4934 40.5287 23.7812 40.5162H39.1022C39.5089 40.522 39.914 40.465 40.3033 40.3471C40.6422 40.2417 40.9644 40.0886 41.2604 39.8925C41.5433 39.7079 41.7965 39.4811 42.011 39.22C42.2144 38.9695 42.3917 38.6988 42.5402 38.4122C42.8571 38.7156 43.1985 38.9921 43.5611 39.2388C43.9558 39.506 44.3772 39.7314 44.8185 39.9113C45.3231 40.1148 45.8477 40.2647 46.3836 40.3584C47.0269 40.469 47.6789 40.5219 48.3316 40.5162H52.9857C53.6776 40.5428 54.362 40.3637 54.9524 40.0015C55.4536 39.6809 55.8768 39.2522 56.191 38.7466C56.8489 39.2859 57.5906 39.7136 58.3867 40.0128C59.4201 40.3771 60.5118 40.5478 61.607 40.5162H63.266C63.7284 40.5202 64.19 40.4761 64.6434 40.3847C65.0393 40.3035 65.4196 40.1589 65.7694 39.9564C66.1265 39.745 66.4482 39.4787 66.7228 39.1674C67.0433 38.793 67.3203 38.3833 67.5485 37.9464C67.8782 38.3096 68.2442 38.6382 68.6407 38.927C69.1101 39.2712 69.6131 39.567 70.142 39.8099C70.7527 40.0844 71.3888 40.2983 72.0412 40.4486C72.7794 40.6207 73.5352 40.7051 74.2932 40.7003C75.069 40.71 75.842 40.6037 76.5864 40.3847C77.2335 40.1913 77.8483 39.9026 78.4105 39.5281C78.9296 39.1824 79.396 38.7636 79.7955 38.2845C80.1679 37.8362 80.4842 37.3442 80.7376 36.8192C80.982 36.3157 81.1695 35.7864 81.2968 35.2413C81.4169 34.7377 81.4798 34.2223 81.4845 33.7046C81.48 33.1361 81.4171 32.5696 81.2968 32.0139C81.1696 31.4083 80.9758 30.8186 80.7188 30.2556M78.1403 35.6921C77.9292 36.1074 77.6019 36.452 77.1982 36.684C76.7412 36.9446 76.2397 37.1179 75.7194 37.195C75.0831 37.3004 74.4389 37.3507 73.794 37.3452C73.2712 37.3435 72.7498 37.2932 72.2364 37.195C71.7195 37.1034 71.2092 36.9779 70.7088 36.8192C70.2703 36.6854 69.8446 36.5132 69.4364 36.3045C69.159 36.1749 68.9121 35.988 68.712 35.756C68.8457 34.9031 69.0696 34.0668 69.3801 33.2613C69.6784 32.4973 70.0759 31.776 70.5624 31.116C70.9906 30.5219 71.5251 30.0123 72.1388 29.6132C72.721 29.2374 73.3977 29.0342 74.0905 29.0271C74.7963 29.0004 75.4941 29.1848 76.0947 29.5568C76.628 29.898 77.0864 30.3441 77.4422 30.868C77.7902 31.3736 78.055 31.9317 78.2266 32.5212C78.3809 33.0283 78.4655 33.5541 78.4781 34.0841C78.4992 34.6422 78.3873 35.1972 78.1516 35.7034" fill="white"/>
<path d="M165.175 27.1824V37.1687H162.488C161.606 37.1755 160.725 37.0911 159.861 36.9169C159.092 36.7641 158.361 36.4574 157.714 36.0152V29.2112C157.711 28.9381 157.601 28.677 157.408 28.4838C157.215 28.2907 156.954 28.1809 156.681 28.178H155.417C155.14 28.179 154.875 28.2893 154.68 28.485C154.484 28.6806 154.374 28.9457 154.373 29.2224V35.0684C154.41 35.6166 154.291 36.164 154.028 36.6464C153.931 36.8091 153.793 36.9431 153.627 37.0349C153.462 37.1266 153.275 37.1728 153.086 37.1687H151.798C150.939 37.1716 150.082 37.0898 149.239 36.9244C148.447 36.7731 147.697 36.4569 147.035 35.9964V30.8079C147.037 30.6705 147.012 30.5339 146.961 30.4062C146.911 30.2785 146.835 30.1621 146.739 30.0636C146.643 29.9652 146.529 29.8867 146.403 29.8326C146.276 29.7785 146.141 29.7499 146.003 29.7484H144.727C144.589 29.7479 144.452 29.7751 144.324 29.8283C144.196 29.8816 144.08 29.9598 143.983 30.0585C143.886 30.1572 143.809 30.2743 143.758 30.403C143.706 30.5317 143.681 30.6694 143.684 30.8079V35.0684C143.721 35.6166 143.601 36.164 143.338 36.6464C143.242 36.8085 143.104 36.9422 142.939 37.0339C142.775 37.1256 142.589 37.1721 142.4 37.1687H113.162C112.113 37.1926 111.066 37.057 110.058 36.7666C109.263 36.5262 108.53 36.1175 107.907 35.5681V14.8366C107.907 14.6996 107.88 14.564 107.828 14.4375C107.775 14.311 107.698 14.1961 107.601 14.0994C107.505 14.0027 107.389 13.9261 107.263 13.874C107.136 13.822 107.001 13.7954 106.864 13.7959H105.599C105.323 13.7959 105.058 13.9054 104.863 14.1005C104.667 14.2956 104.557 14.5603 104.556 14.8366V35.0684C104.594 35.6162 104.475 36.1635 104.214 36.6464C104.118 36.8085 103.98 36.9422 103.815 37.0339C103.65 37.1256 103.464 37.1721 103.276 37.1687H98.2989V22.0953C98.2959 21.8136 98.1818 21.5445 97.9814 21.3467C97.781 21.149 97.5106 21.0385 97.2292 21.0395H96.0169C95.7377 21.0425 95.4707 21.1545 95.273 21.3518C95.0752 21.549 94.9623 21.8158 94.9584 22.0953V37.1687H87.8272C87.5285 37.1687 87.2421 37.2874 87.031 37.4988C86.8198 37.7102 86.7012 37.9968 86.7012 38.2958V39.4229C86.7012 39.7218 86.8198 40.0085 87.031 40.2199C87.2421 40.4313 87.5285 40.55 87.8272 40.55H103.966C104.728 40.5814 105.48 40.3653 106.109 39.9339C106.642 39.5515 107.075 39.048 107.374 38.4648C107.689 38.7691 108.029 39.0456 108.391 39.2914C108.785 39.5577 109.207 39.7795 109.649 39.9526C110.154 40.1518 110.679 40.2991 111.214 40.3922C111.851 40.5024 112.497 40.5552 113.143 40.55H143.106C143.799 40.5764 144.484 40.4016 145.08 40.0466C145.583 39.729 146.009 39.3028 146.326 38.7992C146.695 39.12 147.1 39.395 147.535 39.6183C147.968 39.8423 148.424 40.0223 148.893 40.1555C149.363 40.2927 149.842 40.3932 150.327 40.4561C150.809 40.5173 151.294 40.5487 151.78 40.55H153.788C154.473 40.5751 155.152 40.403 155.743 40.0541C156.248 39.7438 156.675 39.3208 156.989 38.818C157.379 39.1617 157.815 39.45 158.284 39.6746C158.741 39.8935 159.218 40.0708 159.707 40.2044C160.175 40.333 160.653 40.4235 161.137 40.4749C161.575 40.5225 162.016 40.5476 162.458 40.55H167.465C167.751 40.5441 168.023 40.4249 168.221 40.2185C168.42 40.0122 168.528 39.7355 168.523 39.4492V27.1824C168.522 26.906 168.412 26.6413 168.216 26.4462C168.021 26.2512 167.756 26.1416 167.48 26.1416H166.215C166.078 26.1412 165.942 26.1677 165.816 26.2198C165.689 26.2719 165.574 26.3484 165.477 26.4451C165.38 26.5418 165.303 26.6567 165.251 26.7832C165.198 26.9097 165.171 27.0454 165.171 27.1824" fill="white"/>
<path d="M11.7858 70.1037C13.8401 71.0052 16.0584 71.472 18.3015 71.475C22.0173 71.475 24.1867 70.0097 24.1867 67.8907C24.1867 65.9258 22.6854 64.8024 18.8833 63.7129C14.293 62.4956 11.4517 60.7072 11.4517 57.7579C11.4517 54.4855 15.0849 52.0547 20.5535 52.0547C23.436 52.0547 25.5228 52.5506 26.7764 53.0804L25.7743 55.297C24.0735 54.6231 22.2588 54.2838 20.4296 54.2977C16.5862 54.2977 15.1262 56.0109 15.1262 57.4461C15.1262 59.411 16.8377 60.3766 20.7224 61.5C25.4816 62.8713 27.9024 64.5845 27.9024 67.6728C27.9024 70.9152 24.6896 73.7217 18.05 73.7217C15.3364 73.7217 12.3713 73.1281 10.8662 72.3804L11.7858 70.1037Z" fill="white"/>
<path d="M44.0604 73.409L43.7677 71.5041H43.6438C42.5178 72.6914 40.3446 73.7584 37.4659 73.7584C33.371 73.7584 31.2842 71.6056 31.2842 69.4227C31.2842 65.7783 35.6267 63.7871 43.4336 63.8134V63.494C43.4336 62.2467 42.9757 60.0037 38.8433 60.0037C37.0317 60.0018 35.2405 60.386 33.5887 61.1309L32.7555 59.3237C34.4219 58.5122 36.8466 57.9824 39.3913 57.9824C45.573 57.9824 47.0743 61.1308 47.0743 64.1553V69.7909C47.0494 71.0057 47.1614 72.2193 47.4084 73.409H44.0604ZM43.5387 65.707C39.5302 65.6431 34.9774 66.1766 34.9774 69.1071C34.9774 70.8805 36.5651 71.7371 38.4417 71.7371C41.069 71.7371 42.743 70.4897 43.321 69.2086C43.4494 68.9353 43.5209 68.6387 43.5312 68.3369L43.5387 65.707Z" fill="white"/>
<path d="M52.9971 51.2725H56.6753V73.4091H52.9971V51.2725Z" fill="white"/>
<path d="M74.038 73.409L73.749 71.5041H73.6213C72.4953 72.6914 70.3222 73.7584 67.4434 73.7584C63.3523 73.7584 61.2617 71.6056 61.2617 69.4227C61.2617 65.7783 65.6043 63.7871 73.4149 63.8134V63.494C73.4149 62.2467 72.9532 60.0037 68.8209 60.0037C67.0093 60.0018 65.218 60.386 63.5662 61.1309L62.733 59.3237C64.4032 58.5122 66.8241 57.9824 69.3726 57.9824C75.5505 57.9824 77.0519 61.1308 77.0519 64.1553V69.7909C77.0269 71.0057 77.139 72.2193 77.3859 73.409H74.038ZM73.4975 65.707C69.489 65.6431 64.9362 66.1766 64.9362 69.1071C64.9362 70.8805 66.5238 71.7371 68.4042 71.7371C71.0316 71.7371 72.7055 70.4897 73.2835 69.2086C73.4136 68.9359 73.4852 68.639 73.4937 68.3369L73.4975 65.707Z" fill="white"/>
<path d="M82.9737 62.4008C82.987 61.0376 82.9319 59.6745 82.8086 58.3168H86.0214L86.1903 60.7514H86.3254C87.4514 59.3162 89.3281 57.9749 92.6723 57.9749C95.4272 57.9749 97.514 59.2223 98.3923 60.9994H98.4749C99.081 60.1949 99.848 59.5257 100.727 59.0344C102.092 58.282 103.636 57.9157 105.193 57.9749C107.866 57.9749 111.833 59.2862 111.833 64.5235V73.409H108.241V64.8654C108.241 61.965 106.822 60.2217 103.857 60.2217C101.77 60.2217 100.141 61.3751 99.5145 62.7126C99.3275 63.1471 99.2292 63.6146 99.2255 64.0877V73.409H95.6336V64.3657C95.6336 61.965 94.2149 60.233 91.4149 60.233C89.1179 60.233 87.4477 61.6043 86.8659 62.9756C86.6628 63.3929 86.5624 63.8528 86.5732 64.3169V73.4203H82.9812L82.9737 62.4008Z" fill="white"/>
<path d="M122.057 53.9854V58.3173H127.312V60.4062H122.057V68.544C122.057 70.4225 122.766 71.4745 124.812 71.4745C125.526 71.4828 126.239 71.4199 126.94 71.2867L127.109 73.3455C126.046 73.6217 124.949 73.7482 123.851 73.7213C122.14 73.7213 120.762 73.3155 119.884 72.5678C118.84 71.7563 118.465 70.415 118.465 68.6379V60.4062H115.331V58.3173H118.465V54.703L122.057 53.9854Z" fill="white"/>
<path d="M142.626 73.409L142.333 71.5041H142.209C141.083 72.6914 138.91 73.7584 136.028 73.7584C131.936 73.7584 129.85 71.6056 129.85 69.4227C129.85 65.7783 134.192 63.7871 141.999 63.8134V63.494C141.999 62.2467 141.541 60.0037 137.405 60.0037C135.593 60.0011 133.802 60.3854 132.15 61.1309L131.313 59.3237C132.984 58.5122 135.404 57.9824 137.953 57.9824C144.131 57.9824 145.636 61.1308 145.636 64.1553V69.7909C145.609 71.0057 145.721 72.2197 145.97 73.409H142.626ZM142.082 65.707C138.073 65.6431 133.524 66.1766 133.524 69.1071C133.524 70.8805 135.108 71.7371 136.988 71.7371C139.616 71.7371 141.29 70.4897 141.868 69.2086C141.995 68.935 142.065 68.6385 142.074 68.3369L142.082 65.707Z" fill="white"/>
<path d="M155.206 65.2413H155.289C155.792 64.7115 156.501 64.054 157.087 63.5243L163.017 58.317H167.442L159.632 64.5237L168.523 73.4091H164.057L157.083 66.1768L155.206 67.7322V73.4091H151.573V51.2725H155.206V65.2413Z" fill="white"/>
</svg>
